<?xml version="1.0" encoding="UTF-8" standalone="no"?>
<!-- Created with Inkscape (http://www.inkscape.org/) -->

<svg
   xmlns:dc="http://purl.org/dc/elements/1.1/"
   xmlns:cc="http://creativecommons.org/ns#"
   xmlns:rdf="http://www.w3.org/1999/02/22-rdf-syntax-ns#"
   xmlns:svg="http://www.w3.org/2000/svg"
   xmlns="http://www.w3.org/2000/svg"
   xmlns:sodipodi="http://sodipodi.sourceforge.net/DTD/sodipodi-0.dtd"
   xmlns:inkscape="http://www.inkscape.org/namespaces/inkscape"
   version="1.1"
   id="svg815"
   width="800"
   height="108"
   viewBox="0 0 800 108"
   sodipodi:docname="Timesheet.svg"
   inkscape:version="0.92.4 (5da689c313, 2019-01-14)">
  <metadata
     id="metadata821">
    <rdf:RDF>
      <cc:Work
         rdf:about="">
        <dc:format>image/svg+xml</dc:format>
        <dc:type
           rdf:resource="http://purl.org/dc/dcmitype/StillImage" />
        <dc:title />
      </cc:Work>
    </rdf:RDF>
  </metadata>
  <defs
     id="defs819" />
  <sodipodi:namedview
     pagecolor="#ffffff"
     bordercolor="#666666"
     borderopacity="1"
     objecttolerance="10"
     gridtolerance="10"
     guidetolerance="10"
     inkscape:pageopacity="0"
     inkscape:pageshadow="2"
     inkscape:window-width="1920"
     inkscape:window-height="1017"
     id="namedview817"
     showgrid="false"
     inkscape:zoom="1.08125"
     inkscape:cx="237.19171"
     inkscape:cy="141.31843"
     inkscape:window-x="-8"
     inkscape:window-y="-8"
     inkscape:window-maximized="1"
     inkscape:current-layer="svg815" />
  <g
     id="g843"
     transform="translate(1.849711,-22.65896)">
    <path
       style="fill:#a8a8a8"
       d="m 379.76879,121.81534 c -6.41647,-1.06567 -18.04771,-4.44116 -23.27851,-6.75562 -3.17819,-1.40624 -7.11569,-2.5568 -8.75,-2.5568 -1.74548,0 -2.97149,-0.52737 -2.97149,-1.27819 0,-2.39964 8.77325,-21.22181 9.89175,-21.22181 0.61337,0 1.90115,1.575 2.86173,3.5 2.08045,4.169191 11.01034,9.03995 20.11644,10.9724 8.13747,1.72688 22.60033,0.98121 27.49814,-1.41775 4.10143,-2.00888 7.622,-6.684235 7.6282,-10.130336 0.004,-2.301354 -3.40472,-5.866831 -6.49626,-6.794719 -1.1,-0.330152 -8.3,-1.285669 -16,-2.123372 -24.29272,-2.642867 -31.44472,-4.978831 -37.41937,-12.221797 -3.64911,-4.423747 -5.06948,-8.846231 -5.06948,-15.784426 0,-10.85781 4.6633,-18.710679 14.254,-24.003374 7.77046,-4.288179 17.07316,-5.919698 29.99343,-5.260282 8.64942,0.441443 12.15172,1.159683 20.82004,4.269695 5.73176,2.056436 12.55888,3.952278 15.17138,4.212981 2.6125,0.260704 4.75,0.890565 4.75,1.399691 0,1.434048 -8.02935,17.165089 -9.76462,19.130769 -1.44912,1.641536 -1.74693,1.512887 -4.82662,-2.085039 -8.03548,-9.387657 -31.25544,-14.015781 -43.87172,-8.744364 -4.2084,1.758382 -7.71211,6.293124 -7.33461,9.49296 0.53431,4.52904 5.3841,6.680976 17.99449,7.984463 31.10082,3.21477 39.97618,6.835785 45.42231,18.531637 4.27192,9.174159 2.88378,20.360143 -3.53185,28.460533 -7.34436,9.27302 -30.02467,15.25661 -47.08738,12.42275 z M 35.768786,119.12537 c 0,-0.75766 0.680619,-1.94242 1.512488,-2.63281 1.307429,-1.08507 1.4769,-6.08413 1.25,-36.872449 L 38.268786,44.00289 24.304479,43.723275 c -12.715575,-0.254611 -14.20979,-0.09812 -16.709507,1.75 -1.5098605,1.116288 -2.9884225,2.029615 -3.2856934,2.029615 -0.9147061,0 -0.5967803,-22.847178 0.3258607,-23.417401 0.4764943,-0.29449 1.6712387,0.353952 2.6549876,1.440983 1.725695,1.906871 3.2204541,1.976418 42.4786591,1.976418 39.258205,0 40.752964,-0.06955 42.478659,-1.976418 0.983749,-1.087031 2.178494,-1.735473 2.654988,-1.440983 0.476494,0.294489 0.866353,5.683878 0.866353,11.976418 0,12.10815 -0.689313,13.620553 -4.290797,9.414325 -1.619056,-1.89092 -2.722315,-2.008129 -16.472241,-1.75 L 60.268786,44.00289 60.005558,78.98936 c -0.251307,33.40199 -0.174482,35.10651 1.696367,37.63697 1.077778,1.45777 1.683731,2.92636 1.346562,3.26353 -0.337169,0.33717 -6.613034,0.61303 -13.946368,0.61303 -10.658456,0 -13.333333,-0.27636 -13.333333,-1.37755 z"
       id="path855"
       inkscape:connector-curvature="0"
       sodipodi:nodetypes="scssscsscsssssssssssssssssccssssssssssscsssssscc" />
    <path
       style="fill:#800000"
       d="m 329.90801,122.46962 c -2.24962,-1.87412 -4.02724,-1.96673 -37.75,-1.96673 -19.46407,0 -35.38922,-0.26652 -35.38922,-0.59227 0,-0.32575 0.9,-1.73644 2,-3.13486 1.90456,-2.42125 2,-4.05678 2,-34.27287 0,-30.039982 -0.1048,-31.86351 -1.96725,-34.23123 -1.08198,-1.37552 -1.68198,-2.786207 -1.33333,-3.134858 0.34865,-0.348652 16.01417,-0.633912 34.81226,-0.633912 32.90835,0 34.2456,-0.07432 35.98832,-2 0.99549,-1.1 2.19023,-2 2.65499,-2 0.46475,0 0.84501,4.95 0.84501,11 0,6.05 -0.38026,11 -0.84501,11 -0.46476,0 -1.6595,-0.9 -2.65499,-2 -1.71151,-1.891198 -3.07997,-2 -25.15499,-2 h -23.34501 v 8 8 h 14.87756 c 12.00454,0 15.11795,-0.289666 16.12244,-1.5 0.68469,-0.825 1.86479,-1.5 2.62244,-1.5 1.0777,0 1.37756,2.163936 1.37756,9.940983 0,5.467541 -0.38986,10.181929 -0.86635,10.476419 -0.4765,0.294489 -1.67124,-0.353953 -2.65499,-1.440983 -1.6285,-1.799476 -3.11767,-1.976419 -16.63365,-1.976419 h -14.84501 v 9 9 h 24.18555 c 23.62056,0 24.24084,-0.0519 26.55267,-2.22379 2.00717,-1.88564 2.50885,-1.99969 3.29914,-0.75 1.03297,1.63343 1.31291,16.89742 0.35565,19.392 -0.77498,2.01957 -1.3625,1.95721 -4.25379,-0.45148 z m 289,-0.002 c -2.24866,-1.87142 -4.04165,-1.96473 -37.75,-1.96473 -19.46407,0 -35.38922,-0.38026 -35.38922,-0.84501 0,-0.46476 0.9,-1.6595 2,-2.65499 1.9223,-1.73966 2,-3.07997 2,-34.5 0,-31.290022 -0.0846,-32.766626 -1.97642,-34.478659 -1.08703,-0.983749 -1.73547,-2.178494 -1.44098,-2.654988 0.29449,-0.476494 16.03388,-0.866353 34.97642,-0.866353 33.31327,0 34.50766,-0.06668 36.47745,-2.036475 1.12007,-1.12006 2.47007,-1.768503 3,-1.440983 1.34476,0.831106 1.24302,20.186687 -0.1105,21.02321 -0.59071,0.365082 -2.09141,-0.291999 -3.33488,-1.460181 -2.18773,-2.055264 -3.00207,-2.115258 -25.17598,-1.854768 l -22.91511,0.269197 v 7.5 7.5 l 14.60605,0.275909 c 12.10944,0.228747 14.82252,0.01508 15.87245,-1.25 0.69651,-0.83925 1.88629,-1.525909 2.64394,-1.525909 1.07668,0 1.37756,2.147722 1.37756,9.833333 0,5.408334 -0.30412,10.13745 -0.67581,10.509147 -0.3717,0.371697 -1.65181,-0.241085 -2.84469,-1.361738 -2.0069,-1.885384 -3.24467,-2.016759 -16.57419,-1.759146 l -14.40531,0.278404 v 8.5 8.5 l 24.5,0.27743 c 24.15133,0.27349 24.52547,0.2463 26.28992,-1.91008 1.19118,-1.45578 2.12384,-1.85359 2.78816,-1.18927 1.28941,1.28941 0.75779,20.56052 -0.57808,20.95538 -0.55,0.16257 -2.06235,-0.58846 -3.36078,-1.66894 z m 89,0 c -2.24866,-1.87142 -4.04165,-1.96473 -37.75,-1.96473 -19.46407,0 -35.38922,-0.38026 -35.38922,-0.84501 0,-0.46476 0.9,-1.6595 2,-2.65499 1.9223,-1.73966 2,-3.07997 2,-34.5 0,-31.290022 -0.0846,-32.766626 -1.97642,-34.478659 -1.08703,-0.983749 -1.73547,-2.178494 -1.44098,-2.654988 0.29449,-0.476494 16.01635,-0.866353 34.93746,-0.866353 34.32735,0 34.40655,-0.0049 36.48574,-2.236601 3.06275,-3.28748 3.9606,-1.047289 3.97889,9.927584 0.0168,10.075071 -0.84735,11.72612 -4.3936,8.394588 -2.18773,-2.055264 -3.00207,-2.115258 -25.17598,-1.854768 l -22.91511,0.269197 -0.29206,7.75 -0.29207,7.75 h 14.91962 c 12.04193,0 15.15973,-0.289319 16.16451,-1.5 0.68469,-0.825 1.86479,-1.5 2.62244,-1.5 1.07668,0 1.37756,2.147722 1.37756,9.833333 0,5.408334 -0.30412,10.13745 -0.67581,10.509147 -0.3717,0.371697 -1.65181,-0.241085 -2.84469,-1.361738 -2.0069,-1.885384 -3.24467,-2.016759 -16.57419,-1.759146 l -14.40531,0.278404 v 8.5 8.5 l 24.23226,0.26774 c 23.5293,0.25997 24.2937,0.2063 26.35,-1.85 1.31877,-1.31877 2.47169,-1.76379 3.0559,-1.17958 1.24028,1.24028 0.65164,20.51406 -0.63816,20.8953 -0.55,0.16257 -2.06235,-0.58846 -3.36078,-1.66894 z m -328.13922,-0.65231 c -6.41647,-1.06567 -18.04771,-4.44116 -23.27851,-6.75562 -3.17819,-1.40624 -7.11569,-2.5568 -8.75,-2.5568 -1.74548,0 -2.97149,-0.52737 -2.97149,-1.27819 0,-2.39964 8.77325,-21.22181 9.89175,-21.22181 0.61337,0 1.90115,1.575 2.86173,3.5 2.08045,4.169191 11.01034,9.03995 20.11644,10.9724 8.13747,1.72688 22.60033,0.98121 27.49814,-1.41775 4.10143,-2.00888 7.622,-6.684235 7.6282,-10.130336 0.004,-2.301354 -3.40472,-5.866831 -6.49626,-6.794719 -1.1,-0.330152 -8.3,-1.285669 -16,-2.123372 -24.29272,-2.642867 -31.44472,-4.978831 -37.41937,-12.221797 -3.64911,-4.423747 -5.06948,-8.846231 -5.06948,-15.784426 0,-10.85781 4.6633,-18.710679 14.254,-24.003374 7.77046,-4.288179 17.07316,-5.919698 29.99343,-5.260282 8.64942,0.441443 12.15172,1.159683 20.82004,4.269695 5.73176,2.056436 12.55888,3.952278 15.17138,4.212981 2.6125,0.260704 4.75,0.890565 4.75,1.399691 0,1.434048 -8.02935,17.165089 -9.76462,19.130769 -1.44912,1.641536 -1.74693,1.512887 -4.82662,-2.085039 -8.03548,-9.387657 -31.25544,-14.015781 -43.87172,-8.744364 -4.2084,1.758382 -7.71211,6.293124 -7.33461,9.49296 0.53431,4.52904 5.3841,6.680976 17.99449,7.984463 31.10082,3.21477 39.97618,6.835785 45.42231,18.531637 4.27192,9.174159 2.88378,20.360143 -3.53185,28.460533 -7.34436,9.27302 -30.02467,15.25661 -47.08738,12.42275 z M 35.768786,119.12534 c 0,-0.75766 0.680619,-1.94242 1.512488,-2.63281 1.307429,-1.08507 1.4769,-6.08413 1.25,-36.872449 L 38.268786,44.00289 24.304479,43.723275 c -12.715575,-0.254611 -14.20979,-0.09812 -16.709507,1.75 -1.5098605,1.116288 -2.9884225,2.029615 -3.2856934,2.029615 -0.9147061,0 -0.5967803,-22.847178 0.3258607,-23.417401 0.4764943,-0.29449 1.6712387,0.353952 2.6549876,1.440983 1.725695,1.906871 3.2204541,1.976418 42.4786591,1.976418 39.258205,0 40.752964,-0.06955 42.478659,-1.976418 0.983749,-1.087031 2.178494,-1.735473 2.654988,-1.440983 0.476494,0.294489 0.866353,5.683878 0.866353,11.976418 0,12.10815 -0.689313,13.620553 -4.290797,9.414325 -1.619056,-1.89092 -2.722315,-2.008129 -16.472241,-1.75 L 60.268786,44.00289 60.005558,78.98936 c -0.251307,33.40199 -0.174482,35.10651 1.696367,37.63697 1.077778,1.45777 1.683731,2.92636 1.346562,3.26353 -0.337169,0.33717 -6.613034,0.61303 -13.946368,0.61303 -10.658456,0 -13.333333,-0.27636 -13.333333,-1.37755 z m 68.000004,0 c 0,-0.75766 0.675,-1.93776 1.5,-2.62245 1.27747,-1.0602 1.5,-6.1043 1.5,-34 0,-27.895703 -0.22253,-32.939797 -1.5,-34 -0.825,-0.684689 -1.5,-1.864789 -1.5,-2.622445 0,-1.096604 2.54936,-1.377555 12.5,-1.377555 9.95064,0 12.5,0.280951 12.5,1.377555 0,0.757656 -0.675,1.937756 -1.5,2.622445 -2.24955,1.866957 -2.24955,66.13304 0,68 0.825,0.68469 1.5,1.86479 1.5,2.62245 0,1.0966 -2.54936,1.37755 -12.5,1.37755 -9.95064,0 -12.5,-0.28095 -12.5,-1.37755 z m 40,-0.0155 c 0,-0.76616 0.675,-1.65204 1.5,-1.96862 1.29192,-0.49575 1.5,-5.2102 1.5,-33.984544 0,-28.476881 -0.22144,-33.592716 -1.5,-34.653826 -0.825,-0.684689 -1.5,-1.864789 -1.5,-2.622445 0,-1.108607 2.91701,-1.377555 14.94098,-1.377555 14.73553,0 17.79595,0.66307 15.17189,3.287132 -2.29311,2.293104 -0.89375,6.503097 7.03185,21.155432 9.38399,17.348535 11.77986,21.035397 12.92174,19.884481 1.89453,-1.909542 20.12712,-35.044966 20.60897,-37.454201 0.28933,-1.446656 0.0307,-2.936417 -0.57469,-3.310581 -0.60541,-0.374163 -1.10074,-1.328739 -1.10074,-2.12128 0,-1.1906 2.60637,-1.440983 15,-1.440983 8.25,0 15,0.302067 15,0.671259 0,0.369193 -0.7875,1.541437 -1.75,2.604988 -1.59177,1.758887 -1.75,4.898483 -1.75,34.723753 0,29.84082 0.15759,32.96417 1.75218,34.72616 0.9637,1.06488 1.4512,2.23713 1.08334,2.60499 -0.8729,0.8729 -23.79814,0.8729 -24.67104,0 -0.36786,-0.36786 0.11964,-1.53881 1.08334,-2.60211 1.50109,-1.65622 1.79752,-4.45039 2.0686,-19.498449 0.3095,-17.181146 -0.0616,-22.230591 -1.63389,-22.230591 -0.42865,0 -6.58935,9.906075 -13.69045,22.0135 -7.10109,12.10742 -13.37931,21.85937 -13.95158,21.671 -0.57228,-0.18838 -6.55273,-10.20686 -13.2899,-22.263301 -6.73717,-12.05644 -12.69967,-22.07089 -13.25,-22.254333 -0.64517,-0.215057 -1.0006,6.752444 -1.0006,19.614942 0,18.323562 0.16024,20.152192 1.96725,22.449422 1.08198,1.37552 1.68198,2.78621 1.33333,3.13486 -0.34865,0.34865 -5.73391,0.63391 -11.96725,0.63391 -9.02054,0 -11.33333,-0.28427 -11.33333,-1.39301 z m 302,0.51545 c 0,-0.48265 0.675,-1.43775 1.5,-2.12244 1.27831,-1.0609 1.5,-6.15985 1.5,-34.5 0,-28.340147 -0.22169,-33.4391 -1.5,-34.5 -0.825,-0.684689 -1.5,-1.864789 -1.5,-2.622445 0,-1.095611 2.52426,-1.377555 12.33333,-1.377555 6.78334,0 12.63745,0.304116 13.00915,0.675813 0.3717,0.371697 -0.24367,1.654556 -1.36748,2.850799 -1.85082,1.970108 -2.01653,3.248758 -1.75915,13.574187 l 0.28415,11.399201 h 20.5 20.5 l 0.28415,-11.399201 c 0.25738,-10.325429 0.0917,-11.604079 -1.75915,-13.574187 -1.12381,-1.196243 -1.73918,-2.479102 -1.36748,-2.850799 0.3717,-0.371697 6.22581,-0.675813 13.00915,-0.675813 9.80907,0 12.33333,0.281944 12.33333,1.377555 0,0.757656 -0.675,1.937756 -1.5,2.622445 -1.27831,1.0609 -1.5,6.159853 -1.5,34.5 0,28.34015 0.22169,33.4391 1.5,34.5 0.825,0.68469 1.5,1.63979 1.5,2.12245 0,1.01824 -24.33228,1.21194 -25.34248,0.20174 -0.3717,-0.3717 0.24185,-1.65262 1.36343,-2.84649 1.87562,-1.9965 2.01676,-3.24612 1.75914,-15.57418 l -0.28009,-13.40352 h -20.5 -20.5 l -0.28009,13.40352 c -0.25762,12.32806 -0.11648,13.57768 1.75914,15.57418 1.12158,1.19387 1.73513,2.47479 1.36343,2.84649 -1.0102,1.0102 -25.34248,0.8165 -25.34248,-0.20174 z m 298,-0.5 c 0,-0.75765 0.6819,-1.94348 1.51534,-2.63518 1.29998,-1.07888 1.47764,-5.25348 1.25,-29.372443 L 746.26879,59.00289 735.31301,58.716971 c -9.62674,-0.251235 -11.28103,-0.04545 -13.63697,1.696367 -1.47465,1.090258 -2.95705,1.706422 -3.29422,1.369253 -0.95471,-0.954713 -0.72044,-20.095283 0.25332,-20.697103 0.4765,-0.294489 1.67124,0.353953 2.65499,1.440983 1.71308,1.892932 3.19063,1.976419 34.97866,1.976419 31.78803,0 33.26558,-0.08349 34.97866,-1.976419 0.98375,-1.08703 2.17849,-1.735472 2.65499,-1.440983 0.97376,0.60182 1.20803,19.74239 0.25332,20.697103 -0.33717,0.337169 -1.81957,-0.278995 -3.29422,-1.369253 -2.35594,-1.741817 -4.01023,-1.947602 -13.63697,-1.696367 l -10.95578,0.285919 -0.26534,28.114821 c -0.22764,24.118969 -0.05,28.293559 1.25,29.372449 0.83344,0.69169 1.51534,1.87752 1.51534,2.63518 0,1.0966 -2.54936,1.37755 -12.5,1.37755 -9.95064,0 -12.5,-0.28095 -12.5,-1.37755 z"
       id="path853"
       inkscape:connector-curvature="0" />
    <path
       style="fill:#767676"
       d="m 329.90801,122.46962 c -2.24962,-1.87412 -4.02724,-1.96673 -37.75,-1.96673 -19.46407,0 -35.38922,-0.26652 -35.38922,-0.59227 0,-0.32575 0.9,-1.73644 2,-3.13486 1.90456,-2.42125 2,-4.05678 2,-34.27287 0,-30.039982 -0.1048,-31.86351 -1.96725,-34.23123 -1.08198,-1.37552 -1.68198,-2.786207 -1.33333,-3.134858 0.34865,-0.348652 16.01417,-0.633912 34.81226,-0.633912 32.90835,0 34.2456,-0.07432 35.98832,-2 0.99549,-1.1 2.19023,-2 2.65499,-2 0.46475,0 0.84501,4.95 0.84501,11 0,6.05 -0.38026,11 -0.84501,11 -0.46476,0 -1.6595,-0.9 -2.65499,-2 -1.71151,-1.891198 -3.07997,-2 -25.15499,-2 h -23.34501 v 8 8 h 14.87756 c 12.00454,0 15.11795,-0.289666 16.12244,-1.5 0.68469,-0.825 1.86479,-1.5 2.62244,-1.5 1.0777,0 1.37756,2.163936 1.37756,9.940983 0,5.467541 -0.38986,10.181929 -0.86635,10.476419 -0.4765,0.294489 -1.67124,-0.353953 -2.65499,-1.440983 -1.6285,-1.799476 -3.11767,-1.976419 -16.63365,-1.976419 h -14.84501 v 9 9 h 24.18555 c 23.62056,0 24.24084,-0.0519 26.55267,-2.22379 2.00717,-1.88564 2.50885,-1.99969 3.29914,-0.75 1.03297,1.63343 1.31291,16.89742 0.35565,19.392 -0.77498,2.01957 -1.3625,1.95721 -4.25379,-0.45148 z m 289,-0.002 c -2.24866,-1.87142 -4.04165,-1.96473 -37.75,-1.96473 -19.46407,0 -35.38922,-0.38026 -35.38922,-0.84501 0,-0.46476 0.9,-1.6595 2,-2.65499 1.9223,-1.73966 2,-3.07997 2,-34.5 0,-31.290022 -0.0846,-32.766626 -1.97642,-34.478659 -1.08703,-0.983749 -1.73547,-2.178494 -1.44098,-2.654988 0.29449,-0.476494 16.03388,-0.866353 34.97642,-0.866353 33.31327,0 34.50766,-0.06668 36.47745,-2.036475 1.12007,-1.12006 2.47007,-1.768503 3,-1.440983 1.34476,0.831106 1.24302,20.186687 -0.1105,21.02321 -0.59071,0.365082 -2.09141,-0.291999 -3.33488,-1.460181 -2.18773,-2.055264 -3.00207,-2.115258 -25.17598,-1.854768 l -22.91511,0.269197 v 7.5 7.5 l 14.60605,0.275909 c 12.10944,0.228747 14.82252,0.01508 15.87245,-1.25 0.69651,-0.83925 1.88629,-1.525909 2.64394,-1.525909 1.07668,0 1.37756,2.147722 1.37756,9.833333 0,5.408334 -0.30412,10.13745 -0.67581,10.509147 -0.3717,0.371697 -1.65181,-0.241085 -2.84469,-1.361738 -2.0069,-1.885384 -3.24467,-2.016759 -16.57419,-1.759146 l -14.40531,0.278404 v 8.5 8.5 l 24.5,0.27743 c 24.15133,0.27349 24.52547,0.2463 26.28992,-1.91008 1.19118,-1.45578 2.12384,-1.85359 2.78816,-1.18927 1.28941,1.28941 0.75779,20.56052 -0.57808,20.95538 -0.55,0.16257 -2.06235,-0.58846 -3.36078,-1.66894 z m 89,0 c -2.24866,-1.87142 -4.04165,-1.96473 -37.75,-1.96473 -19.46407,0 -35.38922,-0.38026 -35.38922,-0.84501 0,-0.46476 0.9,-1.6595 2,-2.65499 1.9223,-1.73966 2,-3.07997 2,-34.5 0,-31.290022 -0.0846,-32.766626 -1.97642,-34.478659 -1.08703,-0.983749 -1.73547,-2.178494 -1.44098,-2.654988 0.29449,-0.476494 16.01635,-0.866353 34.93746,-0.866353 34.32735,0 34.40655,-0.0049 36.48574,-2.236601 3.06275,-3.28748 3.9606,-1.047289 3.97889,9.927584 0.0168,10.075071 -0.84735,11.72612 -4.3936,8.394588 -2.18773,-2.055264 -3.00207,-2.115258 -25.17598,-1.854768 l -22.91511,0.269197 -0.29206,7.75 -0.29207,7.75 h 14.91962 c 12.04193,0 15.15973,-0.289319 16.16451,-1.5 0.68469,-0.825 1.86479,-1.5 2.62244,-1.5 1.07668,0 1.37756,2.147722 1.37756,9.833333 0,5.408334 -0.30412,10.13745 -0.67581,10.509147 -0.3717,0.371697 -1.65181,-0.241085 -2.84469,-1.361738 -2.0069,-1.885384 -3.24467,-2.016759 -16.57419,-1.759146 l -14.40531,0.278404 v 8.5 8.5 l 24.23226,0.26774 c 23.5293,0.25997 24.2937,0.2063 26.35,-1.85 1.31877,-1.31877 2.47169,-1.76379 3.0559,-1.17958 1.24028,1.24028 0.65164,20.51406 -0.63816,20.8953 -0.55,0.16257 -2.06235,-0.58846 -3.36078,-1.66894 z m -328.6003,-2.07708 c -7.52091,-1.09571 -15.18606,-3.31457 -22.26448,-6.44498 -3.03781,-1.34347 -6.86545,-2.44267 -8.50586,-2.44267 -1.99415,0 -2.81182,-0.41424 -2.46736,-1.25 4.53547,-11.004132 8.1457,-18.75 8.73908,-18.75 0.40858,0 1.02209,1.112465 1.36335,2.472144 0.8578,3.417748 6.7087,7.143476 15.59635,9.931416 13.52362,4.2422 25.63219,4.23747 34.59047,-0.0135 6.88272,-3.26606 9.67209,-11.970541 5.15953,-16.100791 -3.05686,-2.797881 -3.83519,-2.973026 -23.28696,-5.240145 -20.13641,-2.346915 -26.05648,-4.058858 -31.93755,-9.235581 -5.78537,-5.092487 -7.96179,-10.789371 -7.29508,-19.095212 0.63319,-7.888157 3.46733,-13.517305 9.15014,-18.173942 7.67335,-6.287732 14.04237,-8.008017 29.61945,-8.000271 13.36743,0.0067 13.62275,0.04972 26,4.385691 6.875,2.408438 13.5125,4.314546 14.75,4.235796 1.2375,-0.07875 2.25,0.311766 2.25,0.867814 0,0.804329 -7.60143,16.74071 -8.45148,17.718502 -0.12044,0.138546 -2.03899,-1.479427 -4.26344,-3.595496 -11.65212,-11.084392 -39.91945,-13.722038 -49.06335,-4.578139 -2.80132,2.801322 -3.29596,3.959088 -3.03433,7.10216 0.42164,5.065089 4.63588,7.89592 13.06524,8.7763 31.87849,3.329457 38.68696,5.184119 45.81288,12.479663 5.4765,5.606852 7.47655,11.522491 6.63909,19.636713 -1.43191,13.873858 -12.51697,22.625318 -32.11028,25.350498 -8.70497,1.21075 -11.53296,1.20568 -20.05541,-0.0359 z m -275.53892,-1.2652 c 0,-0.75766 0.675,-1.93776 1.5,-2.62245 1.27747,-1.0602 1.5,-6.1043 1.5,-34 0,-27.895703 -0.22253,-32.939797 -1.5,-34 -0.825,-0.684689 -1.5,-1.864789 -1.5,-2.622445 0,-1.096604 2.54936,-1.377555 12.5,-1.377555 9.95064,0 12.5,0.280951 12.5,1.377555 0,0.757656 -0.675,1.937756 -1.5,2.622445 -2.24955,1.866957 -2.24955,66.13304 0,68 0.825,0.68469 1.5,1.86479 1.5,2.62245 0,1.0966 -2.54936,1.37755 -12.5,1.37755 -9.95064,0 -12.5,-0.28095 -12.5,-1.37755 z m 40,-0.0155 c 0,-0.76616 0.675,-1.65204 1.5,-1.96862 1.29192,-0.49575 1.5,-5.2102 1.5,-33.984544 0,-28.476881 -0.22144,-33.592716 -1.5,-34.653826 -0.825,-0.684689 -1.5,-1.864789 -1.5,-2.622445 0,-1.108607 2.91701,-1.377555 14.94098,-1.377555 14.73553,0 17.79595,0.66307 15.17189,3.287132 -2.29311,2.293104 -0.89375,6.503097 7.03185,21.155432 9.38399,17.348535 11.77986,21.035397 12.92174,19.884481 1.89453,-1.909542 20.12712,-35.044966 20.60897,-37.454201 0.28933,-1.446656 0.0307,-2.936417 -0.57469,-3.310581 -0.60541,-0.374163 -1.10074,-1.328739 -1.10074,-2.12128 0,-1.1906 2.60637,-1.440983 15,-1.440983 8.25,0 15,0.302067 15,0.671259 0,0.369193 -0.7875,1.541437 -1.75,2.604988 -1.59177,1.758887 -1.75,4.898483 -1.75,34.723753 0,29.84082 0.15759,32.96417 1.75218,34.72616 0.9637,1.06488 1.4512,2.23713 1.08334,2.60499 -0.8729,0.8729 -23.79814,0.8729 -24.67104,0 -0.36786,-0.36786 0.11964,-1.53881 1.08334,-2.60211 1.50109,-1.65622 1.79752,-4.45039 2.0686,-19.498449 0.3095,-17.181146 -0.0616,-22.230591 -1.63389,-22.230591 -0.42865,0 -6.58935,9.906075 -13.69045,22.0135 -7.10109,12.10742 -13.37931,21.85937 -13.95158,21.671 -0.57228,-0.18838 -6.55273,-10.20686 -13.2899,-22.263301 -6.73717,-12.05644 -12.69967,-22.07089 -13.25,-22.254333 -0.64517,-0.215057 -1.0006,6.752444 -1.0006,19.614942 0,18.323562 0.16024,20.152192 1.96725,22.449422 1.08198,1.37552 1.68198,2.78621 1.33333,3.13486 -0.34865,0.34865 -5.73391,0.63391 -11.96725,0.63391 -9.02054,0 -11.33333,-0.28427 -11.33333,-1.39301 z m 302,0.51545 c 0,-0.48265 0.675,-1.43775 1.5,-2.12244 1.27831,-1.0609 1.5,-6.15985 1.5,-34.5 0,-28.340147 -0.22169,-33.4391 -1.5,-34.5 -0.825,-0.684689 -1.5,-1.864789 -1.5,-2.622445 0,-1.095611 2.52426,-1.377555 12.33333,-1.377555 6.78334,0 12.63745,0.304116 13.00915,0.675813 0.3717,0.371697 -0.24367,1.654556 -1.36748,2.850799 -1.85082,1.970108 -2.01653,3.248758 -1.75915,13.574187 l 0.28415,11.399201 h 20.5 20.5 l 0.28415,-11.399201 c 0.25738,-10.325429 0.0917,-11.604079 -1.75915,-13.574187 -1.12381,-1.196243 -1.73918,-2.479102 -1.36748,-2.850799 0.3717,-0.371697 6.22581,-0.675813 13.00915,-0.675813 9.80907,0 12.33333,0.281944 12.33333,1.377555 0,0.757656 -0.675,1.937756 -1.5,2.622445 -1.27831,1.0609 -1.5,6.159853 -1.5,34.5 0,28.34015 0.22169,33.4391 1.5,34.5 0.825,0.68469 1.5,1.63979 1.5,2.12245 0,1.01824 -24.33228,1.21194 -25.34248,0.20174 -0.3717,-0.3717 0.24185,-1.65262 1.36343,-2.84649 1.87562,-1.9965 2.01676,-3.24612 1.75914,-15.57418 l -0.28009,-13.40352 h -20.5 -20.5 l -0.28009,13.40352 c -0.25762,12.32806 -0.11648,13.57768 1.75914,15.57418 1.12158,1.19387 1.73513,2.47479 1.36343,2.84649 -1.0102,1.0102 -25.34248,0.8165 -25.34248,-0.20174 z m 298,-0.5 c 0,-0.75765 0.6819,-1.94348 1.51534,-2.63518 1.29998,-1.07888 1.47764,-5.25348 1.25,-29.372443 L 746.26879,59.00289 735.31301,58.716971 c -9.62674,-0.251235 -11.28103,-0.04545 -13.63697,1.696367 -1.47465,1.090258 -2.95705,1.706422 -3.29422,1.369253 -0.95471,-0.954713 -0.72044,-20.095283 0.25332,-20.697103 0.4765,-0.294489 1.67124,0.353953 2.65499,1.440983 1.71308,1.892932 3.19063,1.976419 34.97866,1.976419 31.78803,0 33.26558,-0.08349 34.97866,-1.976419 0.98375,-1.08703 2.17849,-1.735472 2.65499,-1.440983 0.97376,0.60182 1.20803,19.74239 0.25332,20.697103 -0.33717,0.337169 -1.81957,-0.278995 -3.29422,-1.369253 -2.35594,-1.741817 -4.01023,-1.947602 -13.63697,-1.696367 l -10.95578,0.285919 -0.26534,28.114821 c -0.22764,24.118969 -0.05,28.293559 1.25,29.372449 0.83344,0.69169 1.51534,1.87752 1.51534,2.63518 0,1.0966 -2.54936,1.37755 -12.5,1.37755 -9.95064,0 -12.5,-0.28095 -12.5,-1.37755 z m -706.000004,-0.4224 c 0,-0.44 0.455702,-1.2557 1.012672,-1.81267 0.656314,-0.65632 0.920238,-13.83491 0.75,-37.450002 L 39.268786,43.00289 24.385226,42.725392 c -12.101023,-0.225619 -15.3259748,0.01238 -17.25,1.273053 L 4.7687861,45.548996 V 35.370955 25.192915 l 2.1037165,1.904988 c 1.9779714,1.791121 4.3674704,1.922615 39.9763464,2.199901 36.764265,0.286282 45.919937,-0.278662 45.919937,-2.833458 0,-0.5288 0.45,-0.961456 1,-0.961456 0.6,0 1,4 1,10 0,9.886879 -0.555463,11.445487 -3.020472,8.475333 -1.053941,-1.269922 -3.873038,-1.478775 -16.872445,-1.25 l -15.607083,0.274667 -0.2628,35.905992 c -0.226223,30.908438 -0.04903,36.232238 1.273053,38.249998 l 1.535853,2.34401 H 49.791839 c -6.612679,0 -12.023053,-0.36 -12.023053,-0.8 z"
       id="path851"
       inkscape:connector-curvature="0" />
    <path
       style="fill:#800000"
       d="m 330.40324,121.70751 c -1.52923,-1.53035 -5.33282,-1.73507 -37.20389,-2.00243 l -35.5005,-0.29781 2.03497,-2.58705 c 1.94952,-2.47841 2.03497,-3.91948 2.03497,-34.31733 0,-30.586477 -0.0747,-31.825263 -2.07258,-34.365141 l -2.07258,-2.634859 h 34.41759 c 33.01072,0 34.49071,-0.08079 36.20623,-1.976419 0.98375,-1.08703 2.17849,-1.735472 2.65499,-1.440983 0.97444,0.602241 1.20669,17.743733 0.25332,18.697103 -0.33717,0.337169 -1.80949,-0.271543 -3.27183,-1.352692 -2.48917,-1.840323 -4.12467,-1.948543 -25.63696,-1.696368 l -22.97818,0.269359 v 8.5 8.5 l 15.10658,0.275273 c 12.55444,0.228768 15.32044,0.01759 16.37244,-1.25 2.42926,-2.927075 3.02098,-1.463001 3.02098,7.474727 0,4.95 -0.24083,9 -0.53518,9 -0.29435,0 -1.58478,-0.687719 -2.86761,-1.528264 -1.87546,-1.228846 -5.15023,-1.473747 -16.71482,-1.25 l -14.38239,0.278264 v 9.5 9.5 l 24.74484,0.26746 c 23.54383,0.25448 24.82655,0.17202 26.42838,-1.69877 0.92594,-1.08143 2.05327,-1.73773 2.50516,-1.45845 1.07811,0.66631 1.06931,18.11864 -0.009,18.78537 -0.4571,0.2825 -1.59761,-0.25344 -2.53446,-1.19099 z m 290.36555,0.89321 c 0,-2.51229 -7.62186,-3.09783 -40.32354,-3.09783 h -34.02509 l 2.17432,-2.31445 c 2.14052,-2.27848 2.17431,-2.82056 2.17431,-34.877557 0,-27.72503 -0.22286,-32.748063 -1.5,-33.807993 -0.825,-0.684689 -1.5,-1.639789 -1.5,-2.122445 0,-0.486103 15.08118,-0.877555 33.80887,-0.877555 28.17876,0 34.13212,-0.244495 35.75,-1.468197 1.06762,-0.807508 2.27863,-1.482508 2.69113,-1.5 0.4125,-0.01749 0.75,4.243197 0.75,9.468197 0,5.225 -0.24382,9.5 -0.54181,9.5 -0.298,0 -1.51636,-0.907924 -2.70747,-2.017609 -2.06299,-1.92197 -3.28162,-2.004924 -25.70818,-1.75 l -23.54254,0.267609 v 8.5 8.5 l 15.15305,0.275524 c 12.50904,0.227448 15.41923,0.0093 16.67857,-1.25 0.83904,-0.839038 1.78267,-1.525524 2.09695,-1.525524 0.31429,0 0.57143,4.05 0.57143,9 0,8.937728 -0.59172,10.401802 -3.02098,7.474727 -1.052,-1.26759 -3.818,-1.478768 -16.37244,-1.25 l -15.10658,0.275273 v 9.5 9.5 l 24.39788,0.26811 c 20.45257,0.22476 24.77255,0.0226 26.71482,-1.25 1.27431,-0.83496 2.55777,-1.51811 2.85212,-1.51811 0.29435,0 0.53518,4.275 0.53518,9.5 0,5.66667 -0.40351,9.5 -1,9.5 -0.55,0 -1,-0.40598 -1,-0.90217 z m 89,-0.0508 c 0,-2.36524 -9.00434,-3.0361 -40.82258,-3.04142 l -33.32258,-0.006 2.07258,-2.63486 c 1.99769,-2.53965 2.07258,-3.77932 2.07258,-34.308869 0,-26.301662 -0.24903,-32.003254 -1.4682,-33.615141 -0.8075,-1.067622 -1.4825,-2.27863 -1.5,-2.69113 -0.0175,-0.4125 15.18219,-0.75 33.77707,-0.75 28.17876,0 34.13212,-0.244495 35.75,-1.468197 1.06762,-0.807508 2.27863,-1.482508 2.69113,-1.5 0.93274,-0.03955 1.00333,17.381536 0.0742,18.310677 -0.3717,0.371697 -1.64723,-0.23678 -2.83451,-1.352171 -2.05988,-1.935161 -3.23042,-2.015678 -25.57418,-1.759146 L 657.26879,58.0025 v 8.5 8.5 l 15.15305,0.275524 c 12.50904,0.227448 15.41923,0.0093 16.67857,-1.25 0.83904,-0.839038 1.78267,-1.525524 2.09695,-1.525524 0.31429,0 0.57143,4.05 0.57143,9 0,8.937728 -0.59172,10.401802 -3.02098,7.474727 -1.052,-1.26759 -3.818,-1.478768 -16.37244,-1.25 L 657.26879,88.0025 v 9.5 9.5 l 24.39788,0.26811 c 20.45257,0.22476 24.77255,0.0226 26.71482,-1.25 1.27431,-0.83496 2.55777,-1.51811 2.85212,-1.51811 0.29435,0 0.53518,4.275 0.53518,9.5 0,5.66667 -0.40351,9.5 -1,9.5 -0.55,0 -1,-0.42885 -1,-0.953 z m -330.46108,-2.15938 c -7.52091,-1.09571 -15.18606,-3.31457 -22.26448,-6.44498 -3.03781,-1.34347 -6.86545,-2.44267 -8.50586,-2.44267 -1.99415,0 -2.81182,-0.41424 -2.46736,-1.25 4.53547,-11.004132 8.1457,-18.75 8.73908,-18.75 0.40858,0 1.02209,1.112465 1.36335,2.472144 0.8578,3.417748 6.7087,7.143476 15.59635,9.931416 13.52362,4.2422 25.63219,4.23747 34.59047,-0.0135 6.88272,-3.26606 9.67209,-11.970541 5.15953,-16.100791 -3.05686,-2.797881 -3.83519,-2.973026 -23.28696,-5.240145 -20.13641,-2.346915 -26.05648,-4.058858 -31.93755,-9.235581 -5.78537,-5.092487 -7.96179,-10.789371 -7.29508,-19.095212 0.63319,-7.888157 3.46733,-13.517305 9.15014,-18.173942 7.67335,-6.287732 14.04237,-8.008017 29.61945,-8.000271 13.36743,0.0067 13.62275,0.04972 26,4.385691 6.875,2.408438 13.5125,4.314546 14.75,4.235796 1.2375,-0.07875 2.25,0.311766 2.25,0.867814 0,0.804329 -7.60143,16.74071 -8.45148,17.718502 -0.12044,0.138546 -2.03899,-1.479427 -4.26344,-3.595496 -11.65212,-11.084392 -39.91945,-13.722038 -49.06335,-4.578139 -2.80132,2.801322 -3.29596,3.959088 -3.03433,7.10216 0.42164,5.065089 4.63588,7.89592 13.06524,8.7763 31.87849,3.329457 38.68696,5.184119 45.81288,12.479663 5.4765,5.606852 7.47655,11.522491 6.63909,19.636713 -1.43191,13.873858 -12.51697,22.625318 -32.11028,25.350498 -8.70497,1.21075 -11.53296,1.20568 -20.05541,-0.0359 z M 37.768786,118.70289 c 0,-0.44 0.455702,-1.2557 1.012672,-1.81267 0.656314,-0.65632 0.920238,-13.83491 0.75,-37.450002 L 39.268786,43.00289 24.385226,42.725392 c -12.101023,-0.225619 -15.3259748,0.01238 -17.25,1.273053 L 4.7687861,45.548996 V 35.370955 25.192915 l 2.1037165,1.904988 c 1.9779714,1.791121 4.3674704,1.922615 39.9763464,2.199901 36.764265,0.286282 45.919937,-0.278662 45.919937,-2.833458 0,-0.5288 0.45,-0.961456 1,-0.961456 0.6,0 1,4 1,10 0,9.886879 -0.555463,11.445487 -3.020472,8.475333 -1.053941,-1.269922 -3.873038,-1.478775 -16.872445,-1.25 l -15.607083,0.274667 -0.2628,35.905992 c -0.226223,30.908438 -0.04903,36.232238 1.273053,38.249998 l 1.535853,2.34401 H 49.791839 c -6.612679,0 -12.023053,-0.36 -12.023053,-0.8 z m 67.000004,0.22857 c 0,-0.31428 0.675,-1.24643 1.5,-2.07143 2.24753,-2.24752 2.24753,-66.491857 0,-68.35714 -2.99761,-2.487795 -1.29026,-3 10,-3 11.29026,0 12.99761,0.512205 10,3 -1.27755,1.060275 -1.5,6.109965 -1.5,34.051016 0,27.827664 0.22763,33.033754 1.5,34.306124 0.825,0.825 1.5,1.75715 1.5,2.07143 0,0.31429 -5.175,0.57143 -11.5,0.57143 -6.325,0 -11.5,-0.25714 -11.5,-0.57143 z m 41.4433,-1.65108 c 2.2935,-3.27443 2.34594,-66.87759 0.0567,-68.77749 -0.825,-0.684689 -1.5,-1.639789 -1.5,-2.122445 0,-0.482655 6.54083,-0.877555 14.53518,-0.877555 14.06064,0 14.50139,0.06315 13.5,1.934259 -0.56935,1.063842 -1.02832,2.976342 -1.01994,4.25 0.0203,3.079201 19.49079,38.315741 21.172,38.315741 1.20376,0 12.17288,-18.18017 20.05089,-33.232273 2.79372,-5.33781 3.08247,-6.519913 2.01187,-8.236432 -0.6875,-1.102286 -1.25,-2.235263 -1.25,-2.517726 0,-0.282463 6.36974,-0.513569 14.15499,-0.513569 h 14.15499 l -1.90499,2.104988 c -1.79179,1.979903 -1.90499,4.053453 -1.90499,34.895012 0,30.84156 0.1132,32.91511 1.90499,34.89501 l 1.90499,2.10499 h -11.65499 c -10.59482,0 -13.57041,-0.69817 -10.65499,-2.5 1.34216,-0.8295 1.3528,-42.163922 0.0111,-42.993161 -1.15584,-0.714325 -2.93807,2.041871 -17.0111,26.307351 -5.775,9.95757 -10.79314,18.12293 -11.15143,18.14524 -0.35828,0.0223 -5.72016,-9.07193 -11.91528,-20.20943 -12.75501,-22.930758 -14.70895,-26.006682 -16.00976,-25.202741 -0.51551,0.318606 -0.92353,9.517179 -0.92353,20.820628 0,16.256843 0.28951,20.632623 1.4682,22.190983 0.8075,1.06762 1.4825,2.27863 1.5,2.69113 0.0175,0.4125 -4.71872,0.75 -10.5249,0.75 h -10.55671 z m 301.90171,0.39377 c 1.46982,-1.62413 1.65499,-5.53215 1.65499,-34.928572 0,-28.088739 -0.22709,-33.326921 -1.5,-34.599831 -0.825,-0.825 -1.5,-1.757143 -1.5,-2.071428 0,-0.314286 5.175,-0.571429 11.5,-0.571429 6.325,0 11.5,0.240832 11.5,0.535183 0,0.294351 -0.69026,1.588652 -1.53391,2.876224 -1.20025,1.831811 -1.47215,4.815098 -1.25,13.714817 l 0.28391,11.373776 h 21.5 21.5 l 0.28391,-11.373776 c 0.22215,-8.899719 -0.0498,-11.883006 -1.25,-13.714817 -0.84365,-1.287572 -1.53391,-2.581873 -1.53391,-2.876224 0,-0.294351 5.175,-0.535183 11.5,-0.535183 6.325,0 11.5,0.257143 11.5,0.571429 0,0.314285 -0.675,1.246428 -1.5,2.071428 -1.27291,1.27291 -1.5,6.511092 -1.5,34.599831 0,29.396422 0.18517,33.304442 1.65499,34.928572 1.59433,1.76172 1.22782,1.82874 -10,1.82874 -6.41025,0 -11.65499,-0.3949 -11.65499,-0.87755 0,-0.48266 0.68696,-1.44769 1.52658,-2.1445 1.26238,-1.04769 1.47871,-3.70803 1.25,-15.37245 l -0.27658,-14.1055 h -21.5 -21.5 l -0.27993,13.37985 c -0.22336,10.67612 0.0292,13.85169 1.25,15.71482 0.84146,1.28423 1.52993,2.5758 1.52993,2.87015 0,0.29435 -5.24474,0.53518 -11.65499,0.53518 -11.22782,0 -11.59433,-0.067 -10,-1.82874 z m 296.65499,1.25731 c 0,-0.31428 0.68184,-1.25326 1.51519,-2.08662 1.29598,-1.29598 1.47683,-5.66216 1.25,-30.178572 L 747.26879,58.00289 735.89501,57.718981 c -8.89972,-0.222152 -11.883,0.04975 -13.71481,1.25 -1.28758,0.84365 -2.58188,1.533909 -2.87623,1.533909 -0.29435,0 -0.53518,-4.05 -0.53518,-9 0,-8.917377 0.5931,-10.400134 3,-7.5 1.86743,2.250112 67.13257,2.250112 69,0 2.4069,-2.900134 3,-1.417377 3,7.5 0,4.95 -0.24083,9 -0.53518,9 -0.29435,0 -1.58865,-0.690259 -2.87623,-1.533909 -1.83181,-1.200248 -4.81509,-1.472152 -13.71481,-1.25 l -11.37378,0.283909 -0.26519,28.663378 c -0.22683,24.516412 -0.046,28.882592 1.25,30.178572 0.83335,0.83336 1.51519,1.77234 1.51519,2.08662 0,0.31429 -5.175,0.57143 -11.5,0.57143 -6.325,0 -11.5,-0.25714 -11.5,-0.57143 z"
       id="path849"
       inkscape:connector-curvature="0" />
    <path
       style="fill:#4c4c4c"
       d="m 330.40324,121.70751 c -1.52923,-1.53035 -5.33282,-1.73507 -37.20389,-2.00243 l -35.5005,-0.29781 2.03497,-2.58705 c 1.94952,-2.47841 2.03497,-3.91948 2.03497,-34.31733 0,-30.586477 -0.0747,-31.825263 -2.07258,-34.365141 l -2.07258,-2.634859 h 34.41759 c 33.01072,0 34.49071,-0.08079 36.20623,-1.976419 0.98375,-1.08703 2.17849,-1.735472 2.65499,-1.440983 0.97444,0.602241 1.20669,17.743733 0.25332,18.697103 -0.33717,0.337169 -1.80949,-0.271543 -3.27183,-1.352692 -2.48917,-1.840323 -4.12467,-1.948543 -25.63696,-1.696368 l -22.97818,0.269359 v 8.5 8.5 l 15.10658,0.275273 c 12.55444,0.228768 15.32044,0.01759 16.37244,-1.25 2.42926,-2.927075 3.02098,-1.463001 3.02098,7.474727 0,4.95 -0.24083,9 -0.53518,9 -0.29435,0 -1.58478,-0.687719 -2.86761,-1.528264 -1.87546,-1.228846 -5.15023,-1.473747 -16.71482,-1.25 l -14.38239,0.278264 v 9.5 9.5 l 24.74484,0.26746 c 23.54383,0.25448 24.82655,0.17202 26.42838,-1.69877 0.92594,-1.08143 2.05327,-1.73773 2.50516,-1.45845 1.07811,0.66631 1.06931,18.11864 -0.009,18.78537 -0.4571,0.2825 -1.59761,-0.25344 -2.53446,-1.19099 z m 290.36555,0.89321 c 0,-2.51229 -7.62186,-3.09783 -40.32354,-3.09783 h -34.02509 l 2.17432,-2.31445 c 2.14052,-2.27848 2.17431,-2.82056 2.17431,-34.877557 0,-27.72503 -0.22286,-32.748063 -1.5,-33.807993 -0.825,-0.684689 -1.5,-1.639789 -1.5,-2.122445 0,-0.486103 15.08118,-0.877555 33.80887,-0.877555 28.17876,0 34.13212,-0.244495 35.75,-1.468197 1.06762,-0.807508 2.27863,-1.482508 2.69113,-1.5 0.4125,-0.01749 0.75,4.243197 0.75,9.468197 0,5.225 -0.24382,9.5 -0.54181,9.5 -0.298,0 -1.51636,-0.907924 -2.70747,-2.017609 -2.06299,-1.92197 -3.28162,-2.004924 -25.70818,-1.75 l -23.54254,0.267609 v 8.5 8.5 l 15.15305,0.275524 c 12.50904,0.227448 15.41923,0.0093 16.67857,-1.25 0.83904,-0.839038 1.78267,-1.525524 2.09695,-1.525524 0.31429,0 0.57143,4.05 0.57143,9 0,8.937728 -0.59172,10.401802 -3.02098,7.474727 -1.052,-1.26759 -3.818,-1.478768 -16.37244,-1.25 l -15.10658,0.275273 v 9.5 9.5 l 24.39788,0.26811 c 20.45257,0.22476 24.77255,0.0226 26.71482,-1.25 1.27431,-0.83496 2.55777,-1.51811 2.85212,-1.51811 0.29435,0 0.53518,4.275 0.53518,9.5 0,5.66667 -0.40351,9.5 -1,9.5 -0.55,0 -1,-0.40598 -1,-0.90217 z m 89,-0.0508 c 0,-2.36524 -9.00434,-3.0361 -40.82258,-3.04142 l -33.32258,-0.006 2.07258,-2.63486 c 1.99769,-2.53965 2.07258,-3.77932 2.07258,-34.308869 0,-26.301662 -0.24903,-32.003254 -1.4682,-33.615141 -0.8075,-1.067622 -1.4825,-2.27863 -1.5,-2.69113 -0.0175,-0.4125 15.18219,-0.75 33.77707,-0.75 28.17876,0 34.13212,-0.244495 35.75,-1.468197 1.06762,-0.807508 2.27863,-1.482508 2.69113,-1.5 0.93274,-0.03955 1.00333,17.381536 0.0742,18.310677 -0.3717,0.371697 -1.64723,-0.23678 -2.83451,-1.352171 -2.05988,-1.935161 -3.23042,-2.015678 -25.57418,-1.759146 L 657.26879,58.0025 v 8.5 8.5 l 15.15305,0.275524 c 12.50904,0.227448 15.41923,0.0093 16.67857,-1.25 0.83904,-0.839038 1.78267,-1.525524 2.09695,-1.525524 0.31429,0 0.57143,4.05 0.57143,9 0,8.937728 -0.59172,10.401802 -3.02098,7.474727 -1.052,-1.26759 -3.818,-1.478768 -16.37244,-1.25 L 657.26879,88.0025 v 9.5 9.5 l 24.39788,0.26811 c 20.45257,0.22476 24.77255,0.0226 26.71482,-1.25 1.27431,-0.83496 2.55777,-1.51811 2.85212,-1.51811 0.29435,0 0.53518,4.275 0.53518,9.5 0,5.66667 -0.40351,9.5 -1,9.5 -0.55,0 -1,-0.42885 -1,-0.953 z m -605,-3.61846 c 0,-0.31428 0.675,-1.24643 1.5,-2.07143 2.24753,-2.24752 2.24753,-66.491857 0,-68.35714 -2.99761,-2.487795 -1.29026,-3 10,-3 11.29026,0 12.99761,0.512205 10,3 -1.27755,1.060275 -1.5,6.109965 -1.5,34.051016 0,27.827664 0.22763,33.033754 1.5,34.306124 0.825,0.825 1.5,1.75715 1.5,2.07143 0,0.31429 -5.175,0.57143 -11.5,0.57143 -6.325,0 -11.5,-0.25714 -11.5,-0.57143 z m 41.4433,-1.65108 c 2.2935,-3.27443 2.34594,-66.87759 0.0567,-68.77749 -0.825,-0.684689 -1.5,-1.639789 -1.5,-2.122445 0,-0.482655 6.54083,-0.877555 14.53518,-0.877555 14.06064,0 14.50139,0.06315 13.5,1.934259 -0.56935,1.063842 -1.02832,2.976342 -1.01994,4.25 0.0203,3.079201 19.49079,38.315741 21.172,38.315741 1.20376,0 12.17288,-18.18017 20.05089,-33.232273 2.79372,-5.33781 3.08247,-6.519913 2.01187,-8.236432 -0.6875,-1.102286 -1.25,-2.235263 -1.25,-2.517726 0,-0.282463 6.36974,-0.513569 14.15499,-0.513569 h 14.15499 l -1.90499,2.104988 c -1.79179,1.979903 -1.90499,4.053453 -1.90499,34.895012 0,30.84156 0.1132,32.91511 1.90499,34.89501 l 1.90499,2.10499 h -11.65499 c -10.59482,0 -13.57041,-0.69817 -10.65499,-2.5 1.34216,-0.8295 1.3528,-42.163922 0.0111,-42.993161 -1.15584,-0.714325 -2.93807,2.041871 -17.0111,26.307351 -5.775,9.95757 -10.79314,18.12293 -11.15143,18.14524 -0.35828,0.0223 -5.72016,-9.07193 -11.91528,-20.20943 -12.75501,-22.930758 -14.70895,-26.006682 -16.00976,-25.202741 -0.51551,0.318606 -0.92353,9.517179 -0.92353,20.820628 0,16.256843 0.28951,20.632623 1.4682,22.190983 0.8075,1.06762 1.4825,2.27863 1.5,2.69113 0.0175,0.4125 -4.71872,0.75 -10.5249,0.75 h -10.55671 z m 301.90171,0.39377 c 1.46982,-1.62413 1.65499,-5.53215 1.65499,-34.928572 0,-28.088739 -0.22709,-33.326921 -1.5,-34.599831 -0.825,-0.825 -1.5,-1.757143 -1.5,-2.071428 0,-0.314286 5.175,-0.571429 11.5,-0.571429 6.325,0 11.5,0.240832 11.5,0.535183 0,0.294351 -0.69026,1.588652 -1.53391,2.876224 -1.20025,1.831811 -1.47215,4.815098 -1.25,13.714817 l 0.28391,11.373776 h 21.5 21.5 l 0.28391,-11.373776 c 0.22215,-8.899719 -0.0498,-11.883006 -1.25,-13.714817 -0.84365,-1.287572 -1.53391,-2.581873 -1.53391,-2.876224 0,-0.294351 5.175,-0.535183 11.5,-0.535183 6.325,0 11.5,0.257143 11.5,0.571429 0,0.314285 -0.675,1.246428 -1.5,2.071428 -1.27291,1.27291 -1.5,6.511092 -1.5,34.599831 0,29.396422 0.18517,33.304442 1.65499,34.928572 1.59433,1.76172 1.22782,1.82874 -10,1.82874 -6.41025,0 -11.65499,-0.3949 -11.65499,-0.87755 0,-0.48266 0.68696,-1.44769 1.52658,-2.1445 1.26238,-1.04769 1.47871,-3.70803 1.25,-15.37245 l -0.27658,-14.1055 h -21.5 -21.5 l -0.27993,13.37985 c -0.22336,10.67612 0.0292,13.85169 1.25,15.71482 0.84146,1.28423 1.52993,2.5758 1.52993,2.87015 0,0.29435 -5.24474,0.53518 -11.65499,0.53518 -11.22782,0 -11.59433,-0.067 -10,-1.82874 z m 296.65499,1.25731 c 0,-0.31428 0.68184,-1.25326 1.51519,-2.08662 1.29598,-1.29598 1.47683,-5.66216 1.25,-30.178572 L 747.26879,58.00289 735.89501,57.718981 c -8.89972,-0.222152 -11.883,0.04975 -13.71481,1.25 -1.28758,0.84365 -2.58188,1.533909 -2.87623,1.533909 -0.29435,0 -0.53518,-4.05 -0.53518,-9 0,-8.917377 0.5931,-10.400134 3,-7.5 1.86743,2.250112 67.13257,2.250112 69,0 2.4069,-2.900134 3,-1.417377 3,7.5 0,4.95 -0.24083,9 -0.53518,9 -0.29435,0 -1.58865,-0.690259 -2.87623,-1.533909 -1.83181,-1.200248 -4.81509,-1.472152 -13.71481,-1.25 l -11.37378,0.283909 -0.26519,28.663378 c -0.22683,24.516412 -0.046,28.882592 1.25,30.178572 0.83335,0.83336 1.51519,1.77234 1.51519,2.08662 0,0.31429 -5.175,0.57143 -11.5,0.57143 -6.325,0 -11.5,-0.25714 -11.5,-0.57143 z"
       id="path847"
       inkscape:connector-curvature="0" />
    <path
       style="fill:#373737"
       d="m 330.76879,120.486 c -0.87393,-0.55494 -15.84388,-0.95888 -35.86663,-0.9678 l -34.36663,-0.0153 0.84605,-2.25 c 1.08283,-2.87971 1.15432,-65.515837 0.0781,-68.473779 l -0.80906,-2.223779 33.30906,-0.276221 c 18.32003,-0.151922 34.09661,-0.661866 35.05911,-1.13321 1.58414,-0.775766 1.75,-0.173271 1.75,6.356989 0,6.526284 -0.16682,7.133278 -1.75,6.367426 -2.90028,-1.402994 -48.17716,-1.672771 -49.83494,-0.296936 -2.14363,1.779061 -2.00067,17.490814 0.16673,18.322521 2.69133,1.032761 29.43372,0.669053 31.48395,-0.428195 1.82842,-0.978542 1.93426,-0.64439 1.93426,6.106989 0,6.457827 -0.16768,7.061076 -1.75,6.295808 -2.89529,-1.400268 -30.19829,-1.655414 -31.83449,-0.297493 -1.82878,1.517751 -2.00813,17.93726 -0.21551,19.72988 1.59402,1.59402 47.9928,1.70237 50.95139,0.11898 1.11095,-0.59456 2.22717,-0.87375 2.4805,-0.62043 0.25332,0.25333 0.32728,3.6503 0.16435,7.54882 -0.25146,6.01678 -0.52298,6.94425 -1.79624,6.13574 z m 289.5,0.0169 c -0.393,-0.63589 -13.37938,-1 -35.66601,-1 -33.03882,0 -34.99884,-0.10032 -34.19098,-1.75 1.29595,-2.64636 1.63194,-66.86773 0.36225,-69.240163 -1.02901,-1.922722 -0.45528,-1.962492 32.22354,-2.233706 18.29916,-0.151872 34.0587,-0.661776 35.0212,-1.13312 1.58779,-0.777553 1.75,-0.15738 1.75,6.690697 v 7.547686 l -2.75,-1.434536 c -3.65419,-1.906208 -47.17164,-2.125221 -49.05,-0.246858 -0.72281,0.722807 -1.2,4.222222 -1.2,8.8 0,4.577778 0.47719,8.077193 1.2,8.8 1.52278,1.522783 29.06221,1.665223 31.86574,0.164816 1.82685,-0.977698 1.93426,-0.645883 1.93426,5.975249 v 7.010433 l -2.5651,-0.975249 c -3.80589,-1.446996 -29.74983,-1.260316 -31.2349,0.224751 -1.62069,1.620693 -1.62069,17.97931 0,19.6 0.86688,0.86688 7.88389,1.2 25.27749,1.2 20.17355,0 24.43786,-0.25241 26.3,-1.5567 l 2.22251,-1.55671 v 8.05671 c 0,7.88857 -0.2523,9.07552 -1.5,7.0567 z m 89.19098,0.25 c -0.62183,-0.96079 -8.90883,-1.25 -35.81738,-1.25 h -35.00838 l 0.81739,-2.25 c 1.08474,-2.98591 1.05745,-66.761395 -0.0295,-68.973689 -0.79169,-1.611328 1.32685,-1.7417 32.5,-2 18.34079,-0.151971 34.13439,-0.661956 35.09689,-1.1333 1.58779,-0.777553 1.75,-0.15738 1.75,6.690697 v 7.547686 l -2.75,-1.434536 c -3.65419,-1.906208 -47.17164,-2.125221 -49.05,-0.246858 -0.72281,0.722807 -1.2,4.222222 -1.2,8.8 0,4.577778 0.47719,8.077193 1.2,8.8 1.52278,1.522783 29.06221,1.665223 31.86574,0.164816 1.82842,-0.978542 1.93426,-0.64439 1.93426,6.106989 0,6.457827 -0.16768,7.061076 -1.75,6.295808 -2.89529,-1.400268 -30.19829,-1.655414 -31.83449,-0.297493 -1.82878,1.517751 -2.00813,17.93726 -0.21551,19.72988 1.59402,1.59402 47.9928,1.70237 50.95139,0.11898 1.11095,-0.59456 2.22717,-0.87375 2.4805,-0.62043 0.25332,0.25333 0.32728,3.77729 0.16435,7.83102 -0.16966,4.2211 -0.64193,6.83631 -1.10526,6.12043 z m 37.95203,-3 c 1.42869,-2.91743 1.63014,-58.215949 0.21828,-59.917137 -0.95027,-1.145004 -3.60477,-1.377489 -12.78034,-1.119318 -6.36952,0.179217 -12.36845,0.702631 -13.33095,1.163141 -1.58075,0.756314 -1.75,0.152344 -1.75,-6.244946 v -7.082238 l 2.5651,0.975249 c 3.3854,1.287129 64.4844,1.287129 67.8698,0 l 2.5651,-0.975249 v 7.082238 c 0,6.39729 -0.16925,7.00126 -1.75,6.244946 -0.9625,-0.46051 -6.96143,-0.983924 -13.33095,-1.163141 -9.17557,-0.258171 -11.83007,-0.02569 -12.78034,1.119318 -1.41186,1.701188 -1.21041,56.999707 0.21828,59.917137 0.78617,1.60538 0.0542,1.75 -8.85699,1.75 -8.91121,0 -9.64316,-0.14462 -8.85699,-1.75 z m -639.67819,-1.18426 c 0.65196,-1.21821 1.03518,-13.82904 1.03518,-34.06574 0,-20.236699 -0.38322,-32.847528 -1.03518,-34.065741 -0.98994,-1.849716 -0.61688,-1.934259 8.53518,-1.934259 9.15206,0 9.52512,0.08454 8.53518,1.934259 -0.65196,1.218213 -1.03518,13.829042 -1.03518,34.065741 0,20.2367 0.38322,32.84753 1.03518,34.06574 0.98994,1.84972 0.61688,1.93426 -8.53518,1.93426 -9.15206,0 -9.52512,-0.0845 -8.53518,-1.93426 z m 40,0 c 1.40796,-2.6308 1.40796,-65.500683 0,-68.131481 -0.99745,-1.863751 -0.58557,-1.934259 11.2992,-1.934259 h 12.33438 l -0.40671,3.483768 c -0.34061,2.917594 1.17327,6.371097 9.3152,21.25 10.60377,19.377782 11.451,20.612666 13.56557,19.772581 0.78515,-0.311927 6.15254,-8.990962 11.92754,-19.286744 7.61763,-13.580864 10.4794,-19.611766 10.42497,-21.969605 l -0.075,-3.25 h 11.07502 11.07503 v 36 36 l -8.5,9.9e-4 -8.5,9.8e-4 0.30226,-23.000984 c 0.39911,-30.370907 0.75436,-30.34897 -16.42564,-1.014316 -7.08214,12.09267 -13.256,21.86621 -13.71968,21.71898 -0.46368,-0.14723 -6.38704,-10.15373 -13.16303,-22.236669 -16.20219,-28.891736 -15.99393,-28.879118 -15.99393,-0.968981 0,11.55 0.36782,22.0125 0.81739,23.25 0.80733,2.22231 0.71152,2.25 -7.78519,2.25 -8.19523,0 -8.55355,-0.0916 -7.56738,-1.93426 z M 450.55662,84.508419 c 0.19328,-22.828318 -0.0647,-34.654256 -0.78519,-36.000588 -1.0394,-1.942154 -0.77105,-2.004941 8.56917,-2.004941 8.83449,0 9.57221,0.146589 8.80705,1.75 -1.40291,2.939785 -1.66487,24.200447 -0.31819,25.823104 1.74339,2.10066 42.13527,2.10066 43.87866,0 1.34668,-1.622657 1.08472,-22.883319 -0.31819,-25.823104 -0.76516,-1.603411 -0.0274,-1.75 8.80705,-1.75 9.34022,0 9.60857,0.06279 8.56917,2.004941 -0.72054,1.346332 -0.97847,13.17227 -0.78519,36.000588 l 0.28783,33.995651 -8.72525,-5.9e-4 -8.72525,-5.9e-4 0.97525,-2.5651 c 1.4421,-3.79301 1.25791,-27.752241 -0.22475,-29.2349 -1.69747,-1.697469 -41.90253,-1.697469 -43.6,0 -1.48266,1.482659 -1.66685,25.44189 -0.22475,29.2349 l 0.97525,2.5651 -8.72525,5.9e-4 -8.72525,5.9e-4 z"
       id="path845"
       inkscape:connector-curvature="0" />
  </g>
</svg>
