<?xml version="1.0" encoding="UTF-8" standalone="no"?>
<!-- Created with Inkscape (http://www.inkscape.org/) -->

<svg
   xmlns:dc="http://purl.org/dc/elements/1.1/"
   xmlns:cc="http://creativecommons.org/ns#"
   xmlns:rdf="http://www.w3.org/1999/02/22-rdf-syntax-ns#"
   xmlns:svg="http://www.w3.org/2000/svg"
   xmlns="http://www.w3.org/2000/svg"
   xmlns:sodipodi="http://sodipodi.sourceforge.net/DTD/sodipodi-0.dtd"
   xmlns:inkscape="http://www.inkscape.org/namespaces/inkscape"
   version="1.1"
   id="svg815"
   width="793.84747"
   height="644.86237"
   viewBox="0 0 793.84747 644.86237"
   sodipodi:docname="timesheet_login_logo.svg"
   inkscape:version="0.92.4 (5da689c313, 2019-01-14)">
  <metadata
     id="metadata821">
    <rdf:RDF>
      <cc:Work
         rdf:about="">
        <dc:format>image/svg+xml</dc:format>
        <dc:type
           rdf:resource="http://purl.org/dc/dcmitype/StillImage" />
        <dc:title />
      </cc:Work>
    </rdf:RDF>
  </metadata>
  <defs
     id="defs819" />
  <sodipodi:namedview
     pagecolor="#ffffff"
     bordercolor="#666666"
     borderopacity="1"
     objecttolerance="10"
     gridtolerance="10"
     guidetolerance="10"
     inkscape:pageopacity="0"
     inkscape:pageshadow="2"
     inkscape:window-width="1920"
     inkscape:window-height="1017"
     id="namedview817"
     showgrid="false"
     inkscape:zoom="1.08125"
     inkscape:cx="127.05546"
     inkscape:cy="316.81363"
     inkscape:window-x="-8"
     inkscape:window-y="-8"
     inkscape:window-maximized="1"
     inkscape:current-layer="g843" />
  <g
     id="g843"
     transform="translate(-2.1525481,-2)">
    <path
       style="fill:#800000"
       d="m 330.63445,100.20462 c -1.52923,-1.530346 -5.33282,-1.735067 -37.20389,-2.002432 l -35.5005,-0.297812 2.03497,-2.587047 C 261.91455,92.838919 262,91.39785 262,61 262,30.413523 261.92529,29.174737 259.92742,26.634859 L 257.85484,24 h 34.41759 c 33.01072,0 34.49071,-0.08079 36.20623,-1.976419 0.98375,-1.08703 2.17849,-1.735472 2.65499,-1.440983 0.97444,0.602241 1.20669,17.743733 0.25332,18.697103 -0.33717,0.337169 -1.80949,-0.271543 -3.27183,-1.352692 -2.48917,-1.840323 -4.12467,-1.948543 -25.63696,-1.696368 L 279.5,36.5 v 8.5 8.5 l 15.10658,0.275273 c 12.55444,0.228768 15.32044,0.01759 16.37244,-1.25 C 313.40828,49.598198 314,51.062272 314,60 c 0,4.95 -0.24083,9 -0.53518,9 -0.29435,0 -1.58478,-0.687719 -2.86761,-1.528264 -1.87546,-1.228846 -5.15023,-1.473747 -16.71482,-1.25 L 279.5,66.5 v 9.5 9.5 l 24.74484,0.267458 c 23.54383,0.254477 24.82655,0.172026 26.42838,-1.698773 0.92594,-1.081427 2.05327,-1.737725 2.50516,-1.458441 1.07811,0.66631 1.06931,18.118636 -0.009,18.785366 -0.4571,0.2825 -1.59761,-0.25344 -2.53446,-1.19099 z M 621,101.09783 C 621,98.585543 613.37814,98 580.67646,98 h -34.02509 l 2.17432,-2.314451 C 550.96621,93.40707 551,92.864988 551,60.807993 551,33.082963 550.77714,28.05993 549.5,27 548.675,26.315311 548,25.360211 548,24.877555 548,24.391452 563.08118,24 581.80887,24 c 28.17876,0 34.13212,-0.244495 35.75,-1.468197 1.06762,-0.807508 2.27863,-1.482508 2.69113,-1.5 C 620.6625,21.014312 621,25.275 621,30.5 c 0,5.225 -0.24382,9.5 -0.54181,9.5 -0.298,0 -1.51636,-0.907924 -2.70747,-2.017609 -2.06299,-1.92197 -3.28162,-2.004924 -25.70818,-1.75 L 568.5,36.5 v 8.5 8.5 l 15.15305,0.275524 c 12.50904,0.227448 15.41923,0.0093 16.67857,-1.25 C 601.17066,51.686486 602.11429,51 602.42857,51 602.74286,51 603,55.05 603,60 c 0,8.937728 -0.59172,10.401802 -3.02098,7.474727 -1.052,-1.26759 -3.818,-1.478768 -16.37244,-1.25 L 568.5,66.5 v 9.5 9.5 l 24.39788,0.268114 c 20.45257,0.224758 24.77255,0.02262 26.71482,-1.25 C 620.88701,83.683151 622.17047,83 622.46482,83 622.75917,83 623,87.275 623,92.5 c 0,5.666667 -0.40351,9.5 -1,9.5 -0.55,0 -1,-0.40598 -1,-0.90217 z m 89,-0.0508 c 0,-2.365243 -9.00434,-3.036098 -40.82258,-3.041423 L 635.85484,98 637.92742,95.365141 C 639.92511,92.825487 640,91.58582 640,61.056271 640,34.754609 639.75097,29.053017 638.5318,27.44113 637.7243,26.373508 637.0493,25.1625 637.0318,24.75 637.0143,24.3375 652.21399,24 670.80887,24 c 28.17876,0 34.13212,-0.244495 35.75,-1.468197 1.06762,-0.807508 2.27863,-1.482508 2.69113,-1.5 0.93274,-0.03955 1.00333,17.381536 0.0742,18.310677 -0.3717,0.371697 -1.64723,-0.23678 -2.83451,-1.352171 -2.05988,-1.935161 -3.23042,-2.015678 -25.57418,-1.759146 L 657.5,36.5 v 8.5 8.5 l 15.15305,0.275524 c 12.50904,0.227448 15.41923,0.0093 16.67857,-1.25 C 690.17066,51.686486 691.11429,51 691.42857,51 691.74286,51 692,55.05 692,60 c 0,8.937728 -0.59172,10.401802 -3.02098,7.474727 -1.052,-1.26759 -3.818,-1.478768 -16.37244,-1.25 L 657.5,66.5 v 9.5 9.5 l 24.39788,0.268114 c 20.45257,0.224758 24.77255,0.02262 26.71482,-1.25 C 709.88701,83.683151 711.17047,83 711.46482,83 711.75917,83 712,87.275 712,92.5 c 0,5.666667 -0.40351,9.5 -1,9.5 -0.55,0 -1,-0.42885 -1,-0.953 z M 379.53892,98.887653 C 372.01801,97.791942 364.35286,95.573081 357.27444,92.442666 354.23663,91.0992 350.40899,90 348.76858,90 c -1.99415,0 -2.81182,-0.414244 -2.46736,-1.25 4.53547,-11.004132 8.1457,-18.75 8.73908,-18.75 0.40858,0 1.02209,1.112465 1.36335,2.472144 0.8578,3.417748 6.7087,7.143471 15.59635,9.93142 13.52362,4.242195 25.63219,4.237463 34.59047,-0.01352 6.88272,-3.266063 9.67209,-11.970545 5.15953,-16.100795 -3.05686,-2.797881 -3.83519,-2.973026 -23.28696,-5.240145 -20.13641,-2.346915 -26.05648,-4.058858 -31.93755,-9.235581 -5.78537,-5.092487 -7.96179,-10.789371 -7.29508,-19.095212 0.63319,-7.888157 3.46733,-13.517305 9.15014,-18.173942 C 366.0539,8.2566368 372.42292,6.5363513 388,6.5440973 c 13.36743,0.00665 13.62275,0.049715 26,4.3856917 6.875,2.408438 13.5125,4.314546 14.75,4.235796 1.2375,-0.07875 2.25,0.311766 2.25,0.867814 0,0.804329 -7.60143,16.74071 -8.45148,17.718502 -0.12044,0.138546 -2.03899,-1.479427 -4.26344,-3.595496 -11.65212,-11.084392 -39.91945,-13.722038 -49.06335,-4.578139 -2.80132,2.801322 -3.29596,3.959088 -3.03433,7.10216 0.42164,5.065089 4.63588,7.89592 13.06524,8.7763 31.87849,3.329457 38.68696,5.184119 45.81288,12.479663 5.4765,5.606852 7.47655,11.522491 6.63909,19.636713 -1.43191,13.873853 -12.51697,22.625317 -32.11028,25.350495 -8.70497,1.210753 -11.53296,1.205683 -20.05541,-0.03594 z M 38,97.2 c 0,-0.44 0.455702,-1.255702 1.012672,-1.812672 0.656314,-0.656314 0.920238,-13.834904 0.75,-37.45 L 39.5,21.5 24.61644,21.222502 C 12.515417,20.996883 9.2904651,21.234885 7.3664399,22.495555 L 5,24.046106 V 13.868065 3.6900249 L 7.1037165,5.5950124 C 9.0816879,7.3861335 11.471187,7.5176278 47.080063,7.7949134 83.844328,8.081196 93,7.5162517 93,4.9614559 93,4.4326552 93.45,4 94,4 c 0.6,0 1,4 1,10 0,9.886879 -0.555463,11.445487 -3.020472,8.475333 -1.053941,-1.269922 -3.873038,-1.478775 -16.872445,-1.25 L 59.5,21.5 59.2372,57.405992 c -0.226223,30.908433 -0.04903,36.232241 1.273053,38.25 L 62.046106,98 H 50.023053 C 43.410374,98 38,97.64 38,97.2 Z m 67,0.228571 c 0,-0.314285 0.675,-1.246428 1.5,-2.071428 2.24753,-2.247528 2.24753,-66.49186 0,-68.357143 -2.99761,-2.487795 -1.29026,-3 10,-3 11.29026,0 12.99761,0.512205 10,3 -1.27755,1.060275 -1.5,6.109965 -1.5,34.051016 0,27.827668 0.22763,33.033758 1.5,34.306127 0.825,0.825 1.5,1.757143 1.5,2.071428 C 128,97.742857 122.825,98 116.5,98 110.175,98 105,97.742857 105,97.428571 Z m 41.4433,-1.651077 C 148.7368,92.503056 148.78924,28.8999 146.5,27 145.675,26.315311 145,25.360211 145,24.877555 145,24.3949 151.54083,24 159.53518,24 c 14.06064,0 14.50139,0.06315 13.5,1.934259 -0.56935,1.063842 -1.02832,2.976342 -1.01994,4.25 0.0203,3.079201 19.49079,38.315741 21.172,38.315741 1.20376,0 12.17288,-18.18017 20.05089,-33.232273 2.79372,-5.33781 3.08247,-6.519913 2.01187,-8.236432 C 214.5625,25.929009 214,24.796032 214,24.513569 214,24.231106 220.36974,24 228.15499,24 h 14.15499 l -1.90499,2.104988 C 238.6132,28.084891 238.5,30.158441 238.5,61 c 0,30.841559 0.1132,32.915109 1.90499,34.895012 L 242.30998,98 H 230.65499 C 220.06017,98 217.08458,97.301831 220,95.5 221.34216,94.670497 221.3528,53.336078 220.0111,52.506839 218.85526,51.792514 217.07303,54.54871 203,78.814192 197.225,88.771759 192.20686,96.937116 191.84857,96.95943 191.49029,96.981743 186.12841,87.8875 179.93329,76.75 167.17828,53.819242 165.22434,50.743318 163.92353,51.547259 163.40802,51.865865 163,61.064438 163,72.367887 c 0,16.256839 0.28951,20.63262 1.4682,22.190983 0.8075,1.067622 1.4825,2.27863 1.5,2.69113 0.0175,0.4125 -4.71872,0.75 -10.5249,0.75 h -10.55671 z m 301.90171,0.393765 C 449.81483,94.547129 450,90.639105 450,61.242688 450,33.153949 449.77291,27.915767 448.5,26.642857 447.675,25.817857 447,24.885714 447,24.571429 447,24.257143 452.175,24 458.5,24 c 6.325,0 11.5,0.240832 11.5,0.535183 0,0.294351 -0.69026,1.588652 -1.53391,2.876224 -1.20025,1.831811 -1.47215,4.815098 -1.25,13.714817 L 467.5,52.5 h 21.5 21.5 l 0.28391,-11.373776 c 0.22215,-8.899719 -0.0498,-11.883006 -1.25,-13.714817 C 508.69026,26.123835 508,24.829534 508,24.535183 508,24.240832 513.175,24 519.5,24 c 6.325,0 11.5,0.257143 11.5,0.571429 0,0.314285 -0.675,1.246428 -1.5,2.071428 -1.27291,1.27291 -1.5,6.511092 -1.5,34.599831 0,29.396417 0.18517,33.304441 1.65499,34.928571 C 531.24932,97.932975 530.88281,98 519.65499,98 513.24474,98 508,97.6051 508,97.122445 c 0,-0.482656 0.68696,-1.447681 1.52658,-2.1445 1.26238,-1.04769 1.47871,-3.708021 1.25,-15.372445 L 510.5,65.5 H 489 467.5 l -0.27993,13.379849 c -0.22336,10.676122 0.0292,13.851687 1.25,15.714817 C 469.31153,95.878898 470,97.170466 470,97.464817 470,97.759168 464.75526,98 458.34501,98 c -11.22782,0 -11.59433,-0.06703 -10,-1.828741 z M 745,97.428571 c 0,-0.314285 0.68184,-1.253265 1.51519,-2.086621 1.29598,-1.295978 1.47683,-5.662161 1.25,-30.178572 L 747.5,36.5 736.12622,36.216091 c -8.89972,-0.222152 -11.883,0.04975 -13.71481,1.25 C 721.12383,38.309741 719.82953,39 719.53518,39 719.24083,39 719,34.95 719,30 c 0,-8.917377 0.5931,-10.400134 3,-7.5 1.86743,2.250112 67.13257,2.250112 69,0 2.4069,-2.900134 3,-1.417377 3,7.5 0,4.95 -0.24083,9 -0.53518,9 -0.29435,0 -1.58865,-0.690259 -2.87623,-1.533909 -1.83181,-1.200248 -4.81509,-1.472152 -13.71481,-1.25 L 765.5,36.5 765.23481,65.163378 c -0.22683,24.516411 -0.046,28.882594 1.25,30.178572 C 767.31816,96.175306 768,97.114286 768,97.428571 768,97.742857 762.825,98 756.5,98 750.175,98 745,97.742857 745,97.428571 Z"
       id="path849"
       inkscape:connector-curvature="0" />
    <path
       style="fill:#4c4c4c"
       d="m 330.63445,100.20462 c -1.52923,-1.530346 -5.33282,-1.735067 -37.20389,-2.002432 l -35.5005,-0.297812 2.03497,-2.587047 C 261.91455,92.838919 262,91.39785 262,61 262,30.413523 261.92529,29.174737 259.92742,26.634859 L 257.85484,24 h 34.41759 c 33.01072,0 34.49071,-0.08079 36.20623,-1.976419 0.98375,-1.08703 2.17849,-1.735472 2.65499,-1.440983 0.97444,0.602241 1.20669,17.743733 0.25332,18.697103 -0.33717,0.337169 -1.80949,-0.271543 -3.27183,-1.352692 -2.48917,-1.840323 -4.12467,-1.948543 -25.63696,-1.696368 L 279.5,36.5 v 8.5 8.5 l 15.10658,0.275273 c 12.55444,0.228768 15.32044,0.01759 16.37244,-1.25 C 313.40828,49.598198 314,51.062272 314,60 c 0,4.95 -0.24083,9 -0.53518,9 -0.29435,0 -1.58478,-0.687719 -2.86761,-1.528264 -1.87546,-1.228846 -5.15023,-1.473747 -16.71482,-1.25 L 279.5,66.5 v 9.5 9.5 l 24.74484,0.267458 c 23.54383,0.254477 24.82655,0.172026 26.42838,-1.698773 0.92594,-1.081427 2.05327,-1.737725 2.50516,-1.458441 1.07811,0.66631 1.06931,18.118636 -0.009,18.785366 -0.4571,0.2825 -1.59761,-0.25344 -2.53446,-1.19099 z M 621,101.09783 C 621,98.585543 613.37814,98 580.67646,98 h -34.02509 l 2.17432,-2.314451 C 550.96621,93.40707 551,92.864988 551,60.807993 551,33.082963 550.77714,28.05993 549.5,27 548.675,26.315311 548,25.360211 548,24.877555 548,24.391452 563.08118,24 581.80887,24 c 28.17876,0 34.13212,-0.244495 35.75,-1.468197 1.06762,-0.807508 2.27863,-1.482508 2.69113,-1.5 C 620.6625,21.014312 621,25.275 621,30.5 c 0,5.225 -0.24382,9.5 -0.54181,9.5 -0.298,0 -1.51636,-0.907924 -2.70747,-2.017609 -2.06299,-1.92197 -3.28162,-2.004924 -25.70818,-1.75 L 568.5,36.5 v 8.5 8.5 l 15.15305,0.275524 c 12.50904,0.227448 15.41923,0.0093 16.67857,-1.25 C 601.17066,51.686486 602.11429,51 602.42857,51 602.74286,51 603,55.05 603,60 c 0,8.937728 -0.59172,10.401802 -3.02098,7.474727 -1.052,-1.26759 -3.818,-1.478768 -16.37244,-1.25 L 568.5,66.5 v 9.5 9.5 l 24.39788,0.268114 c 20.45257,0.224758 24.77255,0.02262 26.71482,-1.25 C 620.88701,83.683151 622.17047,83 622.46482,83 622.75917,83 623,87.275 623,92.5 c 0,5.666667 -0.40351,9.5 -1,9.5 -0.55,0 -1,-0.40598 -1,-0.90217 z m 89,-0.0508 c 0,-2.365243 -9.00434,-3.036098 -40.82258,-3.041423 L 635.85484,98 637.92742,95.365141 C 639.92511,92.825487 640,91.58582 640,61.056271 640,34.754609 639.75097,29.053017 638.5318,27.44113 637.7243,26.373508 637.0493,25.1625 637.0318,24.75 637.0143,24.3375 652.21399,24 670.80887,24 c 28.17876,0 34.13212,-0.244495 35.75,-1.468197 1.06762,-0.807508 2.27863,-1.482508 2.69113,-1.5 0.93274,-0.03955 1.00333,17.381536 0.0742,18.310677 -0.3717,0.371697 -1.64723,-0.23678 -2.83451,-1.352171 -2.05988,-1.935161 -3.23042,-2.015678 -25.57418,-1.759146 L 657.5,36.5 v 8.5 8.5 l 15.15305,0.275524 c 12.50904,0.227448 15.41923,0.0093 16.67857,-1.25 C 690.17066,51.686486 691.11429,51 691.42857,51 691.74286,51 692,55.05 692,60 c 0,8.937728 -0.59172,10.401802 -3.02098,7.474727 -1.052,-1.26759 -3.818,-1.478768 -16.37244,-1.25 L 657.5,66.5 v 9.5 9.5 l 24.39788,0.268114 c 20.45257,0.224758 24.77255,0.02262 26.71482,-1.25 C 709.88701,83.683151 711.17047,83 711.46482,83 711.75917,83 712,87.275 712,92.5 c 0,5.666667 -0.40351,9.5 -1,9.5 -0.55,0 -1,-0.42885 -1,-0.953 z M 105,97.428571 c 0,-0.314285 0.675,-1.246428 1.5,-2.071428 2.24753,-2.247528 2.24753,-66.49186 0,-68.357143 -2.99761,-2.487795 -1.29026,-3 10,-3 11.29026,0 12.99761,0.512205 10,3 -1.27755,1.060275 -1.5,6.109965 -1.5,34.051016 0,27.827668 0.22763,33.033758 1.5,34.306127 0.825,0.825 1.5,1.757143 1.5,2.071428 C 128,97.742857 122.825,98 116.5,98 110.175,98 105,97.742857 105,97.428571 Z m 41.4433,-1.651077 C 148.7368,92.503056 148.78924,28.8999 146.5,27 145.675,26.315311 145,25.360211 145,24.877555 145,24.3949 151.54083,24 159.53518,24 c 14.06064,0 14.50139,0.06315 13.5,1.934259 -0.56935,1.063842 -1.02832,2.976342 -1.01994,4.25 0.0203,3.079201 19.49079,38.315741 21.172,38.315741 1.20376,0 12.17288,-18.18017 20.05089,-33.232273 2.79372,-5.33781 3.08247,-6.519913 2.01187,-8.236432 C 214.5625,25.929009 214,24.796032 214,24.513569 214,24.231106 220.36974,24 228.15499,24 h 14.15499 l -1.90499,2.104988 C 238.6132,28.084891 238.5,30.158441 238.5,61 c 0,30.841559 0.1132,32.915109 1.90499,34.895012 L 242.30998,98 H 230.65499 C 220.06017,98 217.08458,97.301831 220,95.5 221.34216,94.670497 221.3528,53.336078 220.0111,52.506839 218.85526,51.792514 217.07303,54.54871 203,78.814192 197.225,88.771759 192.20686,96.937116 191.84857,96.95943 191.49029,96.981743 186.12841,87.8875 179.93329,76.75 167.17828,53.819242 165.22434,50.743318 163.92353,51.547259 163.40802,51.865865 163,61.064438 163,72.367887 c 0,16.256839 0.28951,20.63262 1.4682,22.190983 0.8075,1.067622 1.4825,2.27863 1.5,2.69113 0.0175,0.4125 -4.71872,0.75 -10.5249,0.75 h -10.55671 z m 301.90171,0.393765 C 449.81483,94.547129 450,90.639105 450,61.242688 450,33.153949 449.77291,27.915767 448.5,26.642857 447.675,25.817857 447,24.885714 447,24.571429 447,24.257143 452.175,24 458.5,24 c 6.325,0 11.5,0.240832 11.5,0.535183 0,0.294351 -0.69026,1.588652 -1.53391,2.876224 -1.20025,1.831811 -1.47215,4.815098 -1.25,13.714817 L 467.5,52.5 h 21.5 21.5 l 0.28391,-11.373776 c 0.22215,-8.899719 -0.0498,-11.883006 -1.25,-13.714817 C 508.69026,26.123835 508,24.829534 508,24.535183 508,24.240832 513.175,24 519.5,24 c 6.325,0 11.5,0.257143 11.5,0.571429 0,0.314285 -0.675,1.246428 -1.5,2.071428 -1.27291,1.27291 -1.5,6.511092 -1.5,34.599831 0,29.396417 0.18517,33.304441 1.65499,34.928571 C 531.24932,97.932975 530.88281,98 519.65499,98 513.24474,98 508,97.6051 508,97.122445 c 0,-0.482656 0.68696,-1.447681 1.52658,-2.1445 1.26238,-1.04769 1.47871,-3.708021 1.25,-15.372445 L 510.5,65.5 H 489 467.5 l -0.27993,13.379849 c -0.22336,10.676122 0.0292,13.851687 1.25,15.714817 C 469.31153,95.878898 470,97.170466 470,97.464817 470,97.759168 464.75526,98 458.34501,98 c -11.22782,0 -11.59433,-0.06703 -10,-1.828741 z M 745,97.428571 c 0,-0.314285 0.68184,-1.253265 1.51519,-2.086621 1.29598,-1.295978 1.47683,-5.662161 1.25,-30.178572 L 747.5,36.5 736.12622,36.216091 c -8.89972,-0.222152 -11.883,0.04975 -13.71481,1.25 C 721.12383,38.309741 719.82953,39 719.53518,39 719.24083,39 719,34.95 719,30 c 0,-8.917377 0.5931,-10.400134 3,-7.5 1.86743,2.250112 67.13257,2.250112 69,0 2.4069,-2.900134 3,-1.417377 3,7.5 0,4.95 -0.24083,9 -0.53518,9 -0.29435,0 -1.58865,-0.690259 -2.87623,-1.533909 -1.83181,-1.200248 -4.81509,-1.472152 -13.71481,-1.25 L 765.5,36.5 765.23481,65.163378 c -0.22683,24.516411 -0.046,28.882594 1.25,30.178572 C 767.31816,96.175306 768,97.114286 768,97.428571 768,97.742857 762.825,98 756.5,98 750.175,98 745,97.742857 745,97.428571 Z"
       id="path847"
       inkscape:connector-curvature="0" />
    <path
       style="fill:#373737"
       d="m 331,98.983109 c -0.87393,-0.554938 -15.84388,-0.958875 -35.86663,-0.967796 L 260.76674,98 l 0.84605,-2.25 c 1.08283,-2.879708 1.15432,-65.515837 0.0781,-68.473779 l -0.80906,-2.223779 33.30906,-0.276221 C 312.51092,24.624299 328.2875,24.114355 329.25,23.643011 330.83414,22.867245 331,23.46974 331,30 c 0,6.526284 -0.16682,7.133278 -1.75,6.367426 -2.90028,-1.402994 -48.17716,-1.672771 -49.83494,-0.296936 -2.14363,1.779061 -2.00067,17.490814 0.16673,18.322521 2.69133,1.032761 29.43372,0.669053 31.48395,-0.428195 1.82842,-0.978542 1.93426,-0.64439 1.93426,6.106989 0,6.457827 -0.16768,7.061076 -1.75,6.295808 -2.89529,-1.400268 -30.19829,-1.655414 -31.83449,-0.297493 -1.82878,1.517751 -2.00813,17.937261 -0.21551,19.72988 1.59402,1.594018 47.9928,1.702367 50.95139,0.11898 1.11095,-0.594561 2.22717,-0.873753 2.4805,-0.620427 0.25332,0.253327 0.32728,3.650294 0.16435,7.548817 -0.25146,6.016777 -0.52298,6.944246 -1.79624,6.135739 z M 620.5,99 c -0.393,-0.635889 -13.37938,-1 -35.66601,-1 -33.03882,0 -34.99884,-0.10032 -34.19098,-1.75 1.29595,-2.646364 1.63194,-66.86773 0.36225,-69.240163 -1.02901,-1.922722 -0.45528,-1.962492 32.22354,-2.233706 18.29916,-0.151872 34.0587,-0.661776 35.0212,-1.13312 1.58779,-0.777553 1.75,-0.15738 1.75,6.690697 v 7.547686 l -2.75,-1.434536 C 613.59581,34.54065 570.07836,34.321637 568.2,36.2 c -0.72281,0.722807 -1.2,4.222222 -1.2,8.8 0,4.577778 0.47719,8.077193 1.2,8.8 1.52278,1.522783 29.06221,1.665223 31.86574,0.164816 C 601.89259,52.987118 602,53.318933 602,59.940065 v 7.010433 l -2.5651,-0.975249 C 595.62901,64.528253 569.68507,64.714933 568.2,66.2 c -1.62069,1.620693 -1.62069,17.979307 0,19.6 0.86688,0.866881 7.88389,1.2 25.27749,1.2 20.17355,0 24.43786,-0.252406 26.3,-1.556704 L 622,83.886592 v 8.056704 c 0,7.888578 -0.2523,9.075524 -1.5,7.056704 z m 89.19098,0.25 C 709.06915,98.28921 700.78215,98 673.8736,98 h -35.00838 l 0.81739,-2.25 c 1.08474,-2.985913 1.05745,-66.761395 -0.0295,-68.973689 -0.79169,-1.611328 1.32685,-1.7417 32.5,-2 18.34079,-0.151971 34.13439,-0.661956 35.09689,-1.1333 1.58779,-0.777553 1.75,-0.15738 1.75,6.690697 v 7.547686 l -2.75,-1.434536 C 702.59581,34.54065 659.07836,34.321637 657.2,36.2 c -0.72281,0.722807 -1.2,4.222222 -1.2,8.8 0,4.577778 0.47719,8.077193 1.2,8.8 1.52278,1.522783 29.06221,1.665223 31.86574,0.164816 1.82842,-0.978542 1.93426,-0.64439 1.93426,6.106989 0,6.457827 -0.16768,7.061076 -1.75,6.295808 -2.89529,-1.400268 -30.19829,-1.655414 -31.83449,-0.297493 -1.82878,1.517751 -2.00813,17.937261 -0.21551,19.72988 1.59402,1.594018 47.9928,1.702367 50.95139,0.11898 1.11095,-0.594561 2.22717,-0.873753 2.4805,-0.620427 0.25332,0.253327 0.32728,3.777286 0.16435,7.831021 -0.16966,4.221095 -0.64193,6.83631 -1.10526,6.120426 z m 37.95203,-3 c 1.42869,-2.917426 1.63014,-58.215949 0.21828,-59.917137 -0.95027,-1.145004 -3.60477,-1.377489 -12.78034,-1.119318 C 728.71143,35.392762 722.7125,35.916176 721.75,36.376686 720.16925,37.133 720,36.52903 720,30.13174 v -7.082238 l 2.5651,0.975249 c 3.3854,1.287129 64.4844,1.287129 67.8698,0 L 793,23.049502 v 7.082238 c 0,6.39729 -0.16925,7.00126 -1.75,6.244946 -0.9625,-0.46051 -6.96143,-0.983924 -13.33095,-1.163141 -9.17557,-0.258171 -11.83007,-0.02569 -12.78034,1.119318 -1.41186,1.701188 -1.21041,56.999711 0.21828,59.917137 0.78617,1.60538 0.0542,1.75 -8.85699,1.75 -8.91121,0 -9.64316,-0.14462 -8.85699,-1.75 z M 107.96482,95.065741 C 108.61678,93.847528 109,81.236699 109,61 109,40.763301 108.61678,28.152472 107.96482,26.934259 106.97488,25.084543 107.34794,25 116.5,25 c 9.15206,0 9.52512,0.08454 8.53518,1.934259 C 124.38322,28.152472 124,40.763301 124,61 c 0,20.236699 0.38322,32.847528 1.03518,34.065741 C 126.02512,96.915457 125.65206,97 116.5,97 c -9.15206,0 -9.52512,-0.08454 -8.53518,-1.934259 z m 40,0 c 1.40796,-2.630798 1.40796,-65.500684 0,-68.131482 C 146.96737,25.070508 147.37925,25 159.26402,25 h 12.33438 l -0.40671,3.483768 c -0.34061,2.917594 1.17327,6.371097 9.3152,21.25 10.60377,19.377782 11.451,20.612666 13.56557,19.772581 C 194.85761,69.194422 200.225,60.515387 206,50.219605 213.61763,36.638741 216.4794,30.607839 216.42497,28.25 l -0.075,-3.25 h 11.07502 11.07503 v 36 36 l -8.5,9.86e-4 -8.5,9.86e-4 0.30226,-23.000986 c 0.39911,-30.370907 0.75436,-30.34897 -16.42564,-1.014316 -7.08214,12.092668 -13.256,21.86621 -13.71968,21.718981 -0.46368,-0.147229 -6.38704,-10.15373 -13.16303,-22.23667 C 162.29174,43.577245 162.5,43.589863 162.5,71.5 c 0,11.55 0.36782,22.0125 0.81739,23.25 0.80733,2.222311 0.71152,2.25 -7.78519,2.25 -8.19523,0 -8.55355,-0.09159 -7.56738,-1.934259 z M 450.78783,63.005529 C 450.98111,40.177211 450.72318,28.351273 450.00264,27.004941 448.96324,25.062787 449.23159,25 458.57181,25 c 8.83449,0 9.57221,0.146589 8.80705,1.75 -1.40291,2.939785 -1.66487,24.200447 -0.31819,25.823104 1.74339,2.10066 42.13527,2.10066 43.87866,0 1.34668,-1.622657 1.08472,-22.883319 -0.31819,-25.823104 -0.76516,-1.603411 -0.0274,-1.75 8.80705,-1.75 9.34022,0 9.60857,0.06279 8.56917,2.004941 -0.72054,1.346332 -0.97847,13.17227 -0.78519,36.000588 L 527.5,97.001176 518.77475,97.000588 510.0495,97 511.02475,94.4349 C 512.46685,90.641887 512.28266,66.682659 510.8,65.2 c -1.69747,-1.697469 -41.90253,-1.697469 -43.6,0 -1.48266,1.482659 -1.66685,25.441887 -0.22475,29.2349 L 467.9505,97 l -8.72525,5.88e-4 -8.72525,5.88e-4 z"
       id="path845"
       inkscape:connector-curvature="0" />
    <g
       id="g1412"
       transform="matrix(1.2507058,0,0,1.2507058,-80.115041,75.525285)">
      <path
         style="fill:#800000"
         d="M 354.66667,454.33333 C 354.3,453.96667 354,438.66667 354,420.33333 V 387 h 6.35045 6.35045 l 0.68327,12.94266 c 0.3758,7.11847 0.38483,15.85567 0.0201,19.41601 -0.36476,3.56034 -0.37137,7.63614 -0.0147,9.05734 0.57746,2.30077 1.14281,2.58399 5.15806,2.58399 2.48024,0 10.14243,-1.14054 17.0271,-2.53452 51.6059,-10.44902 93.81212,-41.20118 118.67072,-86.46548 7.00009,-12.74626 14.6064,-33.74303 16.81201,-46.40855 L 526.20531,289 h 11.89734 c 6.54354,0 11.89735,0.40046 11.89735,0.88992 0,0.48946 -0.87417,5.10196 -1.94261,10.25 -8.02975,38.68983 -23.69214,68.24109 -50.98207,96.19125 -32.97913,33.777 -75.25238,53.89434 -121.24488,57.69899 -13.48582,1.11559 -20.25439,1.21255 -21.16377,0.30317 z M 320.5,450.82333 C 293.94266,444.38342 271.15561,434.89 253,422.70184 216.31365,398.07368 187.30983,359.08291 174.97123,317.80527 170.25362,302.02294 167,281.04921 167,266.42053 V 254 h 33.54569 33.54569 l -0.29569,6.75 -0.29569,6.75 -20.96154,0.28326 c -15.07182,0.20368 -21.19331,0.62514 -21.78639,1.5 -1.80339,2.66017 2.0471,26.71211 6.73882,42.09385 7.24057,23.73814 22.18063,48.98626 39.82892,67.30934 24.89601,25.84792 53.23571,41.34998 90.93019,49.73959 L 331,429.0381 V 440.51905 452 l -3.25,-0.10335 c -1.7875,-0.0568 -5.05,-0.53984 -7.25,-1.07332 z M 376,391.14981 V 366 h 3.5 3.5 v 15.8 c 0,16.68301 0.38647,18.2 4.63665,18.2 2.32947,0 15.71682,-3.03052 22.15096,-5.01436 16.36293,-5.04518 32.49886,-14.78749 47.06288,-28.41492 9.01748,-8.43758 21.43623,-26.55354 27.19081,-39.66483 3.43227,-7.8201 8.95606,-24.30105 8.96428,-26.74607 0.003,-0.9129 0.47422,-3.34732 1.047,-5.40982 l 1.04143,-3.75 h 6.95299 c 5.37296,0 6.953,0.32601 6.953,1.43462 0,2.95592 -3.14136,16.39447 -5.99053,25.62713 -16.94858,54.92149 -64.33241,94.71392 -116.25947,97.63347 l -10.75,0.6044 z m -62,18.38952 C 283.82313,401.35673 261.23295,388.07751 241.96671,367.19589 221.35048,344.85108 209.0588,315.58851 209.01567,288.75 L 209,279 h 24 24 v 3.5 3.5 h -15.46482 c -18.65599,0 -18.31497,-0.24399 -16.49066,11.79842 3.74413,24.71527 14.8702,46.19705 33.45548,64.59456 9.85531,9.75574 24.10713,19.71891 35.88398,25.08579 7.80402,3.55641 24.26805,8.88252 30.86602,9.98516 l 3.75,0.6267 V 405.04531 412 l -3.25,-0.0779 c -1.7875,-0.0429 -7.075,-1.11509 -11.75,-2.38274 z m 8.49295,-135.62977 c -20.34612,-22.07893 -42.22932,-45.82837 -48.62932,-52.77653 -6.4,-6.94817 -11.53665,-12.74638 -11.41477,-12.88493 0.12188,-0.13854 21.6387,9.87396 47.81515,22.25 26.17645,12.37605 48.27124,22.5019 49.09954,22.5019 0.82829,0 6.37284,-4.14824 12.32122,-9.21832 20.29171,-17.29557 36.80941,-31.29164 41.31523,-35.00796 2.475,-2.04134 8.34913,-6.98802 13.05362,-10.99262 14.62383,-12.44824 73.7404,-62.40867 88.32035,-74.64104 13.05386,-10.952 28.44288,-23.986861 42.12603,-35.681726 16.39555,-14.013131 31.77292,-26.546236 29.91848,-24.38463 -3.40002,3.963201 -29.03647,32.7869 -36.84548,41.426296 -10.99451,12.16364 -140.02016,155.69075 -165.45186,184.04735 -12.30838,13.72396 -22.88655,25.07709 -23.50705,25.22919 -0.6205,0.15209 -17.77501,-17.78805 -38.12114,-39.86698 z M 484,261.0195 v -6.9805 l 21.75,-0.2695 21.75,-0.2695 -0.16454,-9.51218 c -0.25365,-14.66406 -6.22269,-36.98819 -14.95699,-55.93893 l -3.43417,-7.45112 8.20535,-8.2482 c 4.51294,-4.53651 8.58885,-8.01119 9.05757,-7.7215 1.49098,0.92147 10.40867,19.51956 14.08369,29.37193 6.84323,18.34602 10.48793,37.28873 11.40009,59.25 L 552.30364,268 H 518.15182 484 Z M 478,240 v -3 h 12.98095 12.98095 l 0.64333,-2.56326 c 1.26002,-5.0203 -6.6251,-35.09492 -9.69954,-36.99503 -1.92271,-1.1883 -0.76237,-5.18828 2.39192,-8.24554 1.81368,-1.75789 3.8322,-3.19617 4.4856,-3.19617 0.6534,0 2.48827,2.5875 4.07748,5.75 C 512.67916,205.31859 517,222.41603 517,235.82793 V 243 H 497.5 478 Z M 170,227.09711 c 0,-6.4158 7.18653,-29.96752 13.5776,-44.49653 9.88297,-22.46728 21.43958,-38.84686 41.34561,-58.60058 20.5846,-20.42709 40.32393,-33.249005 66.96129,-43.49549 21.55497,-8.291463 67.82211,-15.505848 74.07535,-11.550488 1.20376,0.761418 1.47948,4.882654 1.57177,23.494079 0.0616,12.413879 -0.14537,26.953959 -0.45985,32.311289 L 366.5,134.5 h -6 -6 l -0.55134,-21 c -0.30323,-11.55 -0.64073,-21.179884 -0.75,-21.399743 -0.4455,-0.896413 -18.31675,0.988295 -26.97286,2.844568 C 262.27407,108.65905 212.2433,156.11356 195.60382,218.84065 l -2.29705,8.65935 -11.65339,0.28174 C 174.62722,227.9516 170,227.67976 170,227.09711 Z M 211.56723,223.25 c 2.59299,-14.78092 8.98507,-32.93758 16.5066,-46.88693 6.30197,-11.68754 9.36561,-16.10612 18.28041,-26.36513 C 258.11051,136.46901 269.71379,127.44453 285.5,119.55223 302.17902,111.21357 314.20383,108 328.72707,108 H 339 v 23.5 23.5 h -3 -3 v -14.06574 c 0,-7.78353 -0.46235,-14.92965 -1.03518,-16 -0.63832,-1.19271 -2.07598,-1.9272 -3.75,-1.91583 -4.04746,0.0275 -19.35509,2.865 -20.61759,3.82183 -0.60348,0.45736 -3.57223,1.60657 -6.59723,2.55379 -3.025,0.94723 -6.91886,2.48357 -8.65303,3.41409 -1.73416,0.93052 -5.4831,2.92909 -8.33097,4.44127 -8.32428,4.42004 -21.50766,15.47095 -29.36079,24.61154 -6.35131,7.39255 -17.30926,24.11908 -20.07238,30.63905 -3.01145,7.10594 -8.73689,25.16519 -10.0659,31.75 -0.53735,2.66239 -0.76296,2.75 -7.0813,2.75 h -6.52626 z M 442.56802,145.51052 C 431.13527,136.6328 412.90548,128.15767 396.5,124.09323 l -7,-1.73424 -0.29206,-7.67949 -0.29207,-7.6795 2.79207,0.0235 c 3.06225,0.0258 13.15757,2.62454 23.29206,5.99581 13.07769,4.35035 31.47669,14.57988 42.77922,23.78452 l 4.27922,3.48494 -5.27922,4.8102 c -2.90357,2.64561 -5.98806,4.83063 -6.85443,4.8556 -0.86636,0.025 -4.17691,-1.97487 -7.35677,-4.44409 z m 21.43517,-18.00786 C 447.46602,113.68625 423.4066,101.8816 398.75,95.486461 L 388,92.698253 V 81.349126 c 0,-13.247276 -0.99336,-12.527858 13,-9.414987 27.83176,6.191274 56.10272,19.799981 79.33012,38.186901 3.04247,2.40843 5.76311,4.91383 6.04587,5.56755 C 486.88738,116.87089 470.99533,131 469.15412,131 c -0.53069,0 -2.84861,-1.5738 -5.15093,-3.49734 z"
         id="path1418"
         inkscape:connector-curvature="0" />
      <path
         style="fill:#363636"
         d="M 354.66667,454.33333 C 354.3,453.96667 354,438.66667 354,420.33333 V 387 h 6.35045 6.35045 l 0.68327,12.94266 c 0.3758,7.11847 0.38483,15.85567 0.0201,19.41601 -0.36476,3.56034 -0.37137,7.63614 -0.0147,9.05734 0.57746,2.30077 1.14281,2.58399 5.15806,2.58399 2.48024,0 10.14243,-1.14054 17.0271,-2.53452 51.6059,-10.44902 93.81212,-41.20118 118.67072,-86.46548 7.00009,-12.74626 14.6064,-33.74303 16.81201,-46.40855 L 526.20531,289 h 11.89734 c 6.54354,0 11.89735,0.40046 11.89735,0.88992 0,0.48946 -0.87417,5.10196 -1.94261,10.25 -8.02975,38.68983 -23.69214,68.24109 -50.98207,96.19125 -32.97913,33.777 -75.25238,53.89434 -121.24488,57.69899 -13.48582,1.11559 -20.25439,1.21255 -21.16377,0.30317 z M 320.5,450.82333 C 293.94266,444.38342 271.15561,434.89 253,422.70184 216.31365,398.07368 187.30983,359.08291 174.97123,317.80527 170.25362,302.02294 167,281.04921 167,266.42053 V 254 h 33.54569 33.54569 l -0.29569,6.75 -0.29569,6.75 -20.96154,0.28326 c -15.07182,0.20368 -21.19331,0.62514 -21.78639,1.5 -1.80339,2.66017 2.0471,26.71211 6.73882,42.09385 7.24057,23.73814 22.18063,48.98626 39.82892,67.30934 24.89601,25.84792 53.23571,41.34998 90.93019,49.73959 L 331,429.0381 V 440.51905 452 l -3.25,-0.10335 c -1.7875,-0.0568 -5.05,-0.53984 -7.25,-1.07332 z M 376,391.14981 V 366 h 3.5 3.5 v 15.8 c 0,16.68301 0.38647,18.2 4.63665,18.2 2.32947,0 15.71682,-3.03052 22.15096,-5.01436 16.36293,-5.04518 32.49886,-14.78749 47.06288,-28.41492 9.01748,-8.43758 21.43623,-26.55354 27.19081,-39.66483 3.43227,-7.8201 8.95606,-24.30105 8.96428,-26.74607 0.003,-0.9129 0.47422,-3.34732 1.047,-5.40982 l 1.04143,-3.75 h 6.95299 c 5.37296,0 6.953,0.32601 6.953,1.43462 0,2.95592 -3.14136,16.39447 -5.99053,25.62713 -16.94858,54.92149 -64.33241,94.71392 -116.25947,97.63347 l -10.75,0.6044 z m -62,18.38952 C 283.82313,401.35673 261.23295,388.07751 241.96671,367.19589 221.35048,344.85108 209.0588,315.58851 209.01567,288.75 L 209,279 h 24 24 v 3.5 3.5 h -15.46482 c -18.65599,0 -18.31497,-0.24399 -16.49066,11.79842 3.74413,24.71527 14.8702,46.19705 33.45548,64.59456 9.85531,9.75574 24.10713,19.71891 35.88398,25.08579 7.80402,3.55641 24.26805,8.88252 30.86602,9.98516 l 3.75,0.6267 V 405.04531 412 l -3.25,-0.0779 c -1.7875,-0.0429 -7.075,-1.11509 -11.75,-2.38274 z M 484,261.0195 v -6.9805 l 21.75,-0.2695 21.75,-0.2695 -0.16454,-9.51218 c -0.25365,-14.66406 -6.22269,-36.98819 -14.95699,-55.93893 l -3.43417,-7.45112 8.20535,-8.2482 c 4.51294,-4.53651 8.58885,-8.01119 9.05757,-7.7215 1.49098,0.92147 10.40867,19.51956 14.08369,29.37193 6.84323,18.34602 10.48793,37.28873 11.40009,59.25 L 552.30364,268 H 518.15182 484 Z M 478,240 v -3 h 12.98095 12.98095 l 0.64333,-2.56326 c 1.26002,-5.0203 -6.6251,-35.09492 -9.69954,-36.99503 -1.92271,-1.1883 -0.76237,-5.18828 2.39192,-8.24554 1.81368,-1.75789 3.8322,-3.19617 4.4856,-3.19617 0.6534,0 2.48827,2.5875 4.07748,5.75 C 512.67916,205.31859 517,222.41603 517,235.82793 V 243 H 497.5 478 Z M 170,227.09711 c 0,-6.4158 7.18653,-29.96752 13.5776,-44.49653 9.88297,-22.46728 21.43958,-38.84686 41.34561,-58.60058 20.5846,-20.42709 40.32393,-33.249005 66.96129,-43.49549 21.55497,-8.291463 67.82211,-15.505848 74.07535,-11.550488 1.20376,0.761418 1.47948,4.882654 1.57177,23.494079 0.0616,12.413879 -0.14537,26.953959 -0.45985,32.311289 L 366.5,134.5 h -6 -6 l -0.55134,-21 c -0.30323,-11.55 -0.64073,-21.179884 -0.75,-21.399743 -0.4455,-0.896413 -18.31675,0.988295 -26.97286,2.844568 C 262.27407,108.65905 212.2433,156.11356 195.60382,218.84065 l -2.29705,8.65935 -11.65339,0.28174 C 174.62722,227.9516 170,227.67976 170,227.09711 Z M 211.56723,223.25 c 2.59299,-14.78092 8.98507,-32.93758 16.5066,-46.88693 6.30197,-11.68754 9.36561,-16.10612 18.28041,-26.36513 C 258.11051,136.46901 269.71379,127.44453 285.5,119.55223 302.17902,111.21357 314.20383,108 328.72707,108 H 339 v 23.5 23.5 h -3 -3 v -14.06574 c 0,-7.78353 -0.46235,-14.92965 -1.03518,-16 -0.63832,-1.19271 -2.07598,-1.9272 -3.75,-1.91583 -4.04746,0.0275 -19.35509,2.865 -20.61759,3.82183 -0.60348,0.45736 -3.57223,1.60657 -6.59723,2.55379 -3.025,0.94723 -6.91886,2.48357 -8.65303,3.41409 -1.73416,0.93052 -5.4831,2.92909 -8.33097,4.44127 -8.32428,4.42004 -21.50766,15.47095 -29.36079,24.61154 -6.35131,7.39255 -17.30926,24.11908 -20.07238,30.63905 -3.01145,7.10594 -8.73689,25.16519 -10.0659,31.75 -0.53735,2.66239 -0.76296,2.75 -7.0813,2.75 h -6.52626 z M 442.56802,145.51052 C 431.13527,136.6328 412.90548,128.15767 396.5,124.09323 l -7,-1.73424 -0.29206,-7.67949 -0.29207,-7.6795 2.79207,0.0235 c 3.06225,0.0258 13.15757,2.62454 23.29206,5.99581 13.07769,4.35035 31.47669,14.57988 42.77922,23.78452 l 4.27922,3.48494 -5.27922,4.8102 c -2.90357,2.64561 -5.98806,4.83063 -6.85443,4.8556 -0.86636,0.025 -4.17691,-1.97487 -7.35677,-4.44409 z m 21.43517,-18.00786 C 447.46602,113.68625 423.4066,101.8816 398.75,95.486461 L 388,92.698253 V 81.349126 c 0,-13.247276 -0.99336,-12.527858 13,-9.414987 27.83176,6.191274 56.10272,19.799981 79.33012,38.186901 3.04247,2.40843 5.76311,4.91383 6.04587,5.56755 C 486.88738,116.87089 470.99533,131 469.15412,131 c -0.53069,0 -2.84861,-1.5738 -5.15093,-3.49734 z"
         id="path1416"
         inkscape:connector-curvature="0" />
      <path
         style="fill:#010101"
         d="m 354.51211,452.89215 c -0.29747,-0.7752 -0.42189,-15.80556 -0.27649,-33.4008 L 354.5,387.5 h 6 6 l 0.5,22 0.5,22 6.5,-0.30293 c 3.575,-0.16661 11.15356,-1.21564 16.84125,-2.33118 45.94695,-9.01173 86.30538,-36.3372 111.51658,-75.50454 9.95075,-15.45917 21.23605,-43.13693 23.18458,-56.86135 0.39043,-2.75 1.15821,-5.5625 1.70618,-6.25 0.68343,-0.85746 4.2956,-1.25 11.50269,-1.25 h 10.50638 l -0.66997,5.05048 c -0.36848,2.77776 -2.03406,10.30415 -3.70129,16.72531 -8.8563,34.10924 -25.88368,63.37257 -51.09095,87.80514 -28.18356,27.31741 -59.24783,43.90445 -97.29545,51.95179 -14.9516,3.16236 -41.11559,4.6326 -41.98789,2.35943 z M 318,449.45065 C 245.24419,432.80614 188.83507,376.57964 172.07691,304 c -3.01864,-13.07376 -4.34448,-24.18114 -4.46596,-37.41421 L 167.5,254.5 h 33 33 v 6 6 l -21.5,0.5 -21.5,0.5 0.19201,9.5 c 0.66974,33.13651 19.05408,74.09667 45.6514,101.71095 23.90148,24.81537 50.07763,40.0024 83.15659,48.24629 l 11,2.7414 v 10.81735 c 0,6.37175 -0.41097,10.92408 -1,11.07706 -0.55,0.14284 -5.725,-0.82124 -11.5,-2.1424 z M 485.2,266.8 c -1.55581,-1.55581 -1.55581,-10.04419 0,-11.6 0.85822,-0.85822 7.26667,-1.2 22.5,-1.2 H 529 l -0.0183,-3.75 c -0.0291,-5.9586 -2.73572,-23.45343 -5.00117,-32.32635 -2.38047,-9.32335 -5.46249,-17.80986 -10.6013,-29.19118 l -3.59781,-7.96834 7.85709,-7.90344 c 9.12234,-9.17616 8.02721,-9.5182 14.85384,4.63931 10.24311,21.24281 16.59315,45.78734 18.6738,72.17896 0.975,12.36715 0.95514,15.46999 -0.10717,16.75 C 549.92399,267.79651 545.65205,268 518.07756,268 494.77279,268 486.08282,267.68282 485.2,266.8 Z M 171.00912,225.78383 c 0.0153,-3.82858 4.80421,-21.3713 8.62935,-31.61091 C 202.32705,133.43713 255.01035,87.583374 318.11682,73.646069 333.26068,70.30149 346.53896,68.796704 357.5,69.182899 l 9,0.317101 v 32 32 h -6 -6 l -0.5,-21 -0.5,-21 -7,0.299974 C 298.28779,93.866035 247.19773,123.52247 218.79322,165.93039 207.26103,183.14794 200.67886,198.31615 193.16024,225 c -0.68843,2.44326 -0.94789,2.50644 -11.43233,2.78383 -10.59078,0.28021 -10.72779,0.25464 -10.71879,-2 z m 293.0723,-99.21581 C 448.0647,113.18644 422.96172,100.90542 399.5,94.97314 l -11,-2.78134 -0.28679,-10.259115 c -0.15773,-5.642513 0.0788,-10.624701 0.52563,-11.071528 1.1306,-1.130598 20.16093,3.310427 33.03761,7.709843 19.5262,6.671275 45.99964,21.61471 59.58117,33.63173 l 4.85763,4.29806 -8.06337,6.7496 c -4.43485,3.71229 -8.4907,6.74961 -9.01301,6.74961 -0.5223,0 -2.79816,-1.54439 -5.05745,-3.43198 z"
         id="path1414"
         inkscape:connector-curvature="0" />
    </g>
  </g>
</svg>
