<?xml version="1.0" encoding="UTF-8" standalone="no"?>
<!-- Created with Inkscape (http://www.inkscape.org/) -->

<svg
   xmlns:dc="http://purl.org/dc/elements/1.1/"
   xmlns:cc="http://creativecommons.org/ns#"
   xmlns:rdf="http://www.w3.org/1999/02/22-rdf-syntax-ns#"
   xmlns:svg="http://www.w3.org/2000/svg"
   xmlns="http://www.w3.org/2000/svg"
   xmlns:sodipodi="http://sodipodi.sourceforge.net/DTD/sodipodi-0.dtd"
   xmlns:inkscape="http://www.inkscape.org/namespaces/inkscape"
   version="1.1"
   id="svg815"
   width="793.84747"
   height="644.86237"
   viewBox="0 0 793.84747 644.86237"
   sodipodi:docname="timesheet_login_logo.svg"
   inkscape:version="0.92.4 (5da689c313, 2019-01-14)">
  <metadata
     id="metadata821">
    <rdf:RDF>
      <cc:Work
         rdf:about="">
        <dc:format>image/svg+xml</dc:format>
        <dc:type
           rdf:resource="http://purl.org/dc/dcmitype/StillImage" />
        <dc:title />
      </cc:Work>
    </rdf:RDF>
  </metadata>
  <defs
     id="defs819" />
  <sodipodi:namedview
     pagecolor="#ffffff"
     bordercolor="#666666"
     borderopacity="1"
     objecttolerance="10"
     gridtolerance="10"
     guidetolerance="10"
     inkscape:pageopacity="0"
     inkscape:pageshadow="2"
     inkscape:window-width="1920"
     inkscape:window-height="1017"
     id="namedview817"
     showgrid="false"
     inkscape:zoom="1.08125"
     inkscape:cx="181.30081"
     inkscape:cy="522.32101"
     inkscape:window-x="-8"
     inkscape:window-y="-8"
     inkscape:window-maximized="1"
     inkscape:current-layer="g843" />
  <g
     id="g843"
     transform="translate(-2.1525481,-2)">
    <path
       style="fill:#a8a8a8"
       d="M 330.52202,102.02433 C 328.7477,100.06373 327.56341,100 292.90403,100 c -24.42302,0 -35.99677,-0.341032 -36.44978,-1.074028 -0.36508,-0.590715 0.28336,-2.082218 1.44098,-3.314451 C 259.94627,93.428287 260,92.536983 260,60.694023 c 0,-31.594068 -0.0663,-32.718471 -2,-33.926096 -2.40246,-1.50036 -2.58625,-3.328983 -0.41821,-4.160938 C 258.45177,22.273145 274.28527,22 292.76734,22 325.55236,22 326.42568,21.94872 328.61152,19.895231 332.24894,16.47805 333,18.207406 333,30 c 0,11.807693 -0.74987,13.523061 -4.40891,10.085571 -2.18773,-2.055264 -3.00207,-2.115258 -25.17598,-1.854768 L 280.5,38.5 280.19758,44.334373 C 279.75613,52.850919 280.01057,53 294.98759,53 c 11.2285,0 13.04482,-0.237657 15.28528,-2 4.92717,-3.875709 5.73358,-2.487624 5.71182,9.831787 -0.0188,10.652924 -0.88518,12.549774 -4.27671,9.363604 -2.29015,-2.151488 -3.04151,-2.23975 -16.80267,-1.973795 L 280.5,68.5 v 7.5 7.5 l 23.91587,0.26849 c 23.46337,0.26341 23.96028,0.226766 26.26324,-1.936756 3.6643,-3.442433 4.42619,-1.462299 4.10639,10.672412 -0.29971,11.372204 -1.05703,13.063274 -4.26348,9.520184 z M 619.5,102 c -1.74574,-1.92902 -3.07997,-2 -37.59597,-2 -24.42302,0 -35.99677,-0.341032 -36.44978,-1.074028 -0.36508,-0.590715 0.28336,-2.082218 1.44098,-3.314451 C 548.94544,93.429178 549,92.531907 549,61 c 0,-32.080702 -0.0199,-32.392333 -2.2238,-34.738219 -1.88563,-2.007167 -1.99968,-2.508848 -0.75,-3.299138 0.83637,-0.528912 16.45072,-0.93864 36.10183,-0.94733 34.4182,-0.01522 34.63676,-0.02847 36.06931,-2.186002 C 620.97723,15.642573 622,18.528453 622,30.559017 622,42.748193 621.30557,44.205107 617.5,40 c -1.70955,-1.88903 -3.07997,-2 -24.6988,-2 h -22.88882 l 0.29381,7.25 0.29381,7.25 12.96181,0.281458 c 11.71619,0.254411 13.22587,0.08624 15.70951,-1.75 5.12424,-3.788513 5.83526,-2.589864 5.81337,9.800329 -0.0188,10.627602 -0.88706,12.548008 -4.24647,9.392008 C 598.52135,68.141157 597.47066,68 584.18555,68 H 570 v 8 8 h 24.37803 c 24.14166,0 24.39349,-0.02182 25.973,-2.25 1.56812,-2.212121 1.62068,-2.217321 3.12197,-0.30887 1.08561,1.380031 1.52305,4.270607 1.51335,10 C 624.96529,103.86566 623.58773,106.51689 619.5,102 Z m 89,0 c -1.74574,-1.92902 -3.07997,-2 -37.59597,-2 -24.42302,0 -35.99677,-0.341032 -36.44978,-1.074028 -0.36508,-0.590715 0.28336,-2.082218 1.44098,-3.314451 C 637.94544,93.429178 638,92.531907 638,61 c 0,-32.080702 -0.0199,-32.392333 -2.2238,-34.738219 -1.88563,-2.007167 -1.99968,-2.508848 -0.75,-3.299138 0.83637,-0.528912 16.45072,-0.93864 36.10183,-0.94733 34.4182,-0.01522 34.63676,-0.02847 36.06931,-2.186002 C 709.94139,15.696548 711,18.527929 711,30 c 0,11.807693 -0.74987,13.523061 -4.40891,10.085571 -2.18773,-2.055264 -3.00207,-2.115258 -25.17598,-1.854768 L 658.5,38.5 658.19758,44.334373 C 657.75613,52.850919 658.01057,53 672.98759,53 c 11.2285,0 13.04482,-0.237657 15.28528,-2 4.92717,-3.875709 5.73358,-2.487624 5.71182,9.831787 -0.0188,10.652924 -0.88518,12.549774 -4.27671,9.363604 -2.29015,-2.151488 -3.04151,-2.23975 -16.80267,-1.973795 L 658.5,68.5 v 7.5 7.5 l 24.48189,0.268305 c 24.07781,0.263876 24.50881,0.232618 26.11279,-1.89382 C 712.07124,77.928371 713,80.469367 713,92.559017 713,104.74819 712.30557,106.20511 708.5,102 Z M 380,100.31242 C 373.58353,99.246746 361.95229,95.871262 356.72149,93.556802 353.5433,92.150561 349.6058,91 347.97149,91 346.22601,91 345,90.472629 345,89.721808 345,87.322171 353.77325,68.5 354.89175,68.5 c 0.61337,0 1.90115,1.575 2.86173,3.5 2.08045,4.169191 11.01034,9.03995 20.11644,10.972395 8.13747,1.726888 22.60033,0.981216 27.49814,-1.417741 4.10143,-2.008889 7.622,-6.684239 7.6282,-10.13034 0.004,-2.301354 -3.40472,-5.866831 -6.49626,-6.794719 -1.1,-0.330152 -8.3,-1.285669 -16,-2.123372 -24.29272,-2.642867 -31.44472,-4.978831 -37.41937,-12.221797 -3.64911,-4.423747 -5.06948,-8.846231 -5.06948,-15.784426 0,-10.85781 4.6633,-18.710679 14.254,-24.003374 7.77046,-4.2881796 17.07316,-5.9196979 29.99343,-5.2602822 8.64942,0.4414426 12.15172,1.1596824 20.82004,4.2696947 5.73176,2.0564365 12.55888,3.9522785 15.17138,4.2129815 2.6125,0.260704 4.75,0.890565 4.75,1.399691 0,1.434048 -8.02935,17.165089 -9.76462,19.130769 -1.44912,1.641536 -1.74693,1.512887 -4.82662,-2.085039 -8.03548,-9.387657 -31.25544,-14.015781 -43.87172,-8.744364 -4.2084,1.758382 -7.71211,6.293124 -7.33461,9.49296 0.53431,4.52904 5.3841,6.680976 17.99449,7.984463 31.10082,3.21477 39.97618,6.835785 45.42231,18.531637 4.27192,9.174159 2.88378,20.360145 -3.53185,28.460532 C 419.74302,97.162686 397.06271,103.14628 380,100.31242 Z M 104.25,99.337719 C 102.55193,98.652534 102.67516,96.514485 104.5,95 c 1.27747,-1.060203 1.5,-6.104297 1.5,-34 0,-27.895703 -0.22253,-32.939797 -1.5,-34 -1.95044,-1.618724 -1.91304,-3.627523 0.0818,-4.393011 2.05775,-0.789633 21.77867,-0.789633 23.83642,0 1.99483,0.765488 2.03223,2.774287 0.0818,4.393011 -1.27747,1.060203 -1.5,6.104297 -1.5,34 0,27.895703 0.22253,32.939797 1.5,34 1.95044,1.618724 1.91304,3.627523 -0.0818,4.393011 -1.87604,0.719909 -22.36323,0.673029 -24.16821,-0.05529 z m 40,0 c -1.81137,-0.730901 -1.53286,-3.080083 0.5,-4.217445 1.61062,-0.901127 1.75,-3.564723 1.75,-33.444202 0,-29.515622 -0.15899,-32.640821 -1.75,-34.399324 -4.16501,-4.603477 -2.22341,-5.280823 15.08179,-5.261435 15.65437,0.01754 17.35265,0.528062 14.78622,4.444927 -1.09442,1.67029 -1.47328,3.43583 -1.0376,4.835343 0.9092,2.920579 18.3293,34.53058 19.39134,35.186957 C 193.95169,67.088177 214,31.89601 214,29.570217 c 0,-0.878545 -0.5625,-2.504979 -1.25,-3.614298 -2.02012,-3.259578 0.49459,-3.923834 14.91821,-3.940606 C 244.49039,21.995751 246.35554,22.644461 242,27 c -1.91667,1.916667 -2,3.333333 -2,34 0,30.666667 0.0833,32.083333 2,34 4.24574,4.245737 2.36776,5.00484 -12.33179,4.984687 -13.28727,-0.01822 -14.88069,-0.627807 -11.81813,-4.52122 C 219.87352,92.891082 220,91.644916 220,74.281808 c 0,-12.970056 -0.32658,-18.339615 -1.09975,-18.081892 -0.60486,0.20162 -6.6549,9.7933 -13.44453,21.314844 -6.78963,11.521544 -12.75221,21.084069 -13.25017,21.250056 C 190.84381,99.218729 190.14132,98.113264 178.05694,76.5 171.90663,65.5 166.45278,56.0725 165.93728,55.55 165.3538,54.958605 165,61.917639 165,73.985549 c 0,18.659546 0.0833,19.474199 2.2238,21.75267 1.88563,2.007167 1.99968,2.508848 0.75,3.299138 -1.5108,0.955418 -21.47402,1.208173 -23.7238,0.300362 z m 302,0 C 444.47068,98.61975 444.69864,97.301364 447,95 c 1.91498,-1.91498 2,-3.333333 2,-33.365141 0,-29.850946 -0.0965,-31.487889 -2,-33.90773 -4.01872,-5.10897 -2.67276,-5.732389 12.33179,-5.711816 13.10751,0.01797 15.17193,0.755148 11.89201,4.246468 C 469.19902,28.417052 469,29.629978 469,39.814451 V 51 h 20 20 V 39.814451 c 0,-10.184473 -0.19902,-11.397399 -2.2238,-13.55267 -3.27992,-3.49132 -1.2155,-4.228496 11.89201,-4.246468 15.00455,-0.02057 16.35051,0.602846 12.33179,5.711816 -1.90345,2.419841 -2,4.056784 -2,33.90773 0,30.031808 0.085,31.450161 2,33.365141 4.24574,4.245737 2.36776,5.00484 -12.33179,4.984687 C 505.5607,99.966715 503.49628,99.229539 506.7762,95.738219 508.84248,93.53877 509,92.437113 509,80.185549 V 67 h -20 -20 v 13.185549 c 0,12.251564 0.15752,13.353221 2.2238,15.55267 1.88563,2.007167 1.99968,2.508848 0.75,3.299138 -1.50885,0.954181 -23.46803,1.210583 -25.7238,0.300362 z M 743,98.122445 C 743,97.089789 743.675,95.684689 744.5,95 745.76769,93.947909 746,89.437654 746,65.877555 V 38 h -11.18555 c -10.18447,0 -11.3974,0.199024 -13.55267,2.223795 -3.41074,3.204221 -4.23115,1.221834 -4.23115,-10.223795 0,-11.445629 0.82041,-13.428016 4.23115,-10.223795 C 723.6092,21.981489 723.90253,22 756.5,22 c 32.59747,0 32.8908,-0.01851 35.23822,-2.223795 3.41074,-3.204221 4.23115,-1.221834 4.23115,10.223795 0,11.445629 -0.82041,13.428016 -4.23115,10.223795 C 789.58295,38.199024 788.37002,38 778.18555,38 H 767 v 27.877555 c 0,23.560099 0.23231,28.070354 1.5,29.122445 0.825,0.684689 1.5,2.089789 1.5,3.122445 C 770,99.866466 769.03987,100 756.5,100 743.96013,100 743,99.866466 743,98.122445 Z m -707,-0.5 c 0,-0.757656 0.680619,-1.94242 1.512488,-2.632809 1.307429,-1.08507 1.4769,-6.084125 1.25,-36.872445 L 38.5,22.5 24.535693,22.220385 c -12.715575,-0.254611 -14.20979,-0.09812 -16.7095071,1.75 C 6.3163254,25.086673 4.8377634,26 4.5404925,26 3.6257864,26 3.9437122,3.1528217 4.8663532,2.5825983 5.3428475,2.2881086 6.5375919,2.936551 7.5213408,4.0235813 9.2470358,5.9304528 10.741795,6 50,6 89.258205,6 90.752964,5.9304528 92.478659,4.0235813 93.462408,2.936551 94.657153,2.2881086 95.133647,2.5825983 95.610141,2.8770879 96,8.2664763 96,14.559017 c 0,12.10815 -0.689313,13.620553 -4.290797,9.414325 -1.619056,-1.89092 -2.722315,-2.008129 -16.472241,-1.75 L 60.5,22.5 60.236772,57.48647 c -0.251307,33.401987 -0.174482,35.106508 1.696367,37.636966 1.077778,1.457773 1.683731,2.926361 1.346562,3.26353 C 62.942532,98.724135 56.666667,99 49.333333,99 38.674877,99 36,98.723641 36,97.622445 Z"
       id="path855"
       inkscape:connector-curvature="0" />
    <path
       style="fill:#800000"
       d="M 330.13922,100.96673 C 327.8896,99.092612 326.11198,99 292.38922,99 272.92515,99 257,98.733478 257,98.407729 c 0,-0.325749 0.9,-1.736435 2,-3.134858 1.90456,-2.421254 2,-4.056784 2,-34.272871 0,-30.039982 -0.1048,-31.86351 -1.96725,-34.23123 -1.08198,-1.37552 -1.68198,-2.786207 -1.33333,-3.134858 C 258.04807,23.28526 273.71359,23 292.51168,23 c 32.90835,0 34.2456,-0.07432 35.98832,-2 0.99549,-1.1 2.19023,-2 2.65499,-2 0.46475,0 0.84501,4.95 0.84501,11 0,6.05 -0.38026,11 -0.84501,11 -0.46476,0 -1.6595,-0.9 -2.65499,-2 -1.71151,-1.891198 -3.07997,-2 -25.15499,-2 H 280 v 8 8 h 14.87756 C 306.8821,53 309.99551,52.710334 311,51.5 c 0.68469,-0.825 1.86479,-1.5 2.62244,-1.5 1.0777,0 1.37756,2.163936 1.37756,9.940983 0,5.467541 -0.38986,10.181929 -0.86635,10.476419 -0.4765,0.294489 -1.67124,-0.353953 -2.65499,-1.440983 C 309.85016,67.176943 308.36099,67 294.84501,67 H 280 v 9 9 h 24.18555 c 23.62056,0 24.24084,-0.05195 26.55267,-2.223795 2.00717,-1.885635 2.50885,-1.999683 3.29914,-0.75 1.03297,1.63343 1.31291,16.897427 0.35565,19.392005 -0.77498,2.01957 -1.3625,1.95721 -4.25379,-0.45148 z m 289,-0.002 C 616.89056,99.093308 615.09757,99 581.38922,99 561.92515,99 546,98.619744 546,98.154988 c 0,-0.464757 0.9,-1.659502 2,-2.654988 1.9223,-1.739658 2,-3.079967 2,-34.5 0,-31.290022 -0.0846,-32.766626 -1.97642,-34.478659 -1.08703,-0.983749 -1.73547,-2.178494 -1.44098,-2.654988 C 546.87709,23.389859 562.61648,23 581.55902,23 c 33.31327,0 34.50766,-0.06668 36.47745,-2.036475 1.12007,-1.12006 2.47007,-1.768503 3,-1.440983 1.34476,0.831106 1.24302,20.186687 -0.1105,21.02321 -0.59071,0.365082 -2.09141,-0.291999 -3.33488,-1.460181 -2.18773,-2.055264 -3.00207,-2.115258 -25.17598,-1.854768 L 569.5,37.5 v 7.5 7.5 l 14.60605,0.275909 c 12.10944,0.228747 14.82252,0.01508 15.87245,-1.25 C 600.67501,50.686659 601.86479,50 602.62244,50 603.69912,50 604,52.147722 604,59.833333 c 0,5.408334 -0.30412,10.13745 -0.67581,10.509147 -0.3717,0.371697 -1.65181,-0.241085 -2.84469,-1.361738 -2.0069,-1.885384 -3.24467,-2.016759 -16.57419,-1.759146 L 569.5,67.5 v 8.5 8.5 l 24.5,0.277432 c 24.15133,0.273484 24.52547,0.246301 26.28992,-1.910082 1.19118,-1.455778 2.12384,-1.853595 2.78816,-1.189267 1.28941,1.289403 0.75779,20.560517 -0.57808,20.955377 -0.55,0.16257 -2.06235,-0.58846 -3.36078,-1.66894 z m 89,0 C 705.89056,99.093308 704.09757,99 670.38922,99 650.92515,99 635,98.619744 635,98.154988 c 0,-0.464757 0.9,-1.659502 2,-2.654988 1.9223,-1.739658 2,-3.079967 2,-34.5 0,-31.290022 -0.0846,-32.766626 -1.97642,-34.478659 -1.08703,-0.983749 -1.73547,-2.178494 -1.44098,-2.654988 C 635.87709,23.389859 651.59895,23 670.52006,23 c 34.32735,0 34.40655,-0.0049 36.48574,-2.236601 3.06275,-3.28748 3.9606,-1.047289 3.97889,9.927584 0.0168,10.075071 -0.84735,11.72612 -4.3936,8.394588 -2.18773,-2.055264 -3.00207,-2.115258 -25.17598,-1.854768 L 658.5,37.5 658.20794,45.25 657.91587,53 h 14.91962 C 684.87742,53 687.99522,52.710681 689,51.5 689.68469,50.675 690.86479,50 691.62244,50 692.69912,50 693,52.147722 693,59.833333 c 0,5.408334 -0.30412,10.13745 -0.67581,10.509147 -0.3717,0.371697 -1.65181,-0.241085 -2.84469,-1.361738 -2.0069,-1.885384 -3.24467,-2.016759 -16.57419,-1.759146 L 658.5,67.5 v 8.5 8.5 l 24.23226,0.267738 c 23.5293,0.259972 24.2937,0.206304 26.35,-1.85 1.31877,-1.318769 2.47169,-1.763793 3.0559,-1.179574 1.24028,1.240277 0.65164,20.514056 -0.63816,20.895296 -0.55,0.16257 -2.06235,-0.58846 -3.36078,-1.66894 z M 380,100.31242 C 373.58353,99.246746 361.95229,95.871262 356.72149,93.556802 353.5433,92.150561 349.6058,91 347.97149,91 346.22601,91 345,90.472629 345,89.721808 345,87.322171 353.77325,68.5 354.89175,68.5 c 0.61337,0 1.90115,1.575 2.86173,3.5 2.08045,4.169191 11.01034,9.03995 20.11644,10.972395 8.13747,1.726888 22.60033,0.981216 27.49814,-1.417741 4.10143,-2.008889 7.622,-6.684239 7.6282,-10.13034 0.004,-2.301354 -3.40472,-5.866831 -6.49626,-6.794719 -1.1,-0.330152 -8.3,-1.285669 -16,-2.123372 -24.29272,-2.642867 -31.44472,-4.978831 -37.41937,-12.221797 -3.64911,-4.423747 -5.06948,-8.846231 -5.06948,-15.784426 0,-10.85781 4.6633,-18.710679 14.254,-24.003374 7.77046,-4.2881796 17.07316,-5.9196979 29.99343,-5.2602822 8.64942,0.4414426 12.15172,1.1596824 20.82004,4.2696947 5.73176,2.0564365 12.55888,3.9522785 15.17138,4.2129815 2.6125,0.260704 4.75,0.890565 4.75,1.399691 0,1.434048 -8.02935,17.165089 -9.76462,19.130769 -1.44912,1.641536 -1.74693,1.512887 -4.82662,-2.085039 -8.03548,-9.387657 -31.25544,-14.015781 -43.87172,-8.744364 -4.2084,1.758382 -7.71211,6.293124 -7.33461,9.49296 0.53431,4.52904 5.3841,6.680976 17.99449,7.984463 31.10082,3.21477 39.97618,6.835785 45.42231,18.531637 4.27192,9.174159 2.88378,20.360145 -3.53185,28.460532 C 419.74302,97.162686 397.06271,103.14628 380,100.31242 Z M 36,97.622445 c 0,-0.757656 0.680619,-1.94242 1.512488,-2.632809 1.307429,-1.08507 1.4769,-6.084125 1.25,-36.872445 L 38.5,22.5 24.535693,22.220385 c -12.715575,-0.254611 -14.20979,-0.09812 -16.7095071,1.75 C 6.3163254,25.086673 4.8377634,26 4.5404925,26 3.6257864,26 3.9437122,3.1528217 4.8663532,2.5825983 5.3428475,2.2881086 6.5375919,2.936551 7.5213408,4.0235813 9.2470358,5.9304528 10.741795,6 50,6 89.258205,6 90.752964,5.9304528 92.478659,4.0235813 93.462408,2.936551 94.657153,2.2881086 95.133647,2.5825983 95.610141,2.8770879 96,8.2664763 96,14.559017 c 0,12.10815 -0.689313,13.620553 -4.290797,9.414325 -1.619056,-1.89092 -2.722315,-2.008129 -16.472241,-1.75 L 60.5,22.5 60.236772,57.48647 c -0.251307,33.401987 -0.174482,35.106508 1.696367,37.636966 1.077778,1.457773 1.683731,2.926361 1.346562,3.26353 C 62.942532,98.724135 56.666667,99 49.333333,99 38.674877,99 36,98.723641 36,97.622445 Z m 68,0 C 104,96.864789 104.675,95.684689 105.5,95 106.77747,93.939797 107,88.895703 107,61 107,33.104297 106.77747,28.060203 105.5,27 104.675,26.315311 104,25.135211 104,24.377555 104,23.280951 106.54936,23 116.5,23 c 9.95064,0 12.5,0.280951 12.5,1.377555 0,0.757656 -0.675,1.937756 -1.5,2.622445 -2.24955,1.866957 -2.24955,66.133043 0,68 0.825,0.684689 1.5,1.864789 1.5,2.622445 C 129,98.719049 126.45064,99 116.5,99 106.54936,99 104,98.719049 104,97.622445 Z m 40,-0.01546 c 0,-0.766156 0.675,-1.652033 1.5,-1.968615 1.29192,-0.495755 1.5,-5.2102 1.5,-33.984544 C 147,33.176945 146.77856,28.06111 145.5,27 144.675,26.315311 144,25.135211 144,24.377555 144,23.268948 146.91701,23 158.94098,23 c 14.73553,0 17.79595,0.66307 15.17189,3.287132 -2.29311,2.293104 -0.89375,6.503097 7.03185,21.155432 9.38399,17.348535 11.77986,21.035397 12.92174,19.884481 1.89453,-1.909542 20.12712,-35.044966 20.60897,-37.454201 0.28933,-1.446656 0.0307,-2.936417 -0.57469,-3.310581 C 213.49533,26.1881 213,25.233524 213,24.440983 213,23.250383 215.60637,23 228,23 c 8.25,0 15,0.302067 15,0.671259 0,0.369193 -0.7875,1.541437 -1.75,2.604988 C 239.65823,28.035134 239.5,31.17473 239.5,61 c 0,29.840824 0.15759,32.964165 1.75218,34.726164 0.9637,1.064876 1.4512,2.237121 1.08334,2.604988 -0.8729,0.872897 -23.79814,0.872897 -24.67104,0 -0.36786,-0.367867 0.11964,-1.538817 1.08334,-2.602111 1.50109,-1.656221 1.79752,-4.45039 2.0686,-19.49845 C 221.12592,59.049445 220.7548,54 219.18253,54 c -0.42865,0 -6.58935,9.906075 -13.69045,22.0135 -7.10109,12.107424 -13.37931,21.859374 -13.95158,21.670999 -0.57228,-0.188375 -6.55273,-10.20686 -13.2899,-22.2633 -6.73717,-12.05644 -12.69967,-22.07089 -13.25,-22.254333 C 164.35543,52.951809 164,59.91931 164,72.781808 c 0,18.323564 0.16024,20.15219 1.96725,22.449422 1.08198,1.37552 1.68198,2.786207 1.33333,3.134858 C 166.95193,98.71474 161.56667,99 155.33333,99 146.31279,99 144,98.715729 144,97.606989 Z m 302,0.515456 C 446,97.639789 446.675,96.684689 447.5,96 448.77831,94.9391 449,89.840147 449,61.5 449,33.159853 448.77831,28.0609 447.5,27 446.675,26.315311 446,25.135211 446,24.377555 446,23.281944 448.52426,23 458.33333,23 c 6.78334,0 12.63745,0.304116 13.00915,0.675813 0.3717,0.371697 -0.24367,1.654556 -1.36748,2.850799 -1.85082,1.970108 -2.01653,3.248758 -1.75915,13.574187 L 468.5,51.5 h 20.5 20.5 l 0.28415,-11.399201 C 510.04153,29.77537 509.87582,28.49672 508.025,26.526612 506.90119,25.330369 506.28582,24.04751 506.65752,23.675813 507.02922,23.304116 512.88333,23 519.66667,23 529.47574,23 532,23.281944 532,24.377555 c 0,0.757656 -0.675,1.937756 -1.5,2.622445 -1.27831,1.0609 -1.5,6.159853 -1.5,34.5 0,28.340147 0.22169,33.4391 1.5,34.5 0.825,0.684689 1.5,1.639789 1.5,2.122445 0,1.01824 -24.33228,1.21194 -25.34248,0.201742 -0.3717,-0.371697 0.24185,-1.652615 1.36343,-2.846485 1.87562,-1.996504 2.01676,-3.246127 1.75914,-15.574187 L 509.5,66.5 H 489 468.5 l -0.28009,13.403515 c -0.25762,12.32806 -0.11648,13.577683 1.75914,15.574187 1.12158,1.19387 1.73513,2.474788 1.36343,2.846485 C 470.33228,99.334385 446,99.140685 446,98.122445 Z m 298,-0.5 c 0,-0.757656 0.6819,-1.943486 1.51534,-2.635179 1.29998,-1.078882 1.47764,-5.25348 1.25,-29.372445 L 746.5,37.5 735.54422,37.214081 c -9.62674,-0.251235 -11.28103,-0.04545 -13.63697,1.696367 -1.47465,1.090258 -2.95705,1.706422 -3.29422,1.369253 -0.95471,-0.954713 -0.72044,-20.095283 0.25332,-20.697103 0.4765,-0.294489 1.67124,0.353953 2.65499,1.440983 C 723.23442,22.916513 724.71197,23 756.5,23 c 31.78803,0 33.26558,-0.08349 34.97866,-1.976419 0.98375,-1.08703 2.17849,-1.735472 2.65499,-1.440983 0.97376,0.60182 1.20803,19.74239 0.25332,20.697103 -0.33717,0.337169 -1.81957,-0.278995 -3.29422,-1.369253 -2.35594,-1.741817 -4.01023,-1.947602 -13.63697,-1.696367 L 766.5,37.5 766.23466,65.614821 c -0.22764,24.118965 -0.05,28.293563 1.25,29.372445 C 768.3181,95.678959 769,96.864789 769,97.622445 769,98.719049 766.45064,99 756.5,99 746.54936,99 744,98.719049 744,97.622445 Z"
       id="path853"
       inkscape:connector-curvature="0" />
    <path
       style="fill:#767676"
       d="M 330.13922,100.96673 C 327.8896,99.092612 326.11198,99 292.38922,99 272.92515,99 257,98.733478 257,98.407729 c 0,-0.325749 0.9,-1.736435 2,-3.134858 1.90456,-2.421254 2,-4.056784 2,-34.272871 0,-30.039982 -0.1048,-31.86351 -1.96725,-34.23123 -1.08198,-1.37552 -1.68198,-2.786207 -1.33333,-3.134858 C 258.04807,23.28526 273.71359,23 292.51168,23 c 32.90835,0 34.2456,-0.07432 35.98832,-2 0.99549,-1.1 2.19023,-2 2.65499,-2 0.46475,0 0.84501,4.95 0.84501,11 0,6.05 -0.38026,11 -0.84501,11 -0.46476,0 -1.6595,-0.9 -2.65499,-2 -1.71151,-1.891198 -3.07997,-2 -25.15499,-2 H 280 v 8 8 h 14.87756 C 306.8821,53 309.99551,52.710334 311,51.5 c 0.68469,-0.825 1.86479,-1.5 2.62244,-1.5 1.0777,0 1.37756,2.163936 1.37756,9.940983 0,5.467541 -0.38986,10.181929 -0.86635,10.476419 -0.4765,0.294489 -1.67124,-0.353953 -2.65499,-1.440983 C 309.85016,67.176943 308.36099,67 294.84501,67 H 280 v 9 9 h 24.18555 c 23.62056,0 24.24084,-0.05195 26.55267,-2.223795 2.00717,-1.885635 2.50885,-1.999683 3.29914,-0.75 1.03297,1.63343 1.31291,16.897427 0.35565,19.392005 -0.77498,2.01957 -1.3625,1.95721 -4.25379,-0.45148 z m 289,-0.002 C 616.89056,99.093308 615.09757,99 581.38922,99 561.92515,99 546,98.619744 546,98.154988 c 0,-0.464757 0.9,-1.659502 2,-2.654988 1.9223,-1.739658 2,-3.079967 2,-34.5 0,-31.290022 -0.0846,-32.766626 -1.97642,-34.478659 -1.08703,-0.983749 -1.73547,-2.178494 -1.44098,-2.654988 C 546.87709,23.389859 562.61648,23 581.55902,23 c 33.31327,0 34.50766,-0.06668 36.47745,-2.036475 1.12007,-1.12006 2.47007,-1.768503 3,-1.440983 1.34476,0.831106 1.24302,20.186687 -0.1105,21.02321 -0.59071,0.365082 -2.09141,-0.291999 -3.33488,-1.460181 -2.18773,-2.055264 -3.00207,-2.115258 -25.17598,-1.854768 L 569.5,37.5 v 7.5 7.5 l 14.60605,0.275909 c 12.10944,0.228747 14.82252,0.01508 15.87245,-1.25 C 600.67501,50.686659 601.86479,50 602.62244,50 603.69912,50 604,52.147722 604,59.833333 c 0,5.408334 -0.30412,10.13745 -0.67581,10.509147 -0.3717,0.371697 -1.65181,-0.241085 -2.84469,-1.361738 -2.0069,-1.885384 -3.24467,-2.016759 -16.57419,-1.759146 L 569.5,67.5 v 8.5 8.5 l 24.5,0.277432 c 24.15133,0.273484 24.52547,0.246301 26.28992,-1.910082 1.19118,-1.455778 2.12384,-1.853595 2.78816,-1.189267 1.28941,1.289403 0.75779,20.560517 -0.57808,20.955377 -0.55,0.16257 -2.06235,-0.58846 -3.36078,-1.66894 z m 89,0 C 705.89056,99.093308 704.09757,99 670.38922,99 650.92515,99 635,98.619744 635,98.154988 c 0,-0.464757 0.9,-1.659502 2,-2.654988 1.9223,-1.739658 2,-3.079967 2,-34.5 0,-31.290022 -0.0846,-32.766626 -1.97642,-34.478659 -1.08703,-0.983749 -1.73547,-2.178494 -1.44098,-2.654988 C 635.87709,23.389859 651.59895,23 670.52006,23 c 34.32735,0 34.40655,-0.0049 36.48574,-2.236601 3.06275,-3.28748 3.9606,-1.047289 3.97889,9.927584 0.0168,10.075071 -0.84735,11.72612 -4.3936,8.394588 -2.18773,-2.055264 -3.00207,-2.115258 -25.17598,-1.854768 L 658.5,37.5 658.20794,45.25 657.91587,53 h 14.91962 C 684.87742,53 687.99522,52.710681 689,51.5 689.68469,50.675 690.86479,50 691.62244,50 692.69912,50 693,52.147722 693,59.833333 c 0,5.408334 -0.30412,10.13745 -0.67581,10.509147 -0.3717,0.371697 -1.65181,-0.241085 -2.84469,-1.361738 -2.0069,-1.885384 -3.24467,-2.016759 -16.57419,-1.759146 L 658.5,67.5 v 8.5 8.5 l 24.23226,0.267738 c 23.5293,0.259972 24.2937,0.206304 26.35,-1.85 1.31877,-1.318769 2.47169,-1.763793 3.0559,-1.179574 1.24028,1.240277 0.65164,20.514056 -0.63816,20.895296 -0.55,0.16257 -2.06235,-0.58846 -3.36078,-1.66894 z M 379.53892,98.887653 C 372.01801,97.791942 364.35286,95.573081 357.27444,92.442666 354.23663,91.0992 350.40899,90 348.76858,90 c -1.99415,0 -2.81182,-0.414244 -2.46736,-1.25 4.53547,-11.004132 8.1457,-18.75 8.73908,-18.75 0.40858,0 1.02209,1.112465 1.36335,2.472144 0.8578,3.417748 6.7087,7.143471 15.59635,9.93142 13.52362,4.242195 25.63219,4.237463 34.59047,-0.01352 6.88272,-3.266063 9.67209,-11.970545 5.15953,-16.100795 -3.05686,-2.797881 -3.83519,-2.973026 -23.28696,-5.240145 -20.13641,-2.346915 -26.05648,-4.058858 -31.93755,-9.235581 -5.78537,-5.092487 -7.96179,-10.789371 -7.29508,-19.095212 0.63319,-7.888157 3.46733,-13.517305 9.15014,-18.173942 C 366.0539,8.2566368 372.42292,6.5363513 388,6.5440973 c 13.36743,0.00665 13.62275,0.049715 26,4.3856917 6.875,2.408438 13.5125,4.314546 14.75,4.235796 1.2375,-0.07875 2.25,0.311766 2.25,0.867814 0,0.804329 -7.60143,16.74071 -8.45148,17.718502 -0.12044,0.138546 -2.03899,-1.479427 -4.26344,-3.595496 -11.65212,-11.084392 -39.91945,-13.722038 -49.06335,-4.578139 -2.80132,2.801322 -3.29596,3.959088 -3.03433,7.10216 0.42164,5.065089 4.63588,7.89592 13.06524,8.7763 31.87849,3.329457 38.68696,5.184119 45.81288,12.479663 5.4765,5.606852 7.47655,11.522491 6.63909,19.636713 -1.43191,13.873853 -12.51697,22.625317 -32.11028,25.350495 -8.70497,1.210753 -11.53296,1.205683 -20.05541,-0.03594 z M 104,97.622445 C 104,96.864789 104.675,95.684689 105.5,95 106.77747,93.939797 107,88.895703 107,61 107,33.104297 106.77747,28.060203 105.5,27 104.675,26.315311 104,25.135211 104,24.377555 104,23.280951 106.54936,23 116.5,23 c 9.95064,0 12.5,0.280951 12.5,1.377555 0,0.757656 -0.675,1.937756 -1.5,2.622445 -2.24955,1.866957 -2.24955,66.133043 0,68 0.825,0.684689 1.5,1.864789 1.5,2.622445 C 129,98.719049 126.45064,99 116.5,99 106.54936,99 104,98.719049 104,97.622445 Z m 40,-0.01546 c 0,-0.766156 0.675,-1.652033 1.5,-1.968615 1.29192,-0.495755 1.5,-5.2102 1.5,-33.984544 C 147,33.176945 146.77856,28.06111 145.5,27 144.675,26.315311 144,25.135211 144,24.377555 144,23.268948 146.91701,23 158.94098,23 c 14.73553,0 17.79595,0.66307 15.17189,3.287132 -2.29311,2.293104 -0.89375,6.503097 7.03185,21.155432 9.38399,17.348535 11.77986,21.035397 12.92174,19.884481 1.89453,-1.909542 20.12712,-35.044966 20.60897,-37.454201 0.28933,-1.446656 0.0307,-2.936417 -0.57469,-3.310581 C 213.49533,26.1881 213,25.233524 213,24.440983 213,23.250383 215.60637,23 228,23 c 8.25,0 15,0.302067 15,0.671259 0,0.369193 -0.7875,1.541437 -1.75,2.604988 C 239.65823,28.035134 239.5,31.17473 239.5,61 c 0,29.840824 0.15759,32.964165 1.75218,34.726164 0.9637,1.064876 1.4512,2.237121 1.08334,2.604988 -0.8729,0.872897 -23.79814,0.872897 -24.67104,0 -0.36786,-0.367867 0.11964,-1.538817 1.08334,-2.602111 1.50109,-1.656221 1.79752,-4.45039 2.0686,-19.49845 C 221.12592,59.049445 220.7548,54 219.18253,54 c -0.42865,0 -6.58935,9.906075 -13.69045,22.0135 -7.10109,12.107424 -13.37931,21.859374 -13.95158,21.670999 -0.57228,-0.188375 -6.55273,-10.20686 -13.2899,-22.2633 -6.73717,-12.05644 -12.69967,-22.07089 -13.25,-22.254333 C 164.35543,52.951809 164,59.91931 164,72.781808 c 0,18.323564 0.16024,20.15219 1.96725,22.449422 1.08198,1.37552 1.68198,2.786207 1.33333,3.134858 C 166.95193,98.71474 161.56667,99 155.33333,99 146.31279,99 144,98.715729 144,97.606989 Z m 302,0.515456 C 446,97.639789 446.675,96.684689 447.5,96 448.77831,94.9391 449,89.840147 449,61.5 449,33.159853 448.77831,28.0609 447.5,27 446.675,26.315311 446,25.135211 446,24.377555 446,23.281944 448.52426,23 458.33333,23 c 6.78334,0 12.63745,0.304116 13.00915,0.675813 0.3717,0.371697 -0.24367,1.654556 -1.36748,2.850799 -1.85082,1.970108 -2.01653,3.248758 -1.75915,13.574187 L 468.5,51.5 h 20.5 20.5 l 0.28415,-11.399201 C 510.04153,29.77537 509.87582,28.49672 508.025,26.526612 506.90119,25.330369 506.28582,24.04751 506.65752,23.675813 507.02922,23.304116 512.88333,23 519.66667,23 529.47574,23 532,23.281944 532,24.377555 c 0,0.757656 -0.675,1.937756 -1.5,2.622445 -1.27831,1.0609 -1.5,6.159853 -1.5,34.5 0,28.340147 0.22169,33.4391 1.5,34.5 0.825,0.684689 1.5,1.639789 1.5,2.122445 0,1.01824 -24.33228,1.21194 -25.34248,0.201742 -0.3717,-0.371697 0.24185,-1.652615 1.36343,-2.846485 1.87562,-1.996504 2.01676,-3.246127 1.75914,-15.574187 L 509.5,66.5 H 489 468.5 l -0.28009,13.403515 c -0.25762,12.32806 -0.11648,13.577683 1.75914,15.574187 1.12158,1.19387 1.73513,2.474788 1.36343,2.846485 C 470.33228,99.334385 446,99.140685 446,98.122445 Z m 298,-0.5 c 0,-0.757656 0.6819,-1.943486 1.51534,-2.635179 1.29998,-1.078882 1.47764,-5.25348 1.25,-29.372445 L 746.5,37.5 735.54422,37.214081 c -9.62674,-0.251235 -11.28103,-0.04545 -13.63697,1.696367 -1.47465,1.090258 -2.95705,1.706422 -3.29422,1.369253 -0.95471,-0.954713 -0.72044,-20.095283 0.25332,-20.697103 0.4765,-0.294489 1.67124,0.353953 2.65499,1.440983 C 723.23442,22.916513 724.71197,23 756.5,23 c 31.78803,0 33.26558,-0.08349 34.97866,-1.976419 0.98375,-1.08703 2.17849,-1.735472 2.65499,-1.440983 0.97376,0.60182 1.20803,19.74239 0.25332,20.697103 -0.33717,0.337169 -1.81957,-0.278995 -3.29422,-1.369253 -2.35594,-1.741817 -4.01023,-1.947602 -13.63697,-1.696367 L 766.5,37.5 766.23466,65.614821 c -0.22764,24.118965 -0.05,28.293563 1.25,29.372445 C 768.3181,95.678959 769,96.864789 769,97.622445 769,98.719049 766.45064,99 756.5,99 746.54936,99 744,98.719049 744,97.622445 Z M 38,97.2 c 0,-0.44 0.455702,-1.255702 1.012672,-1.812672 0.656314,-0.656314 0.920238,-13.834904 0.75,-37.45 L 39.5,21.5 24.61644,21.222502 C 12.515417,20.996883 9.2904651,21.234885 7.3664399,22.495555 L 5,24.046106 V 13.868065 3.6900249 L 7.1037165,5.5950124 C 9.0816879,7.3861335 11.471187,7.5176278 47.080063,7.7949134 83.844328,8.081196 93,7.5162517 93,4.9614559 93,4.4326552 93.45,4 94,4 c 0.6,0 1,4 1,10 0,9.886879 -0.555463,11.445487 -3.020472,8.475333 -1.053941,-1.269922 -3.873038,-1.478775 -16.872445,-1.25 L 59.5,21.5 59.2372,57.405992 c -0.226223,30.908433 -0.04903,36.232241 1.273053,38.25 L 62.046106,98 H 50.023053 C 43.410374,98 38,97.64 38,97.2 Z"
       id="path851"
       inkscape:connector-curvature="0" />
    <path
       style="fill:#800000"
       d="m 330.63445,100.20462 c -1.52923,-1.530346 -5.33282,-1.735067 -37.20389,-2.002432 l -35.5005,-0.297812 2.03497,-2.587047 C 261.91455,92.838919 262,91.39785 262,61 262,30.413523 261.92529,29.174737 259.92742,26.634859 L 257.85484,24 h 34.41759 c 33.01072,0 34.49071,-0.08079 36.20623,-1.976419 0.98375,-1.08703 2.17849,-1.735472 2.65499,-1.440983 0.97444,0.602241 1.20669,17.743733 0.25332,18.697103 -0.33717,0.337169 -1.80949,-0.271543 -3.27183,-1.352692 -2.48917,-1.840323 -4.12467,-1.948543 -25.63696,-1.696368 L 279.5,36.5 v 8.5 8.5 l 15.10658,0.275273 c 12.55444,0.228768 15.32044,0.01759 16.37244,-1.25 C 313.40828,49.598198 314,51.062272 314,60 c 0,4.95 -0.24083,9 -0.53518,9 -0.29435,0 -1.58478,-0.687719 -2.86761,-1.528264 -1.87546,-1.228846 -5.15023,-1.473747 -16.71482,-1.25 L 279.5,66.5 v 9.5 9.5 l 24.74484,0.267458 c 23.54383,0.254477 24.82655,0.172026 26.42838,-1.698773 0.92594,-1.081427 2.05327,-1.737725 2.50516,-1.458441 1.07811,0.66631 1.06931,18.118636 -0.009,18.785366 -0.4571,0.2825 -1.59761,-0.25344 -2.53446,-1.19099 z M 621,101.09783 C 621,98.585543 613.37814,98 580.67646,98 h -34.02509 l 2.17432,-2.314451 C 550.96621,93.40707 551,92.864988 551,60.807993 551,33.082963 550.77714,28.05993 549.5,27 548.675,26.315311 548,25.360211 548,24.877555 548,24.391452 563.08118,24 581.80887,24 c 28.17876,0 34.13212,-0.244495 35.75,-1.468197 1.06762,-0.807508 2.27863,-1.482508 2.69113,-1.5 C 620.6625,21.014312 621,25.275 621,30.5 c 0,5.225 -0.24382,9.5 -0.54181,9.5 -0.298,0 -1.51636,-0.907924 -2.70747,-2.017609 -2.06299,-1.92197 -3.28162,-2.004924 -25.70818,-1.75 L 568.5,36.5 v 8.5 8.5 l 15.15305,0.275524 c 12.50904,0.227448 15.41923,0.0093 16.67857,-1.25 C 601.17066,51.686486 602.11429,51 602.42857,51 602.74286,51 603,55.05 603,60 c 0,8.937728 -0.59172,10.401802 -3.02098,7.474727 -1.052,-1.26759 -3.818,-1.478768 -16.37244,-1.25 L 568.5,66.5 v 9.5 9.5 l 24.39788,0.268114 c 20.45257,0.224758 24.77255,0.02262 26.71482,-1.25 C 620.88701,83.683151 622.17047,83 622.46482,83 622.75917,83 623,87.275 623,92.5 c 0,5.666667 -0.40351,9.5 -1,9.5 -0.55,0 -1,-0.40598 -1,-0.90217 z m 89,-0.0508 c 0,-2.365243 -9.00434,-3.036098 -40.82258,-3.041423 L 635.85484,98 637.92742,95.365141 C 639.92511,92.825487 640,91.58582 640,61.056271 640,34.754609 639.75097,29.053017 638.5318,27.44113 637.7243,26.373508 637.0493,25.1625 637.0318,24.75 637.0143,24.3375 652.21399,24 670.80887,24 c 28.17876,0 34.13212,-0.244495 35.75,-1.468197 1.06762,-0.807508 2.27863,-1.482508 2.69113,-1.5 0.93274,-0.03955 1.00333,17.381536 0.0742,18.310677 -0.3717,0.371697 -1.64723,-0.23678 -2.83451,-1.352171 -2.05988,-1.935161 -3.23042,-2.015678 -25.57418,-1.759146 L 657.5,36.5 v 8.5 8.5 l 15.15305,0.275524 c 12.50904,0.227448 15.41923,0.0093 16.67857,-1.25 C 690.17066,51.686486 691.11429,51 691.42857,51 691.74286,51 692,55.05 692,60 c 0,8.937728 -0.59172,10.401802 -3.02098,7.474727 -1.052,-1.26759 -3.818,-1.478768 -16.37244,-1.25 L 657.5,66.5 v 9.5 9.5 l 24.39788,0.268114 c 20.45257,0.224758 24.77255,0.02262 26.71482,-1.25 C 709.88701,83.683151 711.17047,83 711.46482,83 711.75917,83 712,87.275 712,92.5 c 0,5.666667 -0.40351,9.5 -1,9.5 -0.55,0 -1,-0.42885 -1,-0.953 z M 379.53892,98.887653 C 372.01801,97.791942 364.35286,95.573081 357.27444,92.442666 354.23663,91.0992 350.40899,90 348.76858,90 c -1.99415,0 -2.81182,-0.414244 -2.46736,-1.25 4.53547,-11.004132 8.1457,-18.75 8.73908,-18.75 0.40858,0 1.02209,1.112465 1.36335,2.472144 0.8578,3.417748 6.7087,7.143471 15.59635,9.93142 13.52362,4.242195 25.63219,4.237463 34.59047,-0.01352 6.88272,-3.266063 9.67209,-11.970545 5.15953,-16.100795 -3.05686,-2.797881 -3.83519,-2.973026 -23.28696,-5.240145 -20.13641,-2.346915 -26.05648,-4.058858 -31.93755,-9.235581 -5.78537,-5.092487 -7.96179,-10.789371 -7.29508,-19.095212 0.63319,-7.888157 3.46733,-13.517305 9.15014,-18.173942 C 366.0539,8.2566368 372.42292,6.5363513 388,6.5440973 c 13.36743,0.00665 13.62275,0.049715 26,4.3856917 6.875,2.408438 13.5125,4.314546 14.75,4.235796 1.2375,-0.07875 2.25,0.311766 2.25,0.867814 0,0.804329 -7.60143,16.74071 -8.45148,17.718502 -0.12044,0.138546 -2.03899,-1.479427 -4.26344,-3.595496 -11.65212,-11.084392 -39.91945,-13.722038 -49.06335,-4.578139 -2.80132,2.801322 -3.29596,3.959088 -3.03433,7.10216 0.42164,5.065089 4.63588,7.89592 13.06524,8.7763 31.87849,3.329457 38.68696,5.184119 45.81288,12.479663 5.4765,5.606852 7.47655,11.522491 6.63909,19.636713 -1.43191,13.873853 -12.51697,22.625317 -32.11028,25.350495 -8.70497,1.210753 -11.53296,1.205683 -20.05541,-0.03594 z M 38,97.2 c 0,-0.44 0.455702,-1.255702 1.012672,-1.812672 0.656314,-0.656314 0.920238,-13.834904 0.75,-37.45 L 39.5,21.5 24.61644,21.222502 C 12.515417,20.996883 9.2904651,21.234885 7.3664399,22.495555 L 5,24.046106 V 13.868065 3.6900249 L 7.1037165,5.5950124 C 9.0816879,7.3861335 11.471187,7.5176278 47.080063,7.7949134 83.844328,8.081196 93,7.5162517 93,4.9614559 93,4.4326552 93.45,4 94,4 c 0.6,0 1,4 1,10 0,9.886879 -0.555463,11.445487 -3.020472,8.475333 -1.053941,-1.269922 -3.873038,-1.478775 -16.872445,-1.25 L 59.5,21.5 59.2372,57.405992 c -0.226223,30.908433 -0.04903,36.232241 1.273053,38.25 L 62.046106,98 H 50.023053 C 43.410374,98 38,97.64 38,97.2 Z m 67,0.228571 c 0,-0.314285 0.675,-1.246428 1.5,-2.071428 2.24753,-2.247528 2.24753,-66.49186 0,-68.357143 -2.99761,-2.487795 -1.29026,-3 10,-3 11.29026,0 12.99761,0.512205 10,3 -1.27755,1.060275 -1.5,6.109965 -1.5,34.051016 0,27.827668 0.22763,33.033758 1.5,34.306127 0.825,0.825 1.5,1.757143 1.5,2.071428 C 128,97.742857 122.825,98 116.5,98 110.175,98 105,97.742857 105,97.428571 Z m 41.4433,-1.651077 C 148.7368,92.503056 148.78924,28.8999 146.5,27 145.675,26.315311 145,25.360211 145,24.877555 145,24.3949 151.54083,24 159.53518,24 c 14.06064,0 14.50139,0.06315 13.5,1.934259 -0.56935,1.063842 -1.02832,2.976342 -1.01994,4.25 0.0203,3.079201 19.49079,38.315741 21.172,38.315741 1.20376,0 12.17288,-18.18017 20.05089,-33.232273 2.79372,-5.33781 3.08247,-6.519913 2.01187,-8.236432 C 214.5625,25.929009 214,24.796032 214,24.513569 214,24.231106 220.36974,24 228.15499,24 h 14.15499 l -1.90499,2.104988 C 238.6132,28.084891 238.5,30.158441 238.5,61 c 0,30.841559 0.1132,32.915109 1.90499,34.895012 L 242.30998,98 H 230.65499 C 220.06017,98 217.08458,97.301831 220,95.5 221.34216,94.670497 221.3528,53.336078 220.0111,52.506839 218.85526,51.792514 217.07303,54.54871 203,78.814192 197.225,88.771759 192.20686,96.937116 191.84857,96.95943 191.49029,96.981743 186.12841,87.8875 179.93329,76.75 167.17828,53.819242 165.22434,50.743318 163.92353,51.547259 163.40802,51.865865 163,61.064438 163,72.367887 c 0,16.256839 0.28951,20.63262 1.4682,22.190983 0.8075,1.067622 1.4825,2.27863 1.5,2.69113 0.0175,0.4125 -4.71872,0.75 -10.5249,0.75 h -10.55671 z m 301.90171,0.393765 C 449.81483,94.547129 450,90.639105 450,61.242688 450,33.153949 449.77291,27.915767 448.5,26.642857 447.675,25.817857 447,24.885714 447,24.571429 447,24.257143 452.175,24 458.5,24 c 6.325,0 11.5,0.240832 11.5,0.535183 0,0.294351 -0.69026,1.588652 -1.53391,2.876224 -1.20025,1.831811 -1.47215,4.815098 -1.25,13.714817 L 467.5,52.5 h 21.5 21.5 l 0.28391,-11.373776 c 0.22215,-8.899719 -0.0498,-11.883006 -1.25,-13.714817 C 508.69026,26.123835 508,24.829534 508,24.535183 508,24.240832 513.175,24 519.5,24 c 6.325,0 11.5,0.257143 11.5,0.571429 0,0.314285 -0.675,1.246428 -1.5,2.071428 -1.27291,1.27291 -1.5,6.511092 -1.5,34.599831 0,29.396417 0.18517,33.304441 1.65499,34.928571 C 531.24932,97.932975 530.88281,98 519.65499,98 513.24474,98 508,97.6051 508,97.122445 c 0,-0.482656 0.68696,-1.447681 1.52658,-2.1445 1.26238,-1.04769 1.47871,-3.708021 1.25,-15.372445 L 510.5,65.5 H 489 467.5 l -0.27993,13.379849 c -0.22336,10.676122 0.0292,13.851687 1.25,15.714817 C 469.31153,95.878898 470,97.170466 470,97.464817 470,97.759168 464.75526,98 458.34501,98 c -11.22782,0 -11.59433,-0.06703 -10,-1.828741 z M 745,97.428571 c 0,-0.314285 0.68184,-1.253265 1.51519,-2.086621 1.29598,-1.295978 1.47683,-5.662161 1.25,-30.178572 L 747.5,36.5 736.12622,36.216091 c -8.89972,-0.222152 -11.883,0.04975 -13.71481,1.25 C 721.12383,38.309741 719.82953,39 719.53518,39 719.24083,39 719,34.95 719,30 c 0,-8.917377 0.5931,-10.400134 3,-7.5 1.86743,2.250112 67.13257,2.250112 69,0 2.4069,-2.900134 3,-1.417377 3,7.5 0,4.95 -0.24083,9 -0.53518,9 -0.29435,0 -1.58865,-0.690259 -2.87623,-1.533909 -1.83181,-1.200248 -4.81509,-1.472152 -13.71481,-1.25 L 765.5,36.5 765.23481,65.163378 c -0.22683,24.516411 -0.046,28.882594 1.25,30.178572 C 767.31816,96.175306 768,97.114286 768,97.428571 768,97.742857 762.825,98 756.5,98 750.175,98 745,97.742857 745,97.428571 Z"
       id="path849"
       inkscape:connector-curvature="0" />
    <path
       style="fill:#4c4c4c"
       d="m 330.63445,100.20462 c -1.52923,-1.530346 -5.33282,-1.735067 -37.20389,-2.002432 l -35.5005,-0.297812 2.03497,-2.587047 C 261.91455,92.838919 262,91.39785 262,61 262,30.413523 261.92529,29.174737 259.92742,26.634859 L 257.85484,24 h 34.41759 c 33.01072,0 34.49071,-0.08079 36.20623,-1.976419 0.98375,-1.08703 2.17849,-1.735472 2.65499,-1.440983 0.97444,0.602241 1.20669,17.743733 0.25332,18.697103 -0.33717,0.337169 -1.80949,-0.271543 -3.27183,-1.352692 -2.48917,-1.840323 -4.12467,-1.948543 -25.63696,-1.696368 L 279.5,36.5 v 8.5 8.5 l 15.10658,0.275273 c 12.55444,0.228768 15.32044,0.01759 16.37244,-1.25 C 313.40828,49.598198 314,51.062272 314,60 c 0,4.95 -0.24083,9 -0.53518,9 -0.29435,0 -1.58478,-0.687719 -2.86761,-1.528264 -1.87546,-1.228846 -5.15023,-1.473747 -16.71482,-1.25 L 279.5,66.5 v 9.5 9.5 l 24.74484,0.267458 c 23.54383,0.254477 24.82655,0.172026 26.42838,-1.698773 0.92594,-1.081427 2.05327,-1.737725 2.50516,-1.458441 1.07811,0.66631 1.06931,18.118636 -0.009,18.785366 -0.4571,0.2825 -1.59761,-0.25344 -2.53446,-1.19099 z M 621,101.09783 C 621,98.585543 613.37814,98 580.67646,98 h -34.02509 l 2.17432,-2.314451 C 550.96621,93.40707 551,92.864988 551,60.807993 551,33.082963 550.77714,28.05993 549.5,27 548.675,26.315311 548,25.360211 548,24.877555 548,24.391452 563.08118,24 581.80887,24 c 28.17876,0 34.13212,-0.244495 35.75,-1.468197 1.06762,-0.807508 2.27863,-1.482508 2.69113,-1.5 C 620.6625,21.014312 621,25.275 621,30.5 c 0,5.225 -0.24382,9.5 -0.54181,9.5 -0.298,0 -1.51636,-0.907924 -2.70747,-2.017609 -2.06299,-1.92197 -3.28162,-2.004924 -25.70818,-1.75 L 568.5,36.5 v 8.5 8.5 l 15.15305,0.275524 c 12.50904,0.227448 15.41923,0.0093 16.67857,-1.25 C 601.17066,51.686486 602.11429,51 602.42857,51 602.74286,51 603,55.05 603,60 c 0,8.937728 -0.59172,10.401802 -3.02098,7.474727 -1.052,-1.26759 -3.818,-1.478768 -16.37244,-1.25 L 568.5,66.5 v 9.5 9.5 l 24.39788,0.268114 c 20.45257,0.224758 24.77255,0.02262 26.71482,-1.25 C 620.88701,83.683151 622.17047,83 622.46482,83 622.75917,83 623,87.275 623,92.5 c 0,5.666667 -0.40351,9.5 -1,9.5 -0.55,0 -1,-0.40598 -1,-0.90217 z m 89,-0.0508 c 0,-2.365243 -9.00434,-3.036098 -40.82258,-3.041423 L 635.85484,98 637.92742,95.365141 C 639.92511,92.825487 640,91.58582 640,61.056271 640,34.754609 639.75097,29.053017 638.5318,27.44113 637.7243,26.373508 637.0493,25.1625 637.0318,24.75 637.0143,24.3375 652.21399,24 670.80887,24 c 28.17876,0 34.13212,-0.244495 35.75,-1.468197 1.06762,-0.807508 2.27863,-1.482508 2.69113,-1.5 0.93274,-0.03955 1.00333,17.381536 0.0742,18.310677 -0.3717,0.371697 -1.64723,-0.23678 -2.83451,-1.352171 -2.05988,-1.935161 -3.23042,-2.015678 -25.57418,-1.759146 L 657.5,36.5 v 8.5 8.5 l 15.15305,0.275524 c 12.50904,0.227448 15.41923,0.0093 16.67857,-1.25 C 690.17066,51.686486 691.11429,51 691.42857,51 691.74286,51 692,55.05 692,60 c 0,8.937728 -0.59172,10.401802 -3.02098,7.474727 -1.052,-1.26759 -3.818,-1.478768 -16.37244,-1.25 L 657.5,66.5 v 9.5 9.5 l 24.39788,0.268114 c 20.45257,0.224758 24.77255,0.02262 26.71482,-1.25 C 709.88701,83.683151 711.17047,83 711.46482,83 711.75917,83 712,87.275 712,92.5 c 0,5.666667 -0.40351,9.5 -1,9.5 -0.55,0 -1,-0.42885 -1,-0.953 z M 105,97.428571 c 0,-0.314285 0.675,-1.246428 1.5,-2.071428 2.24753,-2.247528 2.24753,-66.49186 0,-68.357143 -2.99761,-2.487795 -1.29026,-3 10,-3 11.29026,0 12.99761,0.512205 10,3 -1.27755,1.060275 -1.5,6.109965 -1.5,34.051016 0,27.827668 0.22763,33.033758 1.5,34.306127 0.825,0.825 1.5,1.757143 1.5,2.071428 C 128,97.742857 122.825,98 116.5,98 110.175,98 105,97.742857 105,97.428571 Z m 41.4433,-1.651077 C 148.7368,92.503056 148.78924,28.8999 146.5,27 145.675,26.315311 145,25.360211 145,24.877555 145,24.3949 151.54083,24 159.53518,24 c 14.06064,0 14.50139,0.06315 13.5,1.934259 -0.56935,1.063842 -1.02832,2.976342 -1.01994,4.25 0.0203,3.079201 19.49079,38.315741 21.172,38.315741 1.20376,0 12.17288,-18.18017 20.05089,-33.232273 2.79372,-5.33781 3.08247,-6.519913 2.01187,-8.236432 C 214.5625,25.929009 214,24.796032 214,24.513569 214,24.231106 220.36974,24 228.15499,24 h 14.15499 l -1.90499,2.104988 C 238.6132,28.084891 238.5,30.158441 238.5,61 c 0,30.841559 0.1132,32.915109 1.90499,34.895012 L 242.30998,98 H 230.65499 C 220.06017,98 217.08458,97.301831 220,95.5 221.34216,94.670497 221.3528,53.336078 220.0111,52.506839 218.85526,51.792514 217.07303,54.54871 203,78.814192 197.225,88.771759 192.20686,96.937116 191.84857,96.95943 191.49029,96.981743 186.12841,87.8875 179.93329,76.75 167.17828,53.819242 165.22434,50.743318 163.92353,51.547259 163.40802,51.865865 163,61.064438 163,72.367887 c 0,16.256839 0.28951,20.63262 1.4682,22.190983 0.8075,1.067622 1.4825,2.27863 1.5,2.69113 0.0175,0.4125 -4.71872,0.75 -10.5249,0.75 h -10.55671 z m 301.90171,0.393765 C 449.81483,94.547129 450,90.639105 450,61.242688 450,33.153949 449.77291,27.915767 448.5,26.642857 447.675,25.817857 447,24.885714 447,24.571429 447,24.257143 452.175,24 458.5,24 c 6.325,0 11.5,0.240832 11.5,0.535183 0,0.294351 -0.69026,1.588652 -1.53391,2.876224 -1.20025,1.831811 -1.47215,4.815098 -1.25,13.714817 L 467.5,52.5 h 21.5 21.5 l 0.28391,-11.373776 c 0.22215,-8.899719 -0.0498,-11.883006 -1.25,-13.714817 C 508.69026,26.123835 508,24.829534 508,24.535183 508,24.240832 513.175,24 519.5,24 c 6.325,0 11.5,0.257143 11.5,0.571429 0,0.314285 -0.675,1.246428 -1.5,2.071428 -1.27291,1.27291 -1.5,6.511092 -1.5,34.599831 0,29.396417 0.18517,33.304441 1.65499,34.928571 C 531.24932,97.932975 530.88281,98 519.65499,98 513.24474,98 508,97.6051 508,97.122445 c 0,-0.482656 0.68696,-1.447681 1.52658,-2.1445 1.26238,-1.04769 1.47871,-3.708021 1.25,-15.372445 L 510.5,65.5 H 489 467.5 l -0.27993,13.379849 c -0.22336,10.676122 0.0292,13.851687 1.25,15.714817 C 469.31153,95.878898 470,97.170466 470,97.464817 470,97.759168 464.75526,98 458.34501,98 c -11.22782,0 -11.59433,-0.06703 -10,-1.828741 z M 745,97.428571 c 0,-0.314285 0.68184,-1.253265 1.51519,-2.086621 1.29598,-1.295978 1.47683,-5.662161 1.25,-30.178572 L 747.5,36.5 736.12622,36.216091 c -8.89972,-0.222152 -11.883,0.04975 -13.71481,1.25 C 721.12383,38.309741 719.82953,39 719.53518,39 719.24083,39 719,34.95 719,30 c 0,-8.917377 0.5931,-10.400134 3,-7.5 1.86743,2.250112 67.13257,2.250112 69,0 2.4069,-2.900134 3,-1.417377 3,7.5 0,4.95 -0.24083,9 -0.53518,9 -0.29435,0 -1.58865,-0.690259 -2.87623,-1.533909 -1.83181,-1.200248 -4.81509,-1.472152 -13.71481,-1.25 L 765.5,36.5 765.23481,65.163378 c -0.22683,24.516411 -0.046,28.882594 1.25,30.178572 C 767.31816,96.175306 768,97.114286 768,97.428571 768,97.742857 762.825,98 756.5,98 750.175,98 745,97.742857 745,97.428571 Z"
       id="path847"
       inkscape:connector-curvature="0" />
    <path
       style="fill:#373737"
       d="m 331,98.983109 c -0.87393,-0.554938 -15.84388,-0.958875 -35.86663,-0.967796 L 260.76674,98 l 0.84605,-2.25 c 1.08283,-2.879708 1.15432,-65.515837 0.0781,-68.473779 l -0.80906,-2.223779 33.30906,-0.276221 C 312.51092,24.624299 328.2875,24.114355 329.25,23.643011 330.83414,22.867245 331,23.46974 331,30 c 0,6.526284 -0.16682,7.133278 -1.75,6.367426 -2.90028,-1.402994 -48.17716,-1.672771 -49.83494,-0.296936 -2.14363,1.779061 -2.00067,17.490814 0.16673,18.322521 2.69133,1.032761 29.43372,0.669053 31.48395,-0.428195 1.82842,-0.978542 1.93426,-0.64439 1.93426,6.106989 0,6.457827 -0.16768,7.061076 -1.75,6.295808 -2.89529,-1.400268 -30.19829,-1.655414 -31.83449,-0.297493 -1.82878,1.517751 -2.00813,17.937261 -0.21551,19.72988 1.59402,1.594018 47.9928,1.702367 50.95139,0.11898 1.11095,-0.594561 2.22717,-0.873753 2.4805,-0.620427 0.25332,0.253327 0.32728,3.650294 0.16435,7.548817 -0.25146,6.016777 -0.52298,6.944246 -1.79624,6.135739 z M 620.5,99 c -0.393,-0.635889 -13.37938,-1 -35.66601,-1 -33.03882,0 -34.99884,-0.10032 -34.19098,-1.75 1.29595,-2.646364 1.63194,-66.86773 0.36225,-69.240163 -1.02901,-1.922722 -0.45528,-1.962492 32.22354,-2.233706 18.29916,-0.151872 34.0587,-0.661776 35.0212,-1.13312 1.58779,-0.777553 1.75,-0.15738 1.75,6.690697 v 7.547686 l -2.75,-1.434536 C 613.59581,34.54065 570.07836,34.321637 568.2,36.2 c -0.72281,0.722807 -1.2,4.222222 -1.2,8.8 0,4.577778 0.47719,8.077193 1.2,8.8 1.52278,1.522783 29.06221,1.665223 31.86574,0.164816 C 601.89259,52.987118 602,53.318933 602,59.940065 v 7.010433 l -2.5651,-0.975249 C 595.62901,64.528253 569.68507,64.714933 568.2,66.2 c -1.62069,1.620693 -1.62069,17.979307 0,19.6 0.86688,0.866881 7.88389,1.2 25.27749,1.2 20.17355,0 24.43786,-0.252406 26.3,-1.556704 L 622,83.886592 v 8.056704 c 0,7.888578 -0.2523,9.075524 -1.5,7.056704 z m 89.19098,0.25 C 709.06915,98.28921 700.78215,98 673.8736,98 h -35.00838 l 0.81739,-2.25 c 1.08474,-2.985913 1.05745,-66.761395 -0.0295,-68.973689 -0.79169,-1.611328 1.32685,-1.7417 32.5,-2 18.34079,-0.151971 34.13439,-0.661956 35.09689,-1.1333 1.58779,-0.777553 1.75,-0.15738 1.75,6.690697 v 7.547686 l -2.75,-1.434536 C 702.59581,34.54065 659.07836,34.321637 657.2,36.2 c -0.72281,0.722807 -1.2,4.222222 -1.2,8.8 0,4.577778 0.47719,8.077193 1.2,8.8 1.52278,1.522783 29.06221,1.665223 31.86574,0.164816 1.82842,-0.978542 1.93426,-0.64439 1.93426,6.106989 0,6.457827 -0.16768,7.061076 -1.75,6.295808 -2.89529,-1.400268 -30.19829,-1.655414 -31.83449,-0.297493 -1.82878,1.517751 -2.00813,17.937261 -0.21551,19.72988 1.59402,1.594018 47.9928,1.702367 50.95139,0.11898 1.11095,-0.594561 2.22717,-0.873753 2.4805,-0.620427 0.25332,0.253327 0.32728,3.777286 0.16435,7.831021 -0.16966,4.221095 -0.64193,6.83631 -1.10526,6.120426 z m 37.95203,-3 c 1.42869,-2.917426 1.63014,-58.215949 0.21828,-59.917137 -0.95027,-1.145004 -3.60477,-1.377489 -12.78034,-1.119318 C 728.71143,35.392762 722.7125,35.916176 721.75,36.376686 720.16925,37.133 720,36.52903 720,30.13174 v -7.082238 l 2.5651,0.975249 c 3.3854,1.287129 64.4844,1.287129 67.8698,0 L 793,23.049502 v 7.082238 c 0,6.39729 -0.16925,7.00126 -1.75,6.244946 -0.9625,-0.46051 -6.96143,-0.983924 -13.33095,-1.163141 -9.17557,-0.258171 -11.83007,-0.02569 -12.78034,1.119318 -1.41186,1.701188 -1.21041,56.999711 0.21828,59.917137 0.78617,1.60538 0.0542,1.75 -8.85699,1.75 -8.91121,0 -9.64316,-0.14462 -8.85699,-1.75 z M 107.96482,95.065741 C 108.61678,93.847528 109,81.236699 109,61 109,40.763301 108.61678,28.152472 107.96482,26.934259 106.97488,25.084543 107.34794,25 116.5,25 c 9.15206,0 9.52512,0.08454 8.53518,1.934259 C 124.38322,28.152472 124,40.763301 124,61 c 0,20.236699 0.38322,32.847528 1.03518,34.065741 C 126.02512,96.915457 125.65206,97 116.5,97 c -9.15206,0 -9.52512,-0.08454 -8.53518,-1.934259 z m 40,0 c 1.40796,-2.630798 1.40796,-65.500684 0,-68.131482 C 146.96737,25.070508 147.37925,25 159.26402,25 h 12.33438 l -0.40671,3.483768 c -0.34061,2.917594 1.17327,6.371097 9.3152,21.25 10.60377,19.377782 11.451,20.612666 13.56557,19.772581 C 194.85761,69.194422 200.225,60.515387 206,50.219605 213.61763,36.638741 216.4794,30.607839 216.42497,28.25 l -0.075,-3.25 h 11.07502 11.07503 v 36 36 l -8.5,9.86e-4 -8.5,9.86e-4 0.30226,-23.000986 c 0.39911,-30.370907 0.75436,-30.34897 -16.42564,-1.014316 -7.08214,12.092668 -13.256,21.86621 -13.71968,21.718981 -0.46368,-0.147229 -6.38704,-10.15373 -13.16303,-22.23667 C 162.29174,43.577245 162.5,43.589863 162.5,71.5 c 0,11.55 0.36782,22.0125 0.81739,23.25 0.80733,2.222311 0.71152,2.25 -7.78519,2.25 -8.19523,0 -8.55355,-0.09159 -7.56738,-1.934259 z M 450.78783,63.005529 C 450.98111,40.177211 450.72318,28.351273 450.00264,27.004941 448.96324,25.062787 449.23159,25 458.57181,25 c 8.83449,0 9.57221,0.146589 8.80705,1.75 -1.40291,2.939785 -1.66487,24.200447 -0.31819,25.823104 1.74339,2.10066 42.13527,2.10066 43.87866,0 1.34668,-1.622657 1.08472,-22.883319 -0.31819,-25.823104 -0.76516,-1.603411 -0.0274,-1.75 8.80705,-1.75 9.34022,0 9.60857,0.06279 8.56917,2.004941 -0.72054,1.346332 -0.97847,13.17227 -0.78519,36.000588 L 527.5,97.001176 518.77475,97.000588 510.0495,97 511.02475,94.4349 C 512.46685,90.641887 512.28266,66.682659 510.8,65.2 c -1.69747,-1.697469 -41.90253,-1.697469 -43.6,0 -1.48266,1.482659 -1.66685,25.441887 -0.22475,29.2349 L 467.9505,97 l -8.72525,5.88e-4 -8.72525,5.88e-4 z"
       id="path845"
       inkscape:connector-curvature="0" />
    <g
       id="g1412"
       transform="matrix(1.2507058,0,0,1.2507058,-80.115041,75.525285)">
      <path
         style="fill:#a1a1a1"
         d="m 355.5,456.12174 -3,-0.64083 -0.26346,-33.87177 c -0.18796,-24.16438 0.0621,-34.26403 0.87244,-35.24046 1.16878,-1.40828 11.22875,-1.94378 14.30923,-0.76169 1.37418,0.52732 1.58179,3.41486 1.58179,22 V 429 h 5.0577 c 2.78174,0 9.64424,-0.92552 15.25,-2.0567 46.96683,-9.47742 86.13449,-35.82807 111.20679,-74.81609 9.94748,-15.46856 19.75873,-39.659 22.60034,-55.72296 0.67173,-3.79734 1.65079,-7.46675 2.17569,-8.15425 1.43787,-1.88327 24.05723,-1.74084 25.63597,0.16142 0.90862,1.09483 0.5764,4.06691 -1.48109,13.25 -6.61371,29.51853 -17.27108,53.24238 -34.29329,76.33858 -6.81411,9.24558 -23.12602,26.17072 -33.12579,34.37113 -29.75682,24.40239 -70.13127,41.0027 -104.83385,43.10336 -5.33086,0.32269 -11.71747,0.74452 -14.19247,0.93739 -2.475,0.19288 -5.85,0.0623 -7.5,-0.29014 z m -37,-4.11428 C 235.70814,433.13165 174.49645,364.527 166.04914,281.14405 164.63068,267.14256 164.69784,254.70216 166.2,253.2 c 1.40444,-1.40444 66.41168,-1.73288 68.59708,-0.34657 0.91941,0.58322 1.21058,2.98089 1,8.23468 L 235.5,268.5 214,269 l -21.5,0.5 0.22084,7.5 c 0.4596,15.60879 6.46911,38.167 14.91017,55.96904 13.25538,27.95533 33.76014,51.71027 59.36899,68.77944 15.76507,10.50797 38.10577,19.98735 55.95394,23.74183 4.06831,0.8558 7.99298,2.05067 8.72149,2.65529 1.77139,1.47012 1.87966,22.89931 0.12457,24.6544 -1.5473,1.5473 -3.5643,1.42711 -13.3,-0.79254 z m 55.61364,-35.79511 C 373.38421,414.84938 373,405.85341 373,390.13717 c 0,-20.47968 0.23018,-24.22449 1.57143,-25.56574 1.64391,-1.64391 4.38093,-1.95887 8.17857,-0.94114 2.21724,0.59419 2.25,0.84151 2.25,16.98634 V 397 h 3.93795 c 6.28014,0 20.97852,-3.70221 30.06205,-7.57199 32.13426,-13.68989 56.59959,-41.42178 68.36664,-77.49482 1.87182,-5.73825 3.72391,-12.80738 4.11575,-15.70917 0.96377,-7.13726 2.28617,-8.22402 10.00725,-8.22402 8.58584,0 9.51221,0.47356 9.50124,4.85699 -0.01,3.88724 -3.69394,19.43266 -7.14377,30.14301 -3.04982,9.46846 -12.65228,28.35111 -18.81574,37 -24.81139,34.81664 -60.1984,55.70833 -97.66773,57.6608 -11.60048,0.60449 -12.18552,0.54053 -13.25,-1.44845 z M 325.5,414.28574 c -6.37124,-0.88049 -19.4066,-4.49213 -28.5,-7.89635 -21.40287,-8.01242 -36.9707,-18.07463 -53.02962,-34.27552 -23.17303,-23.37789 -35.31061,-50.12436 -37.51887,-82.67688 -0.97223,-14.33197 -2.72374,-13.44049 26.36992,-13.42168 13.02321,0.008 24.26854,0.38946 24.98962,0.84675 0.8678,0.55034 1.20589,2.48915 1,5.73469 L 258.5,287.5 l -15.65257,0.2749 c -11.57746,0.20333 -15.78025,0.60766 -16.14304,1.55306 -0.79876,2.08153 2.06122,17.82682 4.83024,26.59231 5.12412,16.22073 14.72964,31.40386 28.38331,44.86458 17.41789,17.17175 37.78058,28.25609 62.04813,33.77562 3.88109,0.88274 7.72644,2.27489 8.54522,3.09368 2.10864,2.10864 2.04815,13.64355 -0.0827,15.77442 -0.86428,0.86429 -1.65178,1.50401 -1.75,1.4216 -0.0982,-0.0824 -1.52857,-0.3364 -3.17857,-0.56443 z M 354.92322,311.25 c -2.38233,-2.6125 -24.82714,-26.97721 -49.87736,-54.1438 -25.05022,-27.16658 -45.69586,-49.77908 -45.87919,-50.25 -0.18334,-0.47091 0.28427,-0.8562 1.03912,-0.8562 0.75486,0 23.31141,10.36478 50.12567,23.03285 28.2017,13.32355 49.26229,22.72162 49.96087,22.29452 0.66422,-0.40608 7.05342,-5.70837 14.19822,-11.78285 20.24027,-17.2082 33.26455,-28.22611 45.5635,-38.54452 6.2279,-5.225 13.15102,-11.11791 15.38471,-13.09535 3.66952,-3.24857 41.98734,-35.58781 77.92252,-65.76457 7.62371,-6.40204 18.8908,-15.91508 25.03799,-21.14008 6.14719,-5.225 14.98461,-12.721382 19.63872,-16.658626 4.65411,-3.937244 15.39466,-13.049744 23.86789,-20.25 C 596.37259,51.79808 602.59384,47.492842 596.84961,53.75 c -4.77203,5.198158 -37.38639,41.753364 -41.36655,46.36494 -2.19068,2.53822 -36.56223,40.78822 -76.38122,85 C 439.28285,229.32672 397.25486,276.075 385.70632,289 c -21.22937,23.75967 -24.31245,27 -25.68974,27 -0.41902,0 -2.71104,-2.1375 -5.09336,-4.75 z M 483.2,268.8 c -1.58053,-1.58053 -1.58053,-14.01947 0,-15.6 0.85619,-0.85619 7.14244,-1.2 21.94098,-1.2 12.68788,0 20.9799,-0.38657 21.35632,-0.99563 0.94967,-1.5366 -2.2299,-22.56589 -5.05587,-33.43888 -2.65687,-10.22237 -6.77069,-21.33493 -10.95469,-29.59166 C 509.11903,185.27479 508,182.25465 508,181.26239 c 0,-0.99225 3.98221,-5.76785 8.84936,-10.61245 7.99528,-7.95823 8.99905,-8.65867 10.4003,-7.25742 5.8066,5.8066 19.93364,43.15299 23.11517,61.10748 3.32065,18.73965 4.60635,42.12882 2.43517,44.3 -1.71859,1.71859 -67.88141,1.71859 -69.6,0 z m -6.62857,-24.37143 c -1.81341,-1.81341 -2.02135,-4.71938 -0.53625,-7.49431 0.93773,-1.75215 2.19865,-1.93426 13.39301,-1.93426 10.15338,0 12.46224,-0.27209 12.94315,-1.52531 1.36869,-3.56676 -3.36903,-22.08089 -8.63985,-33.76289 l -3.06278,-6.7882 3.91564,-4.04096 c 7.68176,-7.9276 8.83518,-7.55884 14.4425,4.61736 6.2429,13.55636 9.02095,24.59681 10.46926,41.60668 C 520.45078,246.31899 521.09489,246 497.5,246 c -16.26407,0 -19.60824,-0.2511 -20.92857,-1.57143 z m -307.49908,-15.8414 c -0.90825,-1.09437 -0.68076,-3.51747 1.00923,-10.75 18.38128,-78.66479 83.12885,-137.967342 163.03538,-149.32475 13.65387,-1.940675 33.21583,-2.021281 34.77443,-0.14329 0.80974,0.975676 1.06046,10.818261 0.87244,34.25 L 368.5,135.5 l -7.41189,0.29708 c -5.25379,0.21058 -7.65146,-0.0806 -8.23468,-1 -0.45254,-0.7134 -0.8297,-10.18458 -0.83812,-21.04708 L 352,94 h -5.36901 c -12.80966,0 -36.3016,5.736996 -53.13099,12.97519 -48.12043,20.69622 -84.6147,63.50991 -96.47953,113.18609 -1.07447,4.49864 -2.53113,8.54581 -3.23703,8.99372 -0.70589,0.44791 -6.29084,0.82127 -12.411,0.82969 -8.38066,0.0115 -11.417,-0.33345 -12.30009,-1.39752 z m 41.17765,0.75055 c -1.91867,-0.7742 -1.51682,-4.91985 1.68651,-17.39848 4.48764,-17.48171 12.84019,-36.22475 22.4775,-50.43924 5.71768,-8.43327 19.76332,-23.52875 28.02626,-30.12108 C 269.9322,125.4017 274.91209,122.2512 286,116.47395 297.78479,110.33359 313.26209,106.27086 328.39733,105.3448 342.89237,104.45791 342,102.74207 342,131.5 c 0,25.65721 -0.19082,26.5 -6,26.5 -5.43509,0 -6,-1.65733 -6,-17.60281 0,-11.76116 -0.27276,-14.56463 -1.46142,-15.02076 -1.51677,-0.58204 -16.52921,2.16517 -20.03858,3.66696 -1.1,0.47073 -4.17345,1.56041 -6.82988,2.4215 -18.58456,6.02424 -39.38505,22.23375 -52.47541,40.89329 -9.63934,13.74032 -16.28008,28.37075 -20.71657,45.64139 -1.41638,5.51377 -3.15776,10.02421 -4.15033,10.75 -1.65079,1.20708 -11.52189,1.61948 -14.07781,0.58815 z M 441.5,147.48 c -12.31509,-9.50574 -34.59965,-19.5786 -48.79907,-22.0577 -5.76554,-1.00662 -6.70317,-2.51339 -6.68562,-10.74373 0.008,-3.94821 0.43049,-7.83493 0.93792,-8.63714 2.4066,-3.80464 26.56702,2.65064 45.54677,12.16938 14.08552,7.06418 31.5,19.33321 31.5,22.19271 0,1.49709 -12.71386,12.61907 -14.33261,12.53805 C 449.02532,152.90943 445.35,150.45172 441.5,147.48 Z m 22.15008,-18.45744 C 446.51775,114.86522 420.95484,102.3804 398,96.959334 c -5.225,-1.233949 -10.0625,-2.684696 -10.75,-3.223883 -1.48169,-1.162048 -1.75502,-22.389097 -0.31754,-24.66041 0.76873,-1.214649 1.9653,-1.234908 8.10735,-0.137262 21.01307,3.755245 49.86826,15.365394 68.76146,27.666806 12.28664,7.999865 24.1941,17.605655 24.1966,19.519495 C 487.99992,117.68969 471.05039,133 469.3151,133 c -0.46847,0 -3.01773,-1.78985 -5.66502,-3.97744 z"
         id="path1424"
         inkscape:connector-curvature="0" />
      <path
         style="fill:#800000"
         d="m 355.23696,455.30992 -2.26305,-0.45244 0.26305,-34.17874 L 353.5,386.5 h 7 7 l 0.2695,21.75 0.2695,21.75 h 5.35826 c 6.76849,0 27.33339,-4.2988 39.10274,-8.17388 42.13457,-13.87288 79.39008,-46.82878 98.52303,-87.15264 C 517.19622,321.66313 521.6036,308.878 523.83776,297.5 l 1.76722,-9 11.86433,-0.28318 c 6.52538,-0.15575 12.24644,0.0989 12.71345,0.56594 0.96371,0.96371 -1.21145,12.55768 -4.75667,25.35387 -12.50855,45.14873 -40.26815,83.02295 -80.39977,109.69461 -24.90018,16.54877 -59.43932,28.79152 -86.52632,30.67013 -15.26957,1.05901 -21.01194,1.2586 -23.26304,0.80855 z M 321.5,451.84594 C 299.58139,446.40699 283.72067,440.66619 269.12672,432.88939 211.62697,402.24901 173.42589,345.38067 166.93717,280.76411 166.37028,275.11885 166.04001,266.675 166.20323,262 L 166.5,253.5 h 34 34 l 0.29381,7.25 0.29381,7.25 -20.79381,0.0153 c -11.4366,0.008 -21.4191,0.41129 -22.18334,0.89526 -1.09143,0.69116 -1.23693,2.45777 -0.67821,8.23468 5.58972,57.79463 39.93702,108.28503 91.77864,134.91426 12.79968,6.57474 20.57502,9.47179 35.7891,13.33483 l 12.5,3.17389 v 11.96589 11.96588 l -3,0.16926 c -1.65,0.0931 -4.8,-0.27741 -7,-0.82332 z m 53.16061,-36.28799 C 373.40694,412.29093 373.89738,366.50262 375.2,365.2 c 1.34895,-1.34895 5.66351,-1.57376 7.52355,-0.39201 0.86112,0.54709 1.30545,5.50418 1.5,16.73468 L 384.5,397.5 l 3.81893,0.31447 c 7.14207,0.58813 25.53635,-4.49004 36.80649,-10.16127 23.73704,-11.94468 44.4127,-33.21648 56.29247,-57.91554 4.36783,-9.0811 10.11139,-26.45484 11.05401,-33.43735 0.38606,-2.85983 1.29732,-5.69382 2.02501,-6.29774 0.7639,-0.63398 4.21386,-0.97222 8.16308,-0.80031 L 509.5,289.5 l 0.31912,3.32725 c 0.35662,3.71829 -4.56498,23.79981 -8.18983,33.4168 -19.52354,51.79737 -65.46113,88.02143 -114.71868,90.46136 -10.36109,0.51323 -11.6594,0.39161 -12.25,-1.14746 z M 325.5,413.21533 c -10.2568,-1.17672 -31.61282,-8.22545 -44.34016,-14.63484 -12.21269,-6.15021 -24.97771,-15.4951 -35.20488,-25.77245 -24.19646,-24.31518 -36.31863,-50.53019 -38.53289,-83.32999 -0.55891,-8.27914 -0.41539,-10.2387 0.82531,-11.26839 1.12763,-0.93585 7.45128,-1.17957 25.37725,-0.97805 L 257.5,277.5 l 0.30479,4.75 0.30479,4.75 h -15.51961 c -18.25767,0 -17.86118,-0.24895 -16.41994,10.30989 6.31921,46.2961 43.68307,85.40372 93.32997,97.68565 4.95,1.22456 9.5625,2.68162 10.25,3.23791 0.75898,0.61413 1.25,3.46856 1.25,7.26655 0,6.97041 -0.90669,8.2423 -5.5,7.71533 z M 350.89017,306.78111 C 342.47538,297.53517 312.98584,265.52006 293.06167,244 287.20572,237.675 277.14623,226.80526 270.70724,219.84502 264.26826,212.88478 259,206.92228 259,206.59502 259,206.26776 259.58415,206 260.29811,206 c 0.71396,0 23.22284,10.37107 50.01974,23.04682 28.86381,13.65346 49.22305,22.74019 49.95189,22.29451 0.67664,-0.41376 7.07601,-5.72233 14.22081,-11.79681 17.37669,-14.7736 32.46059,-27.54153 42.58261,-36.04452 4.58307,-3.85 14.654,-12.40713 22.37985,-19.01584 7.72584,-6.60871 19.22199,-16.35203 25.54699,-21.65182 10.84033,-9.08323 35.37852,-29.7122 53.92288,-45.33234 4.57076,-3.85 13.33756,-11.275 19.48178,-16.5 45.36481,-38.577879 59.00769,-49.920985 59.47736,-49.451309 0.25256,0.252557 -0.44598,1.469921 -1.55231,2.705252 C 595.22338,55.489274 586.0814,65.725 576.0142,77 565.94699,88.275 554.47092,101.1 550.51182,105.5 540.62441,116.4885 411.59564,260.04286 385.59636,288.98105 361.60633,315.68286 361.30753,316 360.14017,316 c -0.4729,0 -4.6354,-4.1485 -9.25,-9.21889 z m 132.53202,-39.12328 c -0.28882,-0.75267 -0.38947,-4.24609 -0.22366,-7.76316 L 483.5,253.5 l 21.75,-0.2695 c 13.26404,-0.16436 21.79335,-0.65205 21.86111,-1.25 1.51789,-13.39457 -6.42196,-45.72102 -15.81144,-64.37499 l -3.47034,-6.89448 8.83534,-8.8895 8.83533,-8.8895 1.90247,2.28398 c 2.70596,3.24862 9.94451,18.74143 14.03146,30.03179 7.1499,19.75192 10.66996,39.27792 10.91813,60.56357 L 552.5,268.5 l -34.27634,0.26316 c -28.26093,0.21697 -34.36849,0.023 -34.80147,-1.10533 z M 477.2,243.8 c -1.31022,-1.31022 -1.54235,-3.74428 -0.59301,-6.21821 0.50786,-1.32347 2.61089,-1.58179 12.87755,-1.58179 9.10513,0 12.56074,-0.34964 13.3954,-1.35534 2.27956,-2.7467 -3.20531,-25.52146 -8.77619,-36.44129 -2.46801,-4.83771 -2.29655,-5.33784 3.64976,-10.64565 3.39543,-3.03085 4.5379,-3.56076 5.66325,-2.62681 2.17623,1.80612 9.3853,18.98171 11.63834,27.72835 2.84596,11.04841 4.54218,28.91613 2.92954,30.85925 C 516.97677,244.73292 513.29784,245 497.57756,245 483.99501,245 478.0499,244.6499 477.2,243.8 Z M 169.55429,228.08784 c -1.89622,-3.06814 7.22883,-32.52373 15.36182,-49.58784 10.96988,-23.0163 22.42332,-38.82182 41.48157,-57.24376 C 261.63283,87.197505 311.89018,66.770614 357,68.173465 L 367.5,68.5 l 0.26354,33.29408 0.26353,33.29409 -7.26353,-0.29409 L 353.5,134.5 353,114 l -0.5,-20.5 -8.00229,0.09324 c -20.21513,0.235541 -52.59423,10.78049 -73.65285,23.98662 -36.65241,22.98522 -66.55376,64.07933 -74.88787,102.92014 -0.70809,3.3 -1.71818,6.5625 -2.24465,7.25 -1.13711,1.48489 -23.25794,1.79425 -24.15805,0.33784 z m 41.11238,0.24549 c -1.22766,-1.22765 -0.68601,-5.59645 1.95294,-15.75211 3.3649,-12.94934 9.25362,-27.41711 16.07977,-39.50575 5.86055,-10.37863 7.75282,-12.96168 19.46854,-26.57547 7.27785,-8.45695 9.55557,-10.52871 20.83208,-18.9484 4.50659,-3.36488 19.92076,-11.59755 27.57361,-14.72701 11.86771,-4.85303 39.54746,-8.62885 42.89427,-5.85125 C 340.7634,108.04853 341,111.82415 341,131.42244 341,156.20636 340.84486,157 336,157 c -4.6141,0 -5,-1.32601 -5,-17.18095 0,-17.57387 0.57292,-16.98236 -13.5,-13.93826 -22.81244,4.93452 -38.67874,13.65182 -56.35376,30.96202 C 253.76462,164.07208 242,179.34005 242,181.69055 c 0,0.35858 -0.60864,1.3624 -1.35254,2.23071 -3.2757,3.82354 -12.74464,29.1644 -14.1426,37.84856 -0.96537,5.99688 -2.57043,7.23018 -9.40962,7.23018 -3.16905,0 -6.06191,-0.3 -6.42857,-0.66667 z M 446.32673,149.66758 C 433.50051,139.08428 411.05772,128.1974 395.5,125.0118 c -3.3,-0.67571 -6.5625,-1.68489 -7.25,-2.24262 -1.69824,-1.37771 -1.69609,-15.15407 0.003,-16.56385 1.72311,-1.43006 10.3816,0.30405 26.24741,5.25678 13.90071,4.33929 47.42548,24.19687 48.27205,28.59276 C 463.01538,141.31839 451.24854,152 449.61333,152 c -0.25294,0 -1.73191,-1.04959 -3.2866,-2.33242 z M 464.43,128.65146 C 448.25678,114.87113 424.46393,103.03119 400,96.589431 l -12.5,-3.291457 -0.2819,-11.66813 c -0.22949,-9.498733 -0.0101,-11.772431 1.17999,-12.229112 2.98886,-1.146932 28.23158,5.257656 41.43496,10.512887 9.23331,3.675055 25.34039,12.073841 34.16693,17.81581 12.25551,7.972631 22.9007,16.511841 22.95399,18.412891 0.0442,1.57754 -15.908,15.85768 -17.71446,15.85768 -0.48373,0 -2.64801,-1.50684 -4.80951,-3.34854 z"
         id="path1422"
         inkscape:connector-curvature="0" />
      <path
         style="fill:#5b5b5b"
         d="m 355.23696,455.30992 -2.26305,-0.45244 0.26305,-34.17874 L 353.5,386.5 h 7 7 l 0.2695,21.75 0.2695,21.75 h 5.35826 c 6.76849,0 27.33339,-4.2988 39.10274,-8.17388 42.13457,-13.87288 79.39008,-46.82878 98.52303,-87.15264 C 517.19622,321.66313 521.6036,308.878 523.83776,297.5 l 1.76722,-9 11.86433,-0.28318 c 6.52538,-0.15575 12.24644,0.0989 12.71345,0.56594 0.96371,0.96371 -1.21145,12.55768 -4.75667,25.35387 -12.50855,45.14873 -40.26815,83.02295 -80.39977,109.69461 -24.90018,16.54877 -59.43932,28.79152 -86.52632,30.67013 -15.26957,1.05901 -21.01194,1.2586 -23.26304,0.80855 z M 321.5,451.84594 C 299.58139,446.40699 283.72067,440.66619 269.12672,432.88939 211.62697,402.24901 173.42589,345.38067 166.93717,280.76411 166.37028,275.11885 166.04001,266.675 166.20323,262 L 166.5,253.5 h 34 34 l 0.29381,7.25 0.29381,7.25 -20.79381,0.0153 c -11.4366,0.008 -21.4191,0.41129 -22.18334,0.89526 -1.09143,0.69116 -1.23693,2.45777 -0.67821,8.23468 5.58972,57.79463 39.93702,108.28503 91.77864,134.91426 12.79968,6.57474 20.57502,9.47179 35.7891,13.33483 l 12.5,3.17389 v 11.96589 11.96588 l -3,0.16926 c -1.65,0.0931 -4.8,-0.27741 -7,-0.82332 z m 53.16061,-36.28799 C 373.40694,412.29093 373.89738,366.50262 375.2,365.2 c 1.34895,-1.34895 5.66351,-1.57376 7.52355,-0.39201 0.86112,0.54709 1.30545,5.50418 1.5,16.73468 L 384.5,397.5 l 3.81893,0.31447 c 7.14207,0.58813 25.53635,-4.49004 36.80649,-10.16127 23.73704,-11.94468 44.4127,-33.21648 56.29247,-57.91554 4.36783,-9.0811 10.11139,-26.45484 11.05401,-33.43735 0.38606,-2.85983 1.29732,-5.69382 2.02501,-6.29774 0.7639,-0.63398 4.21386,-0.97222 8.16308,-0.80031 L 509.5,289.5 l 0.31912,3.32725 c 0.35662,3.71829 -4.56498,23.79981 -8.18983,33.4168 -19.52354,51.79737 -65.46113,88.02143 -114.71868,90.46136 -10.36109,0.51323 -11.6594,0.39161 -12.25,-1.14746 z M 325.5,413.21533 c -10.2568,-1.17672 -31.61282,-8.22545 -44.34016,-14.63484 -12.21269,-6.15021 -24.97771,-15.4951 -35.20488,-25.77245 -24.19646,-24.31518 -36.31863,-50.53019 -38.53289,-83.32999 -0.55891,-8.27914 -0.41539,-10.2387 0.82531,-11.26839 1.12763,-0.93585 7.45128,-1.17957 25.37725,-0.97805 L 257.5,277.5 l 0.30479,4.75 0.30479,4.75 h -15.51961 c -18.25767,0 -17.86118,-0.24895 -16.41994,10.30989 6.31921,46.2961 43.68307,85.40372 93.32997,97.68565 4.95,1.22456 9.5625,2.68162 10.25,3.23791 0.75898,0.61413 1.25,3.46856 1.25,7.26655 0,6.97041 -0.90669,8.2423 -5.5,7.71533 z m -3.00705,-139.30577 c -20.34612,-22.07893 -42.22932,-45.82837 -48.62932,-52.77653 -6.4,-6.94817 -11.53665,-12.74638 -11.41477,-12.88493 0.12188,-0.13854 21.6387,9.87396 47.81515,22.25 26.17645,12.37605 48.27124,22.5019 49.09954,22.5019 0.82829,0 6.37284,-4.14824 12.32122,-9.21832 20.29171,-17.29557 36.80941,-31.29164 41.31523,-35.00796 2.475,-2.04134 8.34913,-6.98802 13.05362,-10.99262 14.62383,-12.44824 73.7404,-62.40867 88.32035,-74.64104 13.05386,-10.952 28.44288,-23.986861 42.12603,-35.681726 16.39555,-14.013131 31.77292,-26.546236 29.91848,-24.38463 -3.40002,3.963201 -29.03647,32.7869 -36.84548,41.426296 -10.99451,12.16364 -140.02016,155.69075 -165.45186,184.04735 -12.30838,13.72396 -22.88655,25.07709 -23.50705,25.22919 -0.6205,0.15209 -17.77501,-17.78805 -38.12114,-39.86698 z m 160.92924,-6.25173 c -0.28882,-0.75267 -0.38947,-4.24609 -0.22366,-7.76316 L 483.5,253.5 l 21.75,-0.2695 c 13.26404,-0.16436 21.79335,-0.65205 21.86111,-1.25 1.51789,-13.39457 -6.42196,-45.72102 -15.81144,-64.37499 l -3.47034,-6.89448 8.83534,-8.8895 8.83533,-8.8895 1.90247,2.28398 c 2.70596,3.24862 9.94451,18.74143 14.03146,30.03179 7.1499,19.75192 10.66996,39.27792 10.91813,60.56357 L 552.5,268.5 l -34.27634,0.26316 c -28.26093,0.21697 -34.36849,0.023 -34.80147,-1.10533 z M 477.2,243.8 c -1.31022,-1.31022 -1.54235,-3.74428 -0.59301,-6.21821 0.50786,-1.32347 2.61089,-1.58179 12.87755,-1.58179 9.10513,0 12.56074,-0.34964 13.3954,-1.35534 2.27956,-2.7467 -3.20531,-25.52146 -8.77619,-36.44129 -2.46801,-4.83771 -2.29655,-5.33784 3.64976,-10.64565 3.39543,-3.03085 4.5379,-3.56076 5.66325,-2.62681 2.17623,1.80612 9.3853,18.98171 11.63834,27.72835 2.84596,11.04841 4.54218,28.91613 2.92954,30.85925 C 516.97677,244.73292 513.29784,245 497.57756,245 483.99501,245 478.0499,244.6499 477.2,243.8 Z M 169.55429,228.08784 c -1.89622,-3.06814 7.22883,-32.52373 15.36182,-49.58784 10.96988,-23.0163 22.42332,-38.82182 41.48157,-57.24376 C 261.63283,87.197505 311.89018,66.770614 357,68.173465 L 367.5,68.5 l 0.26354,33.29408 0.26353,33.29409 -7.26353,-0.29409 L 353.5,134.5 353,114 l -0.5,-20.5 -8.00229,0.09324 c -20.21513,0.235541 -52.59423,10.78049 -73.65285,23.98662 -36.65241,22.98522 -66.55376,64.07933 -74.88787,102.92014 -0.70809,3.3 -1.71818,6.5625 -2.24465,7.25 -1.13711,1.48489 -23.25794,1.79425 -24.15805,0.33784 z m 41.11238,0.24549 c -1.22766,-1.22765 -0.68601,-5.59645 1.95294,-15.75211 3.3649,-12.94934 9.25362,-27.41711 16.07977,-39.50575 5.86055,-10.37863 7.75282,-12.96168 19.46854,-26.57547 7.27785,-8.45695 9.55557,-10.52871 20.83208,-18.9484 4.50659,-3.36488 19.92076,-11.59755 27.57361,-14.72701 11.86771,-4.85303 39.54746,-8.62885 42.89427,-5.85125 C 340.7634,108.04853 341,111.82415 341,131.42244 341,156.20636 340.84486,157 336,157 c -4.6141,0 -5,-1.32601 -5,-17.18095 0,-17.57387 0.57292,-16.98236 -13.5,-13.93826 -22.81244,4.93452 -38.67874,13.65182 -56.35376,30.96202 C 253.76462,164.07208 242,179.34005 242,181.69055 c 0,0.35858 -0.60864,1.3624 -1.35254,2.23071 -3.2757,3.82354 -12.74464,29.1644 -14.1426,37.84856 -0.96537,5.99688 -2.57043,7.23018 -9.40962,7.23018 -3.16905,0 -6.06191,-0.3 -6.42857,-0.66667 z M 446.32673,149.66758 C 433.50051,139.08428 411.05772,128.1974 395.5,125.0118 c -3.3,-0.67571 -6.5625,-1.68489 -7.25,-2.24262 -1.69824,-1.37771 -1.69609,-15.15407 0.003,-16.56385 1.72311,-1.43006 10.3816,0.30405 26.24741,5.25678 13.90071,4.33929 47.42548,24.19687 48.27205,28.59276 C 463.01538,141.31839 451.24854,152 449.61333,152 c -0.25294,0 -1.73191,-1.04959 -3.2866,-2.33242 z M 464.43,128.65146 C 448.25678,114.87113 424.46393,103.03119 400,96.589431 l -12.5,-3.291457 -0.2819,-11.66813 c -0.22949,-9.498733 -0.0101,-11.772431 1.17999,-12.229112 2.98886,-1.146932 28.23158,5.257656 41.43496,10.512887 9.23331,3.675055 25.34039,12.073841 34.16693,17.81581 12.25551,7.972631 22.9007,16.511841 22.95399,18.412891 0.0442,1.57754 -15.908,15.85768 -17.71446,15.85768 -0.48373,0 -2.64801,-1.50684 -4.80951,-3.34854 z"
         id="path1420"
         inkscape:connector-curvature="0" />
      <path
         style="fill:#800000"
         d="M 354.66667,454.33333 C 354.3,453.96667 354,438.66667 354,420.33333 V 387 h 6.35045 6.35045 l 0.68327,12.94266 c 0.3758,7.11847 0.38483,15.85567 0.0201,19.41601 -0.36476,3.56034 -0.37137,7.63614 -0.0147,9.05734 0.57746,2.30077 1.14281,2.58399 5.15806,2.58399 2.48024,0 10.14243,-1.14054 17.0271,-2.53452 51.6059,-10.44902 93.81212,-41.20118 118.67072,-86.46548 7.00009,-12.74626 14.6064,-33.74303 16.81201,-46.40855 L 526.20531,289 h 11.89734 c 6.54354,0 11.89735,0.40046 11.89735,0.88992 0,0.48946 -0.87417,5.10196 -1.94261,10.25 -8.02975,38.68983 -23.69214,68.24109 -50.98207,96.19125 -32.97913,33.777 -75.25238,53.89434 -121.24488,57.69899 -13.48582,1.11559 -20.25439,1.21255 -21.16377,0.30317 z M 320.5,450.82333 C 293.94266,444.38342 271.15561,434.89 253,422.70184 216.31365,398.07368 187.30983,359.08291 174.97123,317.80527 170.25362,302.02294 167,281.04921 167,266.42053 V 254 h 33.54569 33.54569 l -0.29569,6.75 -0.29569,6.75 -20.96154,0.28326 c -15.07182,0.20368 -21.19331,0.62514 -21.78639,1.5 -1.80339,2.66017 2.0471,26.71211 6.73882,42.09385 7.24057,23.73814 22.18063,48.98626 39.82892,67.30934 24.89601,25.84792 53.23571,41.34998 90.93019,49.73959 L 331,429.0381 V 440.51905 452 l -3.25,-0.10335 c -1.7875,-0.0568 -5.05,-0.53984 -7.25,-1.07332 z M 376,391.14981 V 366 h 3.5 3.5 v 15.8 c 0,16.68301 0.38647,18.2 4.63665,18.2 2.32947,0 15.71682,-3.03052 22.15096,-5.01436 16.36293,-5.04518 32.49886,-14.78749 47.06288,-28.41492 9.01748,-8.43758 21.43623,-26.55354 27.19081,-39.66483 3.43227,-7.8201 8.95606,-24.30105 8.96428,-26.74607 0.003,-0.9129 0.47422,-3.34732 1.047,-5.40982 l 1.04143,-3.75 h 6.95299 c 5.37296,0 6.953,0.32601 6.953,1.43462 0,2.95592 -3.14136,16.39447 -5.99053,25.62713 -16.94858,54.92149 -64.33241,94.71392 -116.25947,97.63347 l -10.75,0.6044 z m -62,18.38952 C 283.82313,401.35673 261.23295,388.07751 241.96671,367.19589 221.35048,344.85108 209.0588,315.58851 209.01567,288.75 L 209,279 h 24 24 v 3.5 3.5 h -15.46482 c -18.65599,0 -18.31497,-0.24399 -16.49066,11.79842 3.74413,24.71527 14.8702,46.19705 33.45548,64.59456 9.85531,9.75574 24.10713,19.71891 35.88398,25.08579 7.80402,3.55641 24.26805,8.88252 30.86602,9.98516 l 3.75,0.6267 V 405.04531 412 l -3.25,-0.0779 c -1.7875,-0.0429 -7.075,-1.11509 -11.75,-2.38274 z m 8.49295,-135.62977 c -20.34612,-22.07893 -42.22932,-45.82837 -48.62932,-52.77653 -6.4,-6.94817 -11.53665,-12.74638 -11.41477,-12.88493 0.12188,-0.13854 21.6387,9.87396 47.81515,22.25 26.17645,12.37605 48.27124,22.5019 49.09954,22.5019 0.82829,0 6.37284,-4.14824 12.32122,-9.21832 20.29171,-17.29557 36.80941,-31.29164 41.31523,-35.00796 2.475,-2.04134 8.34913,-6.98802 13.05362,-10.99262 14.62383,-12.44824 73.7404,-62.40867 88.32035,-74.64104 13.05386,-10.952 28.44288,-23.986861 42.12603,-35.681726 16.39555,-14.013131 31.77292,-26.546236 29.91848,-24.38463 -3.40002,3.963201 -29.03647,32.7869 -36.84548,41.426296 -10.99451,12.16364 -140.02016,155.69075 -165.45186,184.04735 -12.30838,13.72396 -22.88655,25.07709 -23.50705,25.22919 -0.6205,0.15209 -17.77501,-17.78805 -38.12114,-39.86698 z M 484,261.0195 v -6.9805 l 21.75,-0.2695 21.75,-0.2695 -0.16454,-9.51218 c -0.25365,-14.66406 -6.22269,-36.98819 -14.95699,-55.93893 l -3.43417,-7.45112 8.20535,-8.2482 c 4.51294,-4.53651 8.58885,-8.01119 9.05757,-7.7215 1.49098,0.92147 10.40867,19.51956 14.08369,29.37193 6.84323,18.34602 10.48793,37.28873 11.40009,59.25 L 552.30364,268 H 518.15182 484 Z M 478,240 v -3 h 12.98095 12.98095 l 0.64333,-2.56326 c 1.26002,-5.0203 -6.6251,-35.09492 -9.69954,-36.99503 -1.92271,-1.1883 -0.76237,-5.18828 2.39192,-8.24554 1.81368,-1.75789 3.8322,-3.19617 4.4856,-3.19617 0.6534,0 2.48827,2.5875 4.07748,5.75 C 512.67916,205.31859 517,222.41603 517,235.82793 V 243 H 497.5 478 Z M 170,227.09711 c 0,-6.4158 7.18653,-29.96752 13.5776,-44.49653 9.88297,-22.46728 21.43958,-38.84686 41.34561,-58.60058 20.5846,-20.42709 40.32393,-33.249005 66.96129,-43.49549 21.55497,-8.291463 67.82211,-15.505848 74.07535,-11.550488 1.20376,0.761418 1.47948,4.882654 1.57177,23.494079 0.0616,12.413879 -0.14537,26.953959 -0.45985,32.311289 L 366.5,134.5 h -6 -6 l -0.55134,-21 c -0.30323,-11.55 -0.64073,-21.179884 -0.75,-21.399743 -0.4455,-0.896413 -18.31675,0.988295 -26.97286,2.844568 C 262.27407,108.65905 212.2433,156.11356 195.60382,218.84065 l -2.29705,8.65935 -11.65339,0.28174 C 174.62722,227.9516 170,227.67976 170,227.09711 Z M 211.56723,223.25 c 2.59299,-14.78092 8.98507,-32.93758 16.5066,-46.88693 6.30197,-11.68754 9.36561,-16.10612 18.28041,-26.36513 C 258.11051,136.46901 269.71379,127.44453 285.5,119.55223 302.17902,111.21357 314.20383,108 328.72707,108 H 339 v 23.5 23.5 h -3 -3 v -14.06574 c 0,-7.78353 -0.46235,-14.92965 -1.03518,-16 -0.63832,-1.19271 -2.07598,-1.9272 -3.75,-1.91583 -4.04746,0.0275 -19.35509,2.865 -20.61759,3.82183 -0.60348,0.45736 -3.57223,1.60657 -6.59723,2.55379 -3.025,0.94723 -6.91886,2.48357 -8.65303,3.41409 -1.73416,0.93052 -5.4831,2.92909 -8.33097,4.44127 -8.32428,4.42004 -21.50766,15.47095 -29.36079,24.61154 -6.35131,7.39255 -17.30926,24.11908 -20.07238,30.63905 -3.01145,7.10594 -8.73689,25.16519 -10.0659,31.75 -0.53735,2.66239 -0.76296,2.75 -7.0813,2.75 h -6.52626 z M 442.56802,145.51052 C 431.13527,136.6328 412.90548,128.15767 396.5,124.09323 l -7,-1.73424 -0.29206,-7.67949 -0.29207,-7.6795 2.79207,0.0235 c 3.06225,0.0258 13.15757,2.62454 23.29206,5.99581 13.07769,4.35035 31.47669,14.57988 42.77922,23.78452 l 4.27922,3.48494 -5.27922,4.8102 c -2.90357,2.64561 -5.98806,4.83063 -6.85443,4.8556 -0.86636,0.025 -4.17691,-1.97487 -7.35677,-4.44409 z m 21.43517,-18.00786 C 447.46602,113.68625 423.4066,101.8816 398.75,95.486461 L 388,92.698253 V 81.349126 c 0,-13.247276 -0.99336,-12.527858 13,-9.414987 27.83176,6.191274 56.10272,19.799981 79.33012,38.186901 3.04247,2.40843 5.76311,4.91383 6.04587,5.56755 C 486.88738,116.87089 470.99533,131 469.15412,131 c -0.53069,0 -2.84861,-1.5738 -5.15093,-3.49734 z"
         id="path1418"
         inkscape:connector-curvature="0" />
      <path
         style="fill:#363636"
         d="M 354.66667,454.33333 C 354.3,453.96667 354,438.66667 354,420.33333 V 387 h 6.35045 6.35045 l 0.68327,12.94266 c 0.3758,7.11847 0.38483,15.85567 0.0201,19.41601 -0.36476,3.56034 -0.37137,7.63614 -0.0147,9.05734 0.57746,2.30077 1.14281,2.58399 5.15806,2.58399 2.48024,0 10.14243,-1.14054 17.0271,-2.53452 51.6059,-10.44902 93.81212,-41.20118 118.67072,-86.46548 7.00009,-12.74626 14.6064,-33.74303 16.81201,-46.40855 L 526.20531,289 h 11.89734 c 6.54354,0 11.89735,0.40046 11.89735,0.88992 0,0.48946 -0.87417,5.10196 -1.94261,10.25 -8.02975,38.68983 -23.69214,68.24109 -50.98207,96.19125 -32.97913,33.777 -75.25238,53.89434 -121.24488,57.69899 -13.48582,1.11559 -20.25439,1.21255 -21.16377,0.30317 z M 320.5,450.82333 C 293.94266,444.38342 271.15561,434.89 253,422.70184 216.31365,398.07368 187.30983,359.08291 174.97123,317.80527 170.25362,302.02294 167,281.04921 167,266.42053 V 254 h 33.54569 33.54569 l -0.29569,6.75 -0.29569,6.75 -20.96154,0.28326 c -15.07182,0.20368 -21.19331,0.62514 -21.78639,1.5 -1.80339,2.66017 2.0471,26.71211 6.73882,42.09385 7.24057,23.73814 22.18063,48.98626 39.82892,67.30934 24.89601,25.84792 53.23571,41.34998 90.93019,49.73959 L 331,429.0381 V 440.51905 452 l -3.25,-0.10335 c -1.7875,-0.0568 -5.05,-0.53984 -7.25,-1.07332 z M 376,391.14981 V 366 h 3.5 3.5 v 15.8 c 0,16.68301 0.38647,18.2 4.63665,18.2 2.32947,0 15.71682,-3.03052 22.15096,-5.01436 16.36293,-5.04518 32.49886,-14.78749 47.06288,-28.41492 9.01748,-8.43758 21.43623,-26.55354 27.19081,-39.66483 3.43227,-7.8201 8.95606,-24.30105 8.96428,-26.74607 0.003,-0.9129 0.47422,-3.34732 1.047,-5.40982 l 1.04143,-3.75 h 6.95299 c 5.37296,0 6.953,0.32601 6.953,1.43462 0,2.95592 -3.14136,16.39447 -5.99053,25.62713 -16.94858,54.92149 -64.33241,94.71392 -116.25947,97.63347 l -10.75,0.6044 z m -62,18.38952 C 283.82313,401.35673 261.23295,388.07751 241.96671,367.19589 221.35048,344.85108 209.0588,315.58851 209.01567,288.75 L 209,279 h 24 24 v 3.5 3.5 h -15.46482 c -18.65599,0 -18.31497,-0.24399 -16.49066,11.79842 3.74413,24.71527 14.8702,46.19705 33.45548,64.59456 9.85531,9.75574 24.10713,19.71891 35.88398,25.08579 7.80402,3.55641 24.26805,8.88252 30.86602,9.98516 l 3.75,0.6267 V 405.04531 412 l -3.25,-0.0779 c -1.7875,-0.0429 -7.075,-1.11509 -11.75,-2.38274 z M 484,261.0195 v -6.9805 l 21.75,-0.2695 21.75,-0.2695 -0.16454,-9.51218 c -0.25365,-14.66406 -6.22269,-36.98819 -14.95699,-55.93893 l -3.43417,-7.45112 8.20535,-8.2482 c 4.51294,-4.53651 8.58885,-8.01119 9.05757,-7.7215 1.49098,0.92147 10.40867,19.51956 14.08369,29.37193 6.84323,18.34602 10.48793,37.28873 11.40009,59.25 L 552.30364,268 H 518.15182 484 Z M 478,240 v -3 h 12.98095 12.98095 l 0.64333,-2.56326 c 1.26002,-5.0203 -6.6251,-35.09492 -9.69954,-36.99503 -1.92271,-1.1883 -0.76237,-5.18828 2.39192,-8.24554 1.81368,-1.75789 3.8322,-3.19617 4.4856,-3.19617 0.6534,0 2.48827,2.5875 4.07748,5.75 C 512.67916,205.31859 517,222.41603 517,235.82793 V 243 H 497.5 478 Z M 170,227.09711 c 0,-6.4158 7.18653,-29.96752 13.5776,-44.49653 9.88297,-22.46728 21.43958,-38.84686 41.34561,-58.60058 20.5846,-20.42709 40.32393,-33.249005 66.96129,-43.49549 21.55497,-8.291463 67.82211,-15.505848 74.07535,-11.550488 1.20376,0.761418 1.47948,4.882654 1.57177,23.494079 0.0616,12.413879 -0.14537,26.953959 -0.45985,32.311289 L 366.5,134.5 h -6 -6 l -0.55134,-21 c -0.30323,-11.55 -0.64073,-21.179884 -0.75,-21.399743 -0.4455,-0.896413 -18.31675,0.988295 -26.97286,2.844568 C 262.27407,108.65905 212.2433,156.11356 195.60382,218.84065 l -2.29705,8.65935 -11.65339,0.28174 C 174.62722,227.9516 170,227.67976 170,227.09711 Z M 211.56723,223.25 c 2.59299,-14.78092 8.98507,-32.93758 16.5066,-46.88693 6.30197,-11.68754 9.36561,-16.10612 18.28041,-26.36513 C 258.11051,136.46901 269.71379,127.44453 285.5,119.55223 302.17902,111.21357 314.20383,108 328.72707,108 H 339 v 23.5 23.5 h -3 -3 v -14.06574 c 0,-7.78353 -0.46235,-14.92965 -1.03518,-16 -0.63832,-1.19271 -2.07598,-1.9272 -3.75,-1.91583 -4.04746,0.0275 -19.35509,2.865 -20.61759,3.82183 -0.60348,0.45736 -3.57223,1.60657 -6.59723,2.55379 -3.025,0.94723 -6.91886,2.48357 -8.65303,3.41409 -1.73416,0.93052 -5.4831,2.92909 -8.33097,4.44127 -8.32428,4.42004 -21.50766,15.47095 -29.36079,24.61154 -6.35131,7.39255 -17.30926,24.11908 -20.07238,30.63905 -3.01145,7.10594 -8.73689,25.16519 -10.0659,31.75 -0.53735,2.66239 -0.76296,2.75 -7.0813,2.75 h -6.52626 z M 442.56802,145.51052 C 431.13527,136.6328 412.90548,128.15767 396.5,124.09323 l -7,-1.73424 -0.29206,-7.67949 -0.29207,-7.6795 2.79207,0.0235 c 3.06225,0.0258 13.15757,2.62454 23.29206,5.99581 13.07769,4.35035 31.47669,14.57988 42.77922,23.78452 l 4.27922,3.48494 -5.27922,4.8102 c -2.90357,2.64561 -5.98806,4.83063 -6.85443,4.8556 -0.86636,0.025 -4.17691,-1.97487 -7.35677,-4.44409 z m 21.43517,-18.00786 C 447.46602,113.68625 423.4066,101.8816 398.75,95.486461 L 388,92.698253 V 81.349126 c 0,-13.247276 -0.99336,-12.527858 13,-9.414987 27.83176,6.191274 56.10272,19.799981 79.33012,38.186901 3.04247,2.40843 5.76311,4.91383 6.04587,5.56755 C 486.88738,116.87089 470.99533,131 469.15412,131 c -0.53069,0 -2.84861,-1.5738 -5.15093,-3.49734 z"
         id="path1416"
         inkscape:connector-curvature="0" />
      <path
         style="fill:#010101"
         d="m 354.51211,452.89215 c -0.29747,-0.7752 -0.42189,-15.80556 -0.27649,-33.4008 L 354.5,387.5 h 6 6 l 0.5,22 0.5,22 6.5,-0.30293 c 3.575,-0.16661 11.15356,-1.21564 16.84125,-2.33118 45.94695,-9.01173 86.30538,-36.3372 111.51658,-75.50454 9.95075,-15.45917 21.23605,-43.13693 23.18458,-56.86135 0.39043,-2.75 1.15821,-5.5625 1.70618,-6.25 0.68343,-0.85746 4.2956,-1.25 11.50269,-1.25 h 10.50638 l -0.66997,5.05048 c -0.36848,2.77776 -2.03406,10.30415 -3.70129,16.72531 -8.8563,34.10924 -25.88368,63.37257 -51.09095,87.80514 -28.18356,27.31741 -59.24783,43.90445 -97.29545,51.95179 -14.9516,3.16236 -41.11559,4.6326 -41.98789,2.35943 z M 318,449.45065 C 245.24419,432.80614 188.83507,376.57964 172.07691,304 c -3.01864,-13.07376 -4.34448,-24.18114 -4.46596,-37.41421 L 167.5,254.5 h 33 33 v 6 6 l -21.5,0.5 -21.5,0.5 0.19201,9.5 c 0.66974,33.13651 19.05408,74.09667 45.6514,101.71095 23.90148,24.81537 50.07763,40.0024 83.15659,48.24629 l 11,2.7414 v 10.81735 c 0,6.37175 -0.41097,10.92408 -1,11.07706 -0.55,0.14284 -5.725,-0.82124 -11.5,-2.1424 z M 485.2,266.8 c -1.55581,-1.55581 -1.55581,-10.04419 0,-11.6 0.85822,-0.85822 7.26667,-1.2 22.5,-1.2 H 529 l -0.0183,-3.75 c -0.0291,-5.9586 -2.73572,-23.45343 -5.00117,-32.32635 -2.38047,-9.32335 -5.46249,-17.80986 -10.6013,-29.19118 l -3.59781,-7.96834 7.85709,-7.90344 c 9.12234,-9.17616 8.02721,-9.5182 14.85384,4.63931 10.24311,21.24281 16.59315,45.78734 18.6738,72.17896 0.975,12.36715 0.95514,15.46999 -0.10717,16.75 C 549.92399,267.79651 545.65205,268 518.07756,268 494.77279,268 486.08282,267.68282 485.2,266.8 Z M 171.00912,225.78383 c 0.0153,-3.82858 4.80421,-21.3713 8.62935,-31.61091 C 202.32705,133.43713 255.01035,87.583374 318.11682,73.646069 333.26068,70.30149 346.53896,68.796704 357.5,69.182899 l 9,0.317101 v 32 32 h -6 -6 l -0.5,-21 -0.5,-21 -7,0.299974 C 298.28779,93.866035 247.19773,123.52247 218.79322,165.93039 207.26103,183.14794 200.67886,198.31615 193.16024,225 c -0.68843,2.44326 -0.94789,2.50644 -11.43233,2.78383 -10.59078,0.28021 -10.72779,0.25464 -10.71879,-2 z m 293.0723,-99.21581 C 448.0647,113.18644 422.96172,100.90542 399.5,94.97314 l -11,-2.78134 -0.28679,-10.259115 c -0.15773,-5.642513 0.0788,-10.624701 0.52563,-11.071528 1.1306,-1.130598 20.16093,3.310427 33.03761,7.709843 19.5262,6.671275 45.99964,21.61471 59.58117,33.63173 l 4.85763,4.29806 -8.06337,6.7496 c -4.43485,3.71229 -8.4907,6.74961 -9.01301,6.74961 -0.5223,0 -2.79816,-1.54439 -5.05745,-3.43198 z"
         id="path1414"
         inkscape:connector-curvature="0" />
    </g>
  </g>
</svg>
