<?xml version="1.0" encoding="UTF-8" standalone="no"?>
<!-- Created with Inkscape (http://www.inkscape.org/) -->

<svg
   xmlns:dc="http://purl.org/dc/elements/1.1/"
   xmlns:cc="http://creativecommons.org/ns#"
   xmlns:rdf="http://www.w3.org/1999/02/22-rdf-syntax-ns#"
   xmlns:svg="http://www.w3.org/2000/svg"
   xmlns="http://www.w3.org/2000/svg"
   xmlns:sodipodi="http://sodipodi.sourceforge.net/DTD/sodipodi-0.dtd"
   xmlns:inkscape="http://www.inkscape.org/namespaces/inkscape"
   version="1.1"
   id="svg859"
   width="545.27295"
   height="510.07736"
   viewBox="0 0 545.27295 510.07736"
   sodipodi:docname="TSLogo.svg"
   inkscape:version="0.92.4 (5da689c313, 2019-01-14)">
  <metadata
     id="metadata865">
    <rdf:RDF>
      <cc:Work
         rdf:about="">
        <dc:format>image/svg+xml</dc:format>
        <dc:type
           rdf:resource="http://purl.org/dc/dcmitype/StillImage" />
        <dc:title />
      </cc:Work>
    </rdf:RDF>
  </metadata>
  <defs
     id="defs863" />
  <sodipodi:namedview
     pagecolor="#ffffff"
     bordercolor="#666666"
     borderopacity="1"
     objecttolerance="10"
     gridtolerance="10"
     guidetolerance="10"
     inkscape:pageopacity="0"
     inkscape:pageshadow="2"
     inkscape:window-width="1920"
     inkscape:window-height="1017"
     id="namedview861"
     showgrid="false"
     inkscape:snap-page="false"
     inkscape:zoom="1.3139937"
     inkscape:cx="271.1254"
     inkscape:cy="372.45708"
     inkscape:window-x="-8"
     inkscape:window-y="-8"
     inkscape:window-maximized="1"
     inkscape:current-layer="g1412" />
  <g
     id="g1412"
     transform="matrix(1.2507058,0,0,1.2507058,-206.40124,-61.259711)">
    <path
       style="fill:#800000"
       d="m 322.49295,273.90956 c -20.34612,-22.07893 -42.22932,-45.82837 -48.62932,-52.77653 -6.4,-6.94817 -11.53665,-12.74638 -11.41477,-12.88493 0.12188,-0.13854 21.6387,9.87396 47.81515,22.25 26.17645,12.37605 48.27124,22.5019 49.09954,22.5019 0.82829,0 6.37284,-4.14824 12.32122,-9.21832 20.29171,-17.29557 36.80941,-31.29164 41.31523,-35.00796 2.475,-2.04134 8.34913,-6.98802 13.05362,-10.99262 14.62383,-12.44824 73.7404,-62.40867 88.32035,-74.64104 13.05386,-10.952 28.44288,-23.986861 42.12603,-35.681726 16.39555,-14.013131 31.77292,-26.546236 29.91848,-24.38463 -3.40002,3.963201 -29.03647,32.7869 -36.84548,41.426296 -10.99451,12.16364 -140.02016,155.69075 -165.45186,184.04735 -12.30838,13.72396 -22.88655,25.07709 -23.50705,25.22919 -0.6205,0.15209 -17.77501,-17.78805 -38.12114,-39.86698 z M 477.2,243.8 c -1.31022,-1.31022 -1.54235,-3.74428 -0.59301,-6.21821 0.50786,-1.32347 2.61089,-1.58179 12.87755,-1.58179 9.10513,0 12.56074,-0.34964 13.3954,-1.35534 2.27956,-2.7467 -3.20531,-25.52146 -8.77619,-36.44129 -2.46801,-4.83771 -2.29655,-5.33784 3.64976,-10.64565 3.39543,-3.03085 4.5379,-3.56076 5.66325,-2.62681 2.17623,1.80612 9.3853,18.98171 11.63834,27.72835 2.84596,11.04841 4.54218,28.91613 2.92954,30.85925 C 516.97677,244.73292 513.29784,245 497.57756,245 483.99501,245 478.0499,244.6499 477.2,243.8 Z"
       id="path1420"
       inkscape:connector-curvature="0"
       sodipodi:nodetypes="sscsssssssssscsscscsccscss" />
    <path
       style="fill:#9c0170"
       d="M 354.66667,454.33333 C 354.3,453.96667 354,438.66667 354,420.33333 V 387 h 6.35045 6.35045 l 0.68327,12.94266 c 0.3758,7.11847 0.38483,15.85567 0.0201,19.41601 -0.36476,3.56034 -0.37137,7.63614 -0.0147,9.05734 0.57746,2.30077 1.14281,2.58399 5.15806,2.58399 2.48024,0 10.14243,-1.14054 17.0271,-2.53452 51.6059,-10.44902 93.81212,-41.20118 118.67072,-86.46548 7.00009,-12.74626 14.6064,-33.74303 16.81201,-46.40855 L 526.20531,289 h 11.89734 c 6.54354,0 11.89735,0.40046 11.89735,0.88992 0,0.48946 -0.87417,5.10196 -1.94261,10.25 -8.02975,38.68983 -23.69214,68.24109 -50.98207,96.19125 -32.97913,33.777 -75.25238,53.89434 -121.24488,57.69899 -13.48582,1.11559 -20.25439,1.21255 -21.16377,0.30317 z M 320.5,450.82333 C 293.94266,444.38342 271.15561,434.89 253,422.70184 216.31365,398.07368 187.30983,359.08291 174.97123,317.80527 170.25362,302.02294 167,281.04921 167,266.42053 V 254 h 33.54569 33.54569 l -0.29569,6.75 -0.29569,6.75 -20.96154,0.28326 c -15.07182,0.20368 -21.19331,0.62514 -21.78639,1.5 -1.80339,2.66017 2.0471,26.71211 6.73882,42.09385 7.24057,23.73814 22.18063,48.98626 39.82892,67.30934 24.89601,25.84792 53.23571,41.34998 90.93019,49.73959 L 331,429.0381 V 440.51905 452 l -3.25,-0.10335 c -1.7875,-0.0568 -5.05,-0.53984 -7.25,-1.07332 z M 376,391.14981 V 366 h 3.5 3.5 v 15.8 c 0,16.68301 0.38647,18.2 4.63665,18.2 2.32947,0 15.71682,-3.03052 22.15096,-5.01436 16.36293,-5.04518 32.49886,-14.78749 47.06288,-28.41492 9.01748,-8.43758 21.43623,-26.55354 27.19081,-39.66483 3.43227,-7.8201 8.95606,-24.30105 8.96428,-26.74607 0.003,-0.9129 0.47422,-3.34732 1.047,-5.40982 l 1.04143,-3.75 h 6.95299 c 5.37296,0 6.953,0.32601 6.953,1.43462 0,2.95592 -3.14136,16.39447 -5.99053,25.62713 -16.94858,54.92149 -64.33241,94.71392 -116.25947,97.63347 l -10.75,0.6044 z m -62,18.38952 C 283.82313,401.35673 261.23295,388.07751 241.96671,367.19589 221.35048,344.85108 209.0588,315.58851 209.01567,288.75 L 209,279 h 24 24 v 3.5 3.5 h -15.46482 c -18.65599,0 -18.31497,-0.24399 -16.49066,11.79842 3.74413,24.71527 14.8702,46.19705 33.45548,64.59456 9.85531,9.75574 24.10713,19.71891 35.88398,25.08579 7.80402,3.55641 24.26805,8.88252 30.86602,9.98516 l 3.75,0.6267 V 405.04531 412 l -3.25,-0.0779 c -1.7875,-0.0429 -7.075,-1.11509 -11.75,-2.38274 z M 484,261.0195 v -6.9805 l 21.75,-0.2695 21.75,-0.2695 -0.16454,-9.51218 c -0.25365,-14.66406 -6.22269,-36.98819 -14.95699,-55.93893 l -3.43417,-7.45112 8.20535,-8.2482 c 4.51294,-4.53651 8.58885,-8.01119 9.05757,-7.7215 1.49098,0.92147 10.40867,19.51956 14.08369,29.37193 6.84323,18.34602 10.48793,37.28873 11.40009,59.25 L 552.30364,268 H 518.15182 484 Z M 478,240 v -3 h 12.98095 12.98095 l 0.64333,-2.56326 c 1.26002,-5.0203 -6.6251,-35.09492 -9.69954,-36.99503 -1.92271,-1.1883 -0.76237,-5.18828 2.39192,-8.24554 1.81368,-1.75789 3.8322,-3.19617 4.4856,-3.19617 0.6534,0 2.48827,2.5875 4.07748,5.75 C 512.67916,205.31859 517,222.41603 517,235.82793 V 243 H 497.5 478 Z M 170,227.09711 c 0,-6.4158 7.18653,-29.96752 13.5776,-44.49653 9.88297,-22.46728 21.43958,-38.84686 41.34561,-58.60058 20.5846,-20.42709 40.32393,-33.249005 66.96129,-43.49549 21.55497,-8.291463 67.82211,-15.505848 74.07535,-11.550488 1.20376,0.761418 1.47948,4.882654 1.57177,23.494079 0.0616,12.413879 -0.14537,26.953959 -0.45985,32.311289 L 366.5,134.5 h -6 -6 l -0.55134,-21 c -0.30323,-11.55 -0.64073,-21.179884 -0.75,-21.399743 -0.4455,-0.896413 -18.31675,0.988295 -26.97286,2.844568 C 262.27407,108.65905 212.2433,156.11356 195.60382,218.84065 l -2.29705,8.65935 -11.65339,0.28174 C 174.62722,227.9516 170,227.67976 170,227.09711 Z M 211.56723,223.25 c 2.59299,-14.78092 8.98507,-32.93758 16.5066,-46.88693 6.30197,-11.68754 9.36561,-16.10612 18.28041,-26.36513 C 258.11051,136.46901 269.71379,127.44453 285.5,119.55223 302.17902,111.21357 314.20383,108 328.72707,108 H 339 v 23.5 23.5 h -3 -3 v -14.06574 c 0,-7.78353 -0.46235,-14.92965 -1.03518,-16 -0.63832,-1.19271 -2.07598,-1.9272 -3.75,-1.91583 -4.04746,0.0275 -19.35509,2.865 -20.61759,3.82183 -0.60348,0.45736 -3.57223,1.60657 -6.59723,2.55379 -3.025,0.94723 -6.91886,2.48357 -8.65303,3.41409 -1.73416,0.93052 -5.4831,2.92909 -8.33097,4.44127 -8.32428,4.42004 -21.50766,15.47095 -29.36079,24.61154 -6.35131,7.39255 -17.30926,24.11908 -20.07238,30.63905 -3.01145,7.10594 -8.73689,25.16519 -10.0659,31.75 -0.53735,2.66239 -0.76296,2.75 -7.0813,2.75 h -6.52626 z M 442.56802,145.51052 C 431.13527,136.6328 412.90548,128.15767 396.5,124.09323 l -7,-1.73424 -0.29206,-7.67949 -0.29207,-7.6795 2.79207,0.0235 c 3.06225,0.0258 13.15757,2.62454 23.29206,5.99581 13.07769,4.35035 31.47669,14.57988 42.77922,23.78452 l 4.27922,3.48494 -5.27922,4.8102 c -2.90357,2.64561 -5.98806,4.83063 -6.85443,4.8556 -0.86636,0.025 -4.17691,-1.97487 -7.35677,-4.44409 z m 21.43517,-18.00786 C 447.46602,113.68625 423.4066,101.8816 398.75,95.486461 L 388,92.698253 V 81.349126 c 0,-13.247276 -0.99336,-12.527858 13,-9.414987 27.83176,6.191274 56.10272,19.799981 79.33012,38.186901 3.04247,2.40843 5.76311,4.91383 6.04587,5.56755 C 486.88738,116.87089 470.99533,131 469.15412,131 c -0.53069,0 -2.84861,-1.5738 -5.15093,-3.49734 z"
       id="path1418"
       inkscape:connector-curvature="0"
       sodipodi:nodetypes="cscccsccscsscsscsscsssscccccscsscccccsccccssssscccsssscccsscccccsssscccccccccccsccscsscccccccccssscsccccssssccccccscssccscsssscccccsccccccsssscccscccccscsccccscssscsc" />
    <path
       style="fill:#363636"
       d="M 354.66667,454.33333 C 354.3,453.96667 354,438.66667 354,420.33333 V 387 h 6.35045 6.35045 l 0.68327,12.94266 c 0.3758,7.11847 0.38483,15.85567 0.0201,19.41601 -0.36476,3.56034 -0.37137,7.63614 -0.0147,9.05734 0.57746,2.30077 1.14281,2.58399 5.15806,2.58399 2.48024,0 10.14243,-1.14054 17.0271,-2.53452 51.6059,-10.44902 93.81212,-41.20118 118.67072,-86.46548 7.00009,-12.74626 14.6064,-33.74303 16.81201,-46.40855 L 526.20531,289 h 11.89734 c 6.54354,0 11.89735,0.40046 11.89735,0.88992 0,0.48946 -0.87417,5.10196 -1.94261,10.25 -8.02975,38.68983 -23.69214,68.24109 -50.98207,96.19125 -32.97913,33.777 -75.25238,53.89434 -121.24488,57.69899 -13.48582,1.11559 -20.25439,1.21255 -21.16377,0.30317 z M 320.5,450.82333 C 293.94266,444.38342 271.15561,434.89 253,422.70184 216.31365,398.07368 187.30983,359.08291 174.97123,317.80527 170.25362,302.02294 167,281.04921 167,266.42053 V 254 h 33.54569 33.54569 l -0.29569,6.75 -0.29569,6.75 -20.96154,0.28326 c -15.07182,0.20368 -21.19331,0.62514 -21.78639,1.5 -1.80339,2.66017 2.0471,26.71211 6.73882,42.09385 7.24057,23.73814 22.18063,48.98626 39.82892,67.30934 24.89601,25.84792 53.23571,41.34998 90.93019,49.73959 L 331,429.0381 V 440.51905 452 l -3.25,-0.10335 c -1.7875,-0.0568 -5.05,-0.53984 -7.25,-1.07332 z M 376,391.14981 V 366 h 3.5 3.5 v 15.8 c 0,16.68301 0.38647,18.2 4.63665,18.2 2.32947,0 15.71682,-3.03052 22.15096,-5.01436 16.36293,-5.04518 32.49886,-14.78749 47.06288,-28.41492 9.01748,-8.43758 21.43623,-26.55354 27.19081,-39.66483 3.43227,-7.8201 8.95606,-24.30105 8.96428,-26.74607 0.003,-0.9129 0.47422,-3.34732 1.047,-5.40982 l 1.04143,-3.75 h 6.95299 c 5.37296,0 6.953,0.32601 6.953,1.43462 0,2.95592 -3.14136,16.39447 -5.99053,25.62713 -16.94858,54.92149 -64.33241,94.71392 -116.25947,97.63347 l -10.75,0.6044 z m -62,18.38952 C 283.82313,401.35673 261.23295,388.07751 241.96671,367.19589 221.35048,344.85108 209.0588,315.58851 209.01567,288.75 L 209,279 h 24 24 v 3.5 3.5 h -15.46482 c -18.65599,0 -18.31497,-0.24399 -16.49066,11.79842 3.74413,24.71527 14.8702,46.19705 33.45548,64.59456 9.85531,9.75574 24.10713,19.71891 35.88398,25.08579 7.80402,3.55641 24.26805,8.88252 30.86602,9.98516 l 3.75,0.6267 V 405.04531 412 l -3.25,-0.0779 c -1.7875,-0.0429 -7.075,-1.11509 -11.75,-2.38274 z M 484,261.0195 v -6.9805 l 21.75,-0.2695 21.75,-0.2695 -0.16454,-9.51218 c -0.25365,-14.66406 -6.22269,-36.98819 -14.95699,-55.93893 l -3.43417,-7.45112 8.20535,-8.2482 c 4.51294,-4.53651 8.58885,-8.01119 9.05757,-7.7215 1.49098,0.92147 10.40867,19.51956 14.08369,29.37193 6.84323,18.34602 10.48793,37.28873 11.40009,59.25 L 552.30364,268 H 518.15182 484 Z M 478,240 v -3 h 12.98095 12.98095 l 0.64333,-2.56326 c 1.26002,-5.0203 -6.6251,-35.09492 -9.69954,-36.99503 -1.92271,-1.1883 -0.76237,-5.18828 2.39192,-8.24554 1.81368,-1.75789 3.8322,-3.19617 4.4856,-3.19617 0.6534,0 2.48827,2.5875 4.07748,5.75 C 512.67916,205.31859 517,222.41603 517,235.82793 V 243 H 497.5 478 Z M 170,227.09711 c 0,-6.4158 7.18653,-29.96752 13.5776,-44.49653 9.88297,-22.46728 21.43958,-38.84686 41.34561,-58.60058 20.5846,-20.42709 40.32393,-33.249005 66.96129,-43.49549 21.55497,-8.291463 67.82211,-15.505848 74.07535,-11.550488 1.20376,0.761418 1.47948,4.882654 1.57177,23.494079 0.0616,12.413879 -0.14537,26.953959 -0.45985,32.311289 L 366.5,134.5 h -6 -6 l -0.55134,-21 c -0.30323,-11.55 -0.64073,-21.179884 -0.75,-21.399743 -0.4455,-0.896413 -18.31675,0.988295 -26.97286,2.844568 C 262.27407,108.65905 212.2433,156.11356 195.60382,218.84065 l -2.29705,8.65935 -11.65339,0.28174 C 174.62722,227.9516 170,227.67976 170,227.09711 Z M 211.56723,223.25 c 2.59299,-14.78092 8.98507,-32.93758 16.5066,-46.88693 6.30197,-11.68754 9.36561,-16.10612 18.28041,-26.36513 C 258.11051,136.46901 269.71379,127.44453 285.5,119.55223 302.17902,111.21357 314.20383,108 328.72707,108 H 339 v 23.5 23.5 h -3 -3 v -14.06574 c 0,-7.78353 -0.46235,-14.92965 -1.03518,-16 -0.63832,-1.19271 -2.07598,-1.9272 -3.75,-1.91583 -4.04746,0.0275 -19.35509,2.865 -20.61759,3.82183 -0.60348,0.45736 -3.57223,1.60657 -6.59723,2.55379 -3.025,0.94723 -6.91886,2.48357 -8.65303,3.41409 -1.73416,0.93052 -5.4831,2.92909 -8.33097,4.44127 -8.32428,4.42004 -21.50766,15.47095 -29.36079,24.61154 -6.35131,7.39255 -17.30926,24.11908 -20.07238,30.63905 -3.01145,7.10594 -8.73689,25.16519 -10.0659,31.75 -0.53735,2.66239 -0.76296,2.75 -7.0813,2.75 h -6.52626 z M 442.56802,145.51052 C 431.13527,136.6328 412.90548,128.15767 396.5,124.09323 l -7,-1.73424 -0.29206,-7.67949 -0.29207,-7.6795 2.79207,0.0235 c 3.06225,0.0258 13.15757,2.62454 23.29206,5.99581 13.07769,4.35035 31.47669,14.57988 42.77922,23.78452 l 4.27922,3.48494 -5.27922,4.8102 c -2.90357,2.64561 -5.98806,4.83063 -6.85443,4.8556 -0.86636,0.025 -4.17691,-1.97487 -7.35677,-4.44409 z m 21.43517,-18.00786 C 447.46602,113.68625 423.4066,101.8816 398.75,95.486461 L 388,92.698253 V 81.349126 c 0,-13.247276 -0.99336,-12.527858 13,-9.414987 27.83176,6.191274 56.10272,19.799981 79.33012,38.186901 3.04247,2.40843 5.76311,4.91383 6.04587,5.56755 C 486.88738,116.87089 470.99533,131 469.15412,131 c -0.53069,0 -2.84861,-1.5738 -5.15093,-3.49734 z"
       id="path1416"
       inkscape:connector-curvature="0" />
    <path
       style="fill:#010101"
       d="m 354.51211,452.89215 c -0.29747,-0.7752 -0.42189,-15.80556 -0.27649,-33.4008 L 354.5,387.5 h 6 6 l 0.5,22 0.5,22 6.5,-0.30293 c 3.575,-0.16661 11.15356,-1.21564 16.84125,-2.33118 45.94695,-9.01173 86.30538,-36.3372 111.51658,-75.50454 9.95075,-15.45917 21.23605,-43.13693 23.18458,-56.86135 0.39043,-2.75 1.15821,-5.5625 1.70618,-6.25 0.68343,-0.85746 4.2956,-1.25 11.50269,-1.25 h 10.50638 l -0.66997,5.05048 c -0.36848,2.77776 -2.03406,10.30415 -3.70129,16.72531 -8.8563,34.10924 -25.88368,63.37257 -51.09095,87.80514 -28.18356,27.31741 -59.24783,43.90445 -97.29545,51.95179 -14.9516,3.16236 -41.11559,4.6326 -41.98789,2.35943 z M 318,449.45065 C 245.24419,432.80614 188.83507,376.57964 172.07691,304 c -3.01864,-13.07376 -4.34448,-24.18114 -4.46596,-37.41421 L 167.5,254.5 h 33 33 v 6 6 l -21.5,0.5 -21.5,0.5 0.19201,9.5 c 0.66974,33.13651 19.05408,74.09667 45.6514,101.71095 23.90148,24.81537 50.07763,40.0024 83.15659,48.24629 l 11,2.7414 v 10.81735 c 0,6.37175 -0.41097,10.92408 -1,11.07706 -0.55,0.14284 -5.725,-0.82124 -11.5,-2.1424 z M 485.2,266.8 c -1.55581,-1.55581 -1.55581,-10.04419 0,-11.6 0.85822,-0.85822 7.26667,-1.2 22.5,-1.2 H 529 l -0.0183,-3.75 c -0.0291,-5.9586 -2.73572,-23.45343 -5.00117,-32.32635 -2.38047,-9.32335 -5.46249,-17.80986 -10.6013,-29.19118 l -3.59781,-7.96834 7.85709,-7.90344 c 9.12234,-9.17616 8.02721,-9.5182 14.85384,4.63931 10.24311,21.24281 16.59315,45.78734 18.6738,72.17896 0.975,12.36715 0.95514,15.46999 -0.10717,16.75 C 549.92399,267.79651 545.65205,268 518.07756,268 494.77279,268 486.08282,267.68282 485.2,266.8 Z M 171.00912,225.78383 c 0.0153,-3.82858 4.80421,-21.3713 8.62935,-31.61091 C 202.32705,133.43713 255.01035,87.583374 318.11682,73.646069 333.26068,70.30149 346.53896,68.796704 357.5,69.182899 l 9,0.317101 v 32 32 h -6 -6 l -0.5,-21 -0.5,-21 -7,0.299974 C 298.28779,93.866035 247.19773,123.52247 218.79322,165.93039 207.26103,183.14794 200.67886,198.31615 193.16024,225 c -0.68843,2.44326 -0.94789,2.50644 -11.43233,2.78383 -10.59078,0.28021 -10.72779,0.25464 -10.71879,-2 z m 293.0723,-99.21581 C 448.0647,113.18644 422.96172,100.90542 399.5,94.97314 l -11,-2.78134 -0.28679,-10.259115 c -0.15773,-5.642513 0.0788,-10.624701 0.52563,-11.071528 1.1306,-1.130598 20.16093,3.310427 33.03761,7.709843 19.5262,6.671275 45.99964,21.61471 59.58117,33.63173 l 4.85763,4.29806 -8.06337,6.7496 c -4.43485,3.71229 -8.4907,6.74961 -9.01301,6.74961 -0.5223,0 -2.79816,-1.54439 -5.05745,-3.43198 z"
       id="path1414"
       inkscape:connector-curvature="0" />
  </g>
</svg>
