<?xml version="1.0" encoding="UTF-8" standalone="no"?>
<!-- Created with Inkscape (http://www.inkscape.org/) -->

<svg
   xmlns:dc="http://purl.org/dc/elements/1.1/"
   xmlns:cc="http://creativecommons.org/ns#"
   xmlns:rdf="http://www.w3.org/1999/02/22-rdf-syntax-ns#"
   xmlns:svg="http://www.w3.org/2000/svg"
   xmlns="http://www.w3.org/2000/svg"
   xmlns:sodipodi="http://sodipodi.sourceforge.net/DTD/sodipodi-0.dtd"
   xmlns:inkscape="http://www.inkscape.org/namespaces/inkscape"
   version="1.1"
   id="svg859"
   width="545.27295"
   height="510.07736"
   viewBox="0 0 545.27295 510.07736"
   sodipodi:docname="TSLogo.svg"
   inkscape:version="0.92.4 (5da689c313, 2019-01-14)">
  <metadata
     id="metadata865">
    <rdf:RDF>
      <cc:Work
         rdf:about="">
        <dc:format>image/svg+xml</dc:format>
        <dc:type
           rdf:resource="http://purl.org/dc/dcmitype/StillImage" />
        <dc:title></dc:title>
      </cc:Work>
    </rdf:RDF>
  </metadata>
  <defs
     id="defs863" />
  <sodipodi:namedview
     pagecolor="#ffffff"
     bordercolor="#666666"
     borderopacity="1"
     objecttolerance="10"
     gridtolerance="10"
     guidetolerance="10"
     inkscape:pageopacity="0"
     inkscape:pageshadow="2"
     inkscape:window-width="1920"
     inkscape:window-height="1017"
     id="namedview861"
     showgrid="false"
     inkscape:snap-page="false"
     inkscape:zoom="0.92913386"
     inkscape:cx="315.19772"
     inkscape:cy="352.56453"
     inkscape:window-x="-8"
     inkscape:window-y="-8"
     inkscape:window-maximized="1"
     inkscape:current-layer="svg859" />
  <g
     id="g1412"
     transform="matrix(1.2507058,0,0,1.2507058,-206.40124,-61.259711)">
    <path
       style="fill:#dfaed1"
       d="M 352.75,456.45219 C 352.3375,456.02015 352,439.76667 352,420.33333 V 385 h 8.5 c 4.675,0 8.53877,0.3375 8.58615,0.75 0.0474,0.4125 0.21648,10.2 0.37579,21.75 l 0.28963,21 5.87422,-0.26571 c 22.00265,-0.99523 57.47261,-14.00453 78.40667,-28.75717 17.46181,-12.30567 34.79997,-30.22418 45.93942,-47.47712 9.59918,-14.86736 19.21312,-38.47006 22.81013,-56 l 1.74413,-8.5 9.48693,-0.69623 c 11.03378,-0.80976 16.89876,-0.19711 17.68322,1.84717 0.67798,1.76676 -1.99861,15.78362 -5.22244,27.34906 -12.14095,43.55557 -41.04949,82.66199 -80.44753,108.82649 -28.98517,19.24925 -62.51785,30.16122 -97.52632,31.73634 -8.25,0.37119 -15.3375,0.3214 -15.75,-0.11064 z M 320,452.86023 C 272.55486,442.94294 229.10167,414.46999 200.60407,374.62539 177.83269,342.78705 164.50263,301.9885 165.22125,266.33123 L 165.5,252.5 l 35.13815,-0.26267 c 27.57898,-0.20616 35.23772,0.009 35.60101,1 0.25458,0.69447 0.19241,4.63767 -0.13815,8.76267 L 235.5,269.5 214,270 l -21.5,0.5 0.25387,5 c 1.22599,24.14618 12.386,56.03134 27.61555,78.90014 23.29859,34.98532 59.28773,60.04143 100.61243,70.04769 5.49774,1.33121 10.4509,2.70159 11.00702,3.04529 0.59652,0.36867 1.01113,5.88744 1.01113,13.45891 0,10.78043 -0.2531,12.93112 -1.58179,13.44098 -0.86998,0.33385 -1.65748,0.57234 -1.75,0.52998 -0.0925,-0.0424 -4.44321,-0.9706 -9.66821,-2.06276 z m 53.50758,-34.97988 c -0.29794,-0.77641 -0.42152,-13.32961 -0.27464,-27.896 L 373.5,363.5 h 6 6 l 0.27497,16.29097 c 0.22385,13.26264 0.54937,16.39626 1.75116,16.85743 3.50119,1.34353 25.90025,-5.25347 37.89342,-11.16044 17.58362,-8.66041 33.43588,-22.92938 45.2566,-40.73648 10.18748,-15.34671 16.38676,-30.74927 21.03041,-52.25148 l 0.86384,-4 9.2317,-0.28775 c 7.90832,-0.2465 9.3246,-0.0457 9.87974,1.40102 1.85803,4.84196 -7.26801,36.67542 -14.94103,52.11728 -22.19578,44.66876 -65.47337,74.68868 -110.96617,76.97276 -9.56879,0.48042 -11.82499,0.32906 -12.26706,-0.82296 z M 313.5,412.49433 C 285.89098,405.24643 263.78758,392.85107 244.93185,374.042 233.51719,362.65558 227.68766,355.01669 220.86095,342.5 210.582,323.65369 205.70986,305.15756 206.21343,286.89355 L 206.5,276.5 h 26.5 26.5 l 0.30796,4.82769 c 0.48129,7.54474 0.19147,7.67231 -17.4304,7.67231 -11.63709,0 -15.37678,0.30405 -15.37437,1.25 0.009,3.67496 3.37075,19.64023 5.52366,26.23551 12.079,37.00302 47.61087,67.87058 88.7947,77.13854 11.1594,2.5113 10.80086,2.09401 10.46657,12.18154 L 331.5,414.5 327,414.6785 c -2.475,0.0982 -8.55,-0.8847 -13.5,-2.18417 z m 6.93534,-136.65909 C 299.5709,253.19462 276.7625,228.43664 269.75,220.81749 262.7375,213.19835 257,206.50836 257,205.95087 c 0,-0.5575 0.66961,-1.27059 1.48801,-1.58464 0.8227,-0.3157 23.36807,9.75841 50.42414,22.53138 C 335.82701,239.60393 358.34204,250 358.94553,250 c 0.60349,0 7.04588,-5.0625 14.31641,-11.25 19.2675,-16.39736 32.97638,-27.99803 45.79211,-38.75 6.2279,-5.225 13.15102,-11.11791 15.38471,-13.09535 3.66952,-3.24857 41.98734,-35.58781 77.92252,-65.76457 7.62371,-6.40204 18.8908,-15.91508 25.03799,-21.14008 6.14719,-5.225 14.98461,-12.72193 19.63872,-16.659845 4.65411,-3.937914 15.66118,-13.275414 24.46018,-20.75 C 595.87094,50.380744 601,47.060329 601,49.965204 c 0,0.530862 -1.4625,2.6635 -3.25,4.739195 C 593.80424,59.286331 561.61477,95.393324 551.5741,106.5 534.31108,125.59582 405.79692,268.63359 386.70612,290 c -23.31111,26.08978 -24.20891,27 -26.63156,27 -0.96321,0 -18.19425,-17.89419 -39.63922,-41.16476 z m 161.99123,-7.166 c -0.28628,-0.74603 -0.38687,-4.6893 -0.22354,-8.76282 L 482.5,252.5 504,252 l 21.5,-0.5 0.32797,-2.86968 c 1.03838,-9.08557 -5.82026,-37.77102 -12.83038,-53.66159 -2.29742,-5.2078 -4.68661,-10.70948 -5.30932,-12.22595 -1.08591,-2.64449 -0.76622,-3.1249 7.81892,-11.75 C 520.4303,166.04675 525.23106,162 526.17554,162 c 1.21069,0 3.62787,3.90848 8.19441,13.25 13.2426,27.08968 20.37013,58.34452 19.44089,85.25 l -0.31084,9 -35.27646,0.26282 c -28.95547,0.21573 -35.36973,0.0198 -35.79697,-1.09358 z m -6.74092,-23.31692 C 475.30854,244.97521 475,242.53981 475,239.94032 c 0,-3.38732 0.44814,-4.89831 1.58179,-5.33333 0.86998,-0.33385 6.94498,-0.60699 13.5,-0.60699 13.91718,0 13.10802,1.07644 9.94462,-13.22943 -1.74775,-7.9039 -3.42573,-12.69969 -8.40634,-24.02593 l -1.65139,-3.75535 4.20301,-4.55973 c 4.83118,-5.24121 7.06321,-6.66039 9.19101,-5.84387 1.84271,0.70711 8.9735,15.07588 11.6689,23.51323 2.98875,9.35561 5.10765,23.52531 4.77039,31.90108 l -0.30199,7.5 -21.56435,0.26899 c -11.86039,0.14794 -21.87289,-0.0396 -22.25,-0.41667 z M 180.20589,230.21684 c -8.85367,-0.22198 -11.41664,-0.60248 -11.86117,-1.76091 -1.59925,-4.16758 5.62833,-29.41168 13.52323,-47.23322 5.43703,-12.27326 16.22887,-29.9978 25.19653,-41.38283 3.38138,-4.29289 11.70404,-13.17582 18.49479,-19.73984 24.04055,-23.237897 53.72841,-39.721199 86.82438,-48.206651 10.45526,-2.68062 34.83118,-5.850468 45.17522,-5.874593 12.90306,-0.03009 11.94113,-2.928975 11.94113,35.985984 0,23.8985 -0.32341,33.43349 -1.1575,34.12581 -0.63663,0.52842 -4.46163,0.82771 -8.5,0.66509 L 352.5,136.5 l -0.5,-21 -0.5,-21 -7.5,0.267081 c -11.83214,0.421351 -32.13887,5.204601 -46.26167,10.896939 -30.98253,12.48781 -60.3907,36.5742 -78.05094,63.92662 -9.67341,14.98231 -19.1311,37.35372 -23.69335,56.04474 -0.63213,2.58973 -1.66061,4.27166 -2.75172,4.5 -0.95828,0.20054 -6.82467,0.2372 -13.03643,0.0815 z m 28.27143,-1.25354 c -1.45498,-2.3542 3.77529,-23.55781 9.18624,-37.2412 3.03423,-7.67306 9.52456,-20.04331 15.90998,-30.32364 7.7624,-12.49724 30.65789,-34.36173 42.30341,-40.39846 2.65252,-1.375 5.45283,-3.0131 6.22291,-3.64023 2.8873,-2.35134 18.73806,-8.19775 27.90014,-10.29072 7.3659,-1.68265 11.97106,-2.10265 20.5,-1.86961 l 11,0.30056 v 26 26 h -5.5 -5.5 l -0.27804,-14.97804 c -0.15292,-8.23792 -0.69292,-15.39292 -1.20001,-15.90001 -1.10711,-1.10711 -15.13083,0.90054 -19.52195,2.79479 -1.65,0.71178 -4.8,1.8509 -7,2.53137 -14.6783,4.54012 -33.98148,17.97318 -45.79183,31.86648 C 252.15665,169.16885 244,180.65462 244,181.70958 c 0,0.26492 -0.82127,1.67615 -1.82505,3.13605 -4.16584,6.05885 -12.13866,27.1337 -14.20749,37.55518 -0.53509,2.69544 -1.47677,5.50794 -2.09262,6.25 -1.35636,1.63431 -16.41344,1.90477 -17.39752,0.31249 z m 234.30854,-79.8178 c -12.84837,-9.84774 -29.96683,-17.93644 -47.32299,-22.36075 L 386.5,124.5 v -10 -10 l 3.49636,-0.33173 c 6.86118,-0.65099 29.66046,6.55486 43.59403,13.77814 C 448.55318,125.70326 465,137.4987 465,140.47296 465,141.76755 451.30958,154 449.8607,154 c -0.40764,0 -3.59131,-2.18453 -7.07484,-4.8545 z M 465,130.95964 C 447.85337,116.32837 425.88796,105.19514 400.42078,98.227465 L 386.5,94.418821 386.21886,81.540548 c -0.15462,-7.08305 0.10832,-13.267726 0.58432,-13.743724 1.20385,-1.203849 21.6498,3.267552 34.26619,7.493802 18.95963,6.35111 39.89374,17.557778 56.43063,30.209034 9.02383,6.90352 11.5,9.2614 11.5,10.9506 0,1.37603 -18.2159,17.57338 -19.70656,17.52284 -0.43639,-0.0148 -2.36844,-1.37085 -4.29344,-3.01346 z"
       id="path1426"
       inkscape:connector-curvature="0" />
    <path
       style="fill:#a1a1a1"
       d="m 355.5,456.12174 -3,-0.64083 -0.26346,-33.87177 c -0.18796,-24.16438 0.0621,-34.26403 0.87244,-35.24046 1.16878,-1.40828 11.22875,-1.94378 14.30923,-0.76169 1.37418,0.52732 1.58179,3.41486 1.58179,22 V 429 h 5.0577 c 2.78174,0 9.64424,-0.92552 15.25,-2.0567 46.96683,-9.47742 86.13449,-35.82807 111.20679,-74.81609 9.94748,-15.46856 19.75873,-39.659 22.60034,-55.72296 0.67173,-3.79734 1.65079,-7.46675 2.17569,-8.15425 1.43787,-1.88327 24.05723,-1.74084 25.63597,0.16142 0.90862,1.09483 0.5764,4.06691 -1.48109,13.25 -6.61371,29.51853 -17.27108,53.24238 -34.29329,76.33858 -6.81411,9.24558 -23.12602,26.17072 -33.12579,34.37113 -29.75682,24.40239 -70.13127,41.0027 -104.83385,43.10336 -5.33086,0.32269 -11.71747,0.74452 -14.19247,0.93739 -2.475,0.19288 -5.85,0.0623 -7.5,-0.29014 z m -37,-4.11428 C 235.70814,433.13165 174.49645,364.527 166.04914,281.14405 164.63068,267.14256 164.69784,254.70216 166.2,253.2 c 1.40444,-1.40444 66.41168,-1.73288 68.59708,-0.34657 0.91941,0.58322 1.21058,2.98089 1,8.23468 L 235.5,268.5 214,269 l -21.5,0.5 0.22084,7.5 c 0.4596,15.60879 6.46911,38.167 14.91017,55.96904 13.25538,27.95533 33.76014,51.71027 59.36899,68.77944 15.76507,10.50797 38.10577,19.98735 55.95394,23.74183 4.06831,0.8558 7.99298,2.05067 8.72149,2.65529 1.77139,1.47012 1.87966,22.89931 0.12457,24.6544 -1.5473,1.5473 -3.5643,1.42711 -13.3,-0.79254 z m 55.61364,-35.79511 C 373.38421,414.84938 373,405.85341 373,390.13717 c 0,-20.47968 0.23018,-24.22449 1.57143,-25.56574 1.64391,-1.64391 4.38093,-1.95887 8.17857,-0.94114 2.21724,0.59419 2.25,0.84151 2.25,16.98634 V 397 h 3.93795 c 6.28014,0 20.97852,-3.70221 30.06205,-7.57199 32.13426,-13.68989 56.59959,-41.42178 68.36664,-77.49482 1.87182,-5.73825 3.72391,-12.80738 4.11575,-15.70917 0.96377,-7.13726 2.28617,-8.22402 10.00725,-8.22402 8.58584,0 9.51221,0.47356 9.50124,4.85699 -0.01,3.88724 -3.69394,19.43266 -7.14377,30.14301 -3.04982,9.46846 -12.65228,28.35111 -18.81574,37 -24.81139,34.81664 -60.1984,55.70833 -97.66773,57.6608 -11.60048,0.60449 -12.18552,0.54053 -13.25,-1.44845 z M 325.5,414.28574 c -6.37124,-0.88049 -19.4066,-4.49213 -28.5,-7.89635 -21.40287,-8.01242 -36.9707,-18.07463 -53.02962,-34.27552 -23.17303,-23.37789 -35.31061,-50.12436 -37.51887,-82.67688 -0.97223,-14.33197 -2.72374,-13.44049 26.36992,-13.42168 13.02321,0.008 24.26854,0.38946 24.98962,0.84675 0.8678,0.55034 1.20589,2.48915 1,5.73469 L 258.5,287.5 l -15.65257,0.2749 c -11.57746,0.20333 -15.78025,0.60766 -16.14304,1.55306 -0.79876,2.08153 2.06122,17.82682 4.83024,26.59231 5.12412,16.22073 14.72964,31.40386 28.38331,44.86458 17.41789,17.17175 37.78058,28.25609 62.04813,33.77562 3.88109,0.88274 7.72644,2.27489 8.54522,3.09368 2.10864,2.10864 2.04815,13.64355 -0.0827,15.77442 -0.86428,0.86429 -1.65178,1.50401 -1.75,1.4216 -0.0982,-0.0824 -1.52857,-0.3364 -3.17857,-0.56443 z M 354.92322,311.25 c -2.38233,-2.6125 -24.82714,-26.97721 -49.87736,-54.1438 -25.05022,-27.16658 -45.69586,-49.77908 -45.87919,-50.25 -0.18334,-0.47091 0.28427,-0.8562 1.03912,-0.8562 0.75486,0 23.31141,10.36478 50.12567,23.03285 28.2017,13.32355 49.26229,22.72162 49.96087,22.29452 0.66422,-0.40608 7.05342,-5.70837 14.19822,-11.78285 20.24027,-17.2082 33.26455,-28.22611 45.5635,-38.54452 6.2279,-5.225 13.15102,-11.11791 15.38471,-13.09535 3.66952,-3.24857 41.98734,-35.58781 77.92252,-65.76457 7.62371,-6.40204 18.8908,-15.91508 25.03799,-21.14008 6.14719,-5.225 14.98461,-12.721382 19.63872,-16.658626 4.65411,-3.937244 15.39466,-13.049744 23.86789,-20.25 C 596.37259,51.79808 602.59384,47.492842 596.84961,53.75 c -4.77203,5.198158 -37.38639,41.753364 -41.36655,46.36494 -2.19068,2.53822 -36.56223,40.78822 -76.38122,85 C 439.28285,229.32672 397.25486,276.075 385.70632,289 c -21.22937,23.75967 -24.31245,27 -25.68974,27 -0.41902,0 -2.71104,-2.1375 -5.09336,-4.75 z M 483.2,268.8 c -1.58053,-1.58053 -1.58053,-14.01947 0,-15.6 0.85619,-0.85619 7.14244,-1.2 21.94098,-1.2 12.68788,0 20.9799,-0.38657 21.35632,-0.99563 0.94967,-1.5366 -2.2299,-22.56589 -5.05587,-33.43888 -2.65687,-10.22237 -6.77069,-21.33493 -10.95469,-29.59166 C 509.11903,185.27479 508,182.25465 508,181.26239 c 0,-0.99225 3.98221,-5.76785 8.84936,-10.61245 7.99528,-7.95823 8.99905,-8.65867 10.4003,-7.25742 5.8066,5.8066 19.93364,43.15299 23.11517,61.10748 3.32065,18.73965 4.60635,42.12882 2.43517,44.3 -1.71859,1.71859 -67.88141,1.71859 -69.6,0 z m -6.62857,-24.37143 c -1.81341,-1.81341 -2.02135,-4.71938 -0.53625,-7.49431 0.93773,-1.75215 2.19865,-1.93426 13.39301,-1.93426 10.15338,0 12.46224,-0.27209 12.94315,-1.52531 1.36869,-3.56676 -3.36903,-22.08089 -8.63985,-33.76289 l -3.06278,-6.7882 3.91564,-4.04096 c 7.68176,-7.9276 8.83518,-7.55884 14.4425,4.61736 6.2429,13.55636 9.02095,24.59681 10.46926,41.60668 C 520.45078,246.31899 521.09489,246 497.5,246 c -16.26407,0 -19.60824,-0.2511 -20.92857,-1.57143 z m -307.49908,-15.8414 c -0.90825,-1.09437 -0.68076,-3.51747 1.00923,-10.75 18.38128,-78.66479 83.12885,-137.967342 163.03538,-149.32475 13.65387,-1.940675 33.21583,-2.021281 34.77443,-0.14329 0.80974,0.975676 1.06046,10.818261 0.87244,34.25 L 368.5,135.5 l -7.41189,0.29708 c -5.25379,0.21058 -7.65146,-0.0806 -8.23468,-1 -0.45254,-0.7134 -0.8297,-10.18458 -0.83812,-21.04708 L 352,94 h -5.36901 c -12.80966,0 -36.3016,5.736996 -53.13099,12.97519 -48.12043,20.69622 -84.6147,63.50991 -96.47953,113.18609 -1.07447,4.49864 -2.53113,8.54581 -3.23703,8.99372 -0.70589,0.44791 -6.29084,0.82127 -12.411,0.82969 -8.38066,0.0115 -11.417,-0.33345 -12.30009,-1.39752 z m 41.17765,0.75055 c -1.91867,-0.7742 -1.51682,-4.91985 1.68651,-17.39848 4.48764,-17.48171 12.84019,-36.22475 22.4775,-50.43924 5.71768,-8.43327 19.76332,-23.52875 28.02626,-30.12108 C 269.9322,125.4017 274.91209,122.2512 286,116.47395 297.78479,110.33359 313.26209,106.27086 328.39733,105.3448 342.89237,104.45791 342,102.74207 342,131.5 c 0,25.65721 -0.19082,26.5 -6,26.5 -5.43509,0 -6,-1.65733 -6,-17.60281 0,-11.76116 -0.27276,-14.56463 -1.46142,-15.02076 -1.51677,-0.58204 -16.52921,2.16517 -20.03858,3.66696 -1.1,0.47073 -4.17345,1.56041 -6.82988,2.4215 -18.58456,6.02424 -39.38505,22.23375 -52.47541,40.89329 -9.63934,13.74032 -16.28008,28.37075 -20.71657,45.64139 -1.41638,5.51377 -3.15776,10.02421 -4.15033,10.75 -1.65079,1.20708 -11.52189,1.61948 -14.07781,0.58815 z M 441.5,147.48 c -12.31509,-9.50574 -34.59965,-19.5786 -48.79907,-22.0577 -5.76554,-1.00662 -6.70317,-2.51339 -6.68562,-10.74373 0.008,-3.94821 0.43049,-7.83493 0.93792,-8.63714 2.4066,-3.80464 26.56702,2.65064 45.54677,12.16938 14.08552,7.06418 31.5,19.33321 31.5,22.19271 0,1.49709 -12.71386,12.61907 -14.33261,12.53805 C 449.02532,152.90943 445.35,150.45172 441.5,147.48 Z m 22.15008,-18.45744 C 446.51775,114.86522 420.95484,102.3804 398,96.959334 c -5.225,-1.233949 -10.0625,-2.684696 -10.75,-3.223883 -1.48169,-1.162048 -1.75502,-22.389097 -0.31754,-24.66041 0.76873,-1.214649 1.9653,-1.234908 8.10735,-0.137262 21.01307,3.755245 49.86826,15.365394 68.76146,27.666806 12.28664,7.999865 24.1941,17.605655 24.1966,19.519495 C 487.99992,117.68969 471.05039,133 469.3151,133 c -0.46847,0 -3.01773,-1.78985 -5.66502,-3.97744 z"
       id="path1424"
       inkscape:connector-curvature="0" />
    <path
       style="fill:#b44094"
       d="m 355.23696,455.30992 -2.26305,-0.45244 0.26305,-34.17874 L 353.5,386.5 h 7 7 l 0.2695,21.75 0.2695,21.75 h 5.35826 c 6.76849,0 27.33339,-4.2988 39.10274,-8.17388 42.13457,-13.87288 79.39008,-46.82878 98.52303,-87.15264 C 517.19622,321.66313 521.6036,308.878 523.83776,297.5 l 1.76722,-9 11.86433,-0.28318 c 6.52538,-0.15575 12.24644,0.0989 12.71345,0.56594 0.96371,0.96371 -1.21145,12.55768 -4.75667,25.35387 -12.50855,45.14873 -40.26815,83.02295 -80.39977,109.69461 -24.90018,16.54877 -59.43932,28.79152 -86.52632,30.67013 -15.26957,1.05901 -21.01194,1.2586 -23.26304,0.80855 z M 321.5,451.84594 C 299.58139,446.40699 283.72067,440.66619 269.12672,432.88939 211.62697,402.24901 173.42589,345.38067 166.93717,280.76411 166.37028,275.11885 166.04001,266.675 166.20323,262 L 166.5,253.5 h 34 34 l 0.29381,7.25 0.29381,7.25 -20.79381,0.0153 c -11.4366,0.008 -21.4191,0.41129 -22.18334,0.89526 -1.09143,0.69116 -1.23693,2.45777 -0.67821,8.23468 5.58972,57.79463 39.93702,108.28503 91.77864,134.91426 12.79968,6.57474 20.57502,9.47179 35.7891,13.33483 l 12.5,3.17389 v 11.96589 11.96588 l -3,0.16926 c -1.65,0.0931 -4.8,-0.27741 -7,-0.82332 z m 53.16061,-36.28799 C 373.40694,412.29093 373.89738,366.50262 375.2,365.2 c 1.34895,-1.34895 5.66351,-1.57376 7.52355,-0.39201 0.86112,0.54709 1.30545,5.50418 1.5,16.73468 L 384.5,397.5 l 3.81893,0.31447 c 7.14207,0.58813 25.53635,-4.49004 36.80649,-10.16127 23.73704,-11.94468 44.4127,-33.21648 56.29247,-57.91554 4.36783,-9.0811 10.11139,-26.45484 11.05401,-33.43735 0.38606,-2.85983 1.29732,-5.69382 2.02501,-6.29774 0.7639,-0.63398 4.21386,-0.97222 8.16308,-0.80031 L 509.5,289.5 l 0.31912,3.32725 c 0.35662,3.71829 -4.56498,23.79981 -8.18983,33.4168 -19.52354,51.79737 -65.46113,88.02143 -114.71868,90.46136 -10.36109,0.51323 -11.6594,0.39161 -12.25,-1.14746 z M 325.5,413.21533 c -10.2568,-1.17672 -31.61282,-8.22545 -44.34016,-14.63484 -12.21269,-6.15021 -24.97771,-15.4951 -35.20488,-25.77245 -24.19646,-24.31518 -36.31863,-50.53019 -38.53289,-83.32999 -0.55891,-8.27914 -0.41539,-10.2387 0.82531,-11.26839 1.12763,-0.93585 7.45128,-1.17957 25.37725,-0.97805 L 257.5,277.5 l 0.30479,4.75 0.30479,4.75 h -15.51961 c -18.25767,0 -17.86118,-0.24895 -16.41994,10.30989 6.31921,46.2961 43.68307,85.40372 93.32997,97.68565 4.95,1.22456 9.5625,2.68162 10.25,3.23791 0.75898,0.61413 1.25,3.46856 1.25,7.26655 0,6.97041 -0.90669,8.2423 -5.5,7.71533 z M 350.89017,306.78111 C 342.47538,297.53517 312.98584,265.52006 293.06167,244 287.20572,237.675 277.14623,226.80526 270.70724,219.84502 264.26826,212.88478 259,206.92228 259,206.59502 259,206.26776 259.58415,206 260.29811,206 c 0.71396,0 23.22284,10.37107 50.01974,23.04682 28.86381,13.65346 49.22305,22.74019 49.95189,22.29451 0.67664,-0.41376 7.07601,-5.72233 14.22081,-11.79681 17.37669,-14.7736 32.46059,-27.54153 42.58261,-36.04452 4.58307,-3.85 14.654,-12.40713 22.37985,-19.01584 7.72584,-6.60871 19.22199,-16.35203 25.54699,-21.65182 10.84033,-9.08323 35.37852,-29.7122 53.92288,-45.33234 4.57076,-3.85 13.33756,-11.275 19.48178,-16.5 45.36481,-38.577879 59.00769,-49.920985 59.47736,-49.451309 0.25256,0.252557 -0.44598,1.469921 -1.55231,2.705252 C 595.22338,55.489274 586.0814,65.725 576.0142,77 565.94699,88.275 554.47092,101.1 550.51182,105.5 540.62441,116.4885 411.59564,260.04286 385.59636,288.98105 361.60633,315.68286 361.30753,316 360.14017,316 c -0.4729,0 -4.6354,-4.1485 -9.25,-9.21889 z m 132.53202,-39.12328 c -0.28882,-0.75267 -0.38947,-4.24609 -0.22366,-7.76316 L 483.5,253.5 l 21.75,-0.2695 c 13.26404,-0.16436 21.79335,-0.65205 21.86111,-1.25 1.51789,-13.39457 -6.42196,-45.72102 -15.81144,-64.37499 l -3.47034,-6.89448 8.83534,-8.8895 8.83533,-8.8895 1.90247,2.28398 c 2.70596,3.24862 9.94451,18.74143 14.03146,30.03179 7.1499,19.75192 10.66996,39.27792 10.91813,60.56357 L 552.5,268.5 l -34.27634,0.26316 c -28.26093,0.21697 -34.36849,0.023 -34.80147,-1.10533 z M 477.2,243.8 c -1.31022,-1.31022 -1.54235,-3.74428 -0.59301,-6.21821 0.50786,-1.32347 2.61089,-1.58179 12.87755,-1.58179 9.10513,0 12.56074,-0.34964 13.3954,-1.35534 2.27956,-2.7467 -3.20531,-25.52146 -8.77619,-36.44129 -2.46801,-4.83771 -2.29655,-5.33784 3.64976,-10.64565 3.39543,-3.03085 4.5379,-3.56076 5.66325,-2.62681 2.17623,1.80612 9.3853,18.98171 11.63834,27.72835 2.84596,11.04841 4.54218,28.91613 2.92954,30.85925 C 516.97677,244.73292 513.29784,245 497.57756,245 483.99501,245 478.0499,244.6499 477.2,243.8 Z M 169.55429,228.08784 c -1.89622,-3.06814 7.22883,-32.52373 15.36182,-49.58784 10.96988,-23.0163 22.42332,-38.82182 41.48157,-57.24376 C 261.63283,87.197505 311.89018,66.770614 357,68.173465 L 367.5,68.5 l 0.26354,33.29408 0.26353,33.29409 -7.26353,-0.29409 L 353.5,134.5 353,114 l -0.5,-20.5 -8.00229,0.09324 c -20.21513,0.235541 -52.59423,10.78049 -73.65285,23.98662 -36.65241,22.98522 -66.55376,64.07933 -74.88787,102.92014 -0.70809,3.3 -1.71818,6.5625 -2.24465,7.25 -1.13711,1.48489 -23.25794,1.79425 -24.15805,0.33784 z m 41.11238,0.24549 c -1.22766,-1.22765 -0.68601,-5.59645 1.95294,-15.75211 3.3649,-12.94934 9.25362,-27.41711 16.07977,-39.50575 5.86055,-10.37863 7.75282,-12.96168 19.46854,-26.57547 7.27785,-8.45695 9.55557,-10.52871 20.83208,-18.9484 4.50659,-3.36488 19.92076,-11.59755 27.57361,-14.72701 11.86771,-4.85303 39.54746,-8.62885 42.89427,-5.85125 C 340.7634,108.04853 341,111.82415 341,131.42244 341,156.20636 340.84486,157 336,157 c -4.6141,0 -5,-1.32601 -5,-17.18095 0,-17.57387 0.57292,-16.98236 -13.5,-13.93826 -22.81244,4.93452 -38.67874,13.65182 -56.35376,30.96202 C 253.76462,164.07208 242,179.34005 242,181.69055 c 0,0.35858 -0.60864,1.3624 -1.35254,2.23071 -3.2757,3.82354 -12.74464,29.1644 -14.1426,37.84856 -0.96537,5.99688 -2.57043,7.23018 -9.40962,7.23018 -3.16905,0 -6.06191,-0.3 -6.42857,-0.66667 z M 446.32673,149.66758 C 433.50051,139.08428 411.05772,128.1974 395.5,125.0118 c -3.3,-0.67571 -6.5625,-1.68489 -7.25,-2.24262 -1.69824,-1.37771 -1.69609,-15.15407 0.003,-16.56385 1.72311,-1.43006 10.3816,0.30405 26.24741,5.25678 13.90071,4.33929 47.42548,24.19687 48.27205,28.59276 C 463.01538,141.31839 451.24854,152 449.61333,152 c -0.25294,0 -1.73191,-1.04959 -3.2866,-2.33242 z M 464.43,128.65146 C 448.25678,114.87113 424.46393,103.03119 400,96.589431 l -12.5,-3.291457 -0.2819,-11.66813 c -0.22949,-9.498733 -0.0101,-11.772431 1.17999,-12.229112 2.98886,-1.146932 28.23158,5.257656 41.43496,10.512887 9.23331,3.675055 25.34039,12.073841 34.16693,17.81581 12.25551,7.972631 22.9007,16.511841 22.95399,18.412891 0.0442,1.57754 -15.908,15.85768 -17.71446,15.85768 -0.48373,0 -2.64801,-1.50684 -4.80951,-3.34854 z"
       id="path1422"
       inkscape:connector-curvature="0" />
    <path
       style="fill:#5b5b5b"
       d="m 355.23696,455.30992 -2.26305,-0.45244 0.26305,-34.17874 L 353.5,386.5 h 7 7 l 0.2695,21.75 0.2695,21.75 h 5.35826 c 6.76849,0 27.33339,-4.2988 39.10274,-8.17388 42.13457,-13.87288 79.39008,-46.82878 98.52303,-87.15264 C 517.19622,321.66313 521.6036,308.878 523.83776,297.5 l 1.76722,-9 11.86433,-0.28318 c 6.52538,-0.15575 12.24644,0.0989 12.71345,0.56594 0.96371,0.96371 -1.21145,12.55768 -4.75667,25.35387 -12.50855,45.14873 -40.26815,83.02295 -80.39977,109.69461 -24.90018,16.54877 -59.43932,28.79152 -86.52632,30.67013 -15.26957,1.05901 -21.01194,1.2586 -23.26304,0.80855 z M 321.5,451.84594 C 299.58139,446.40699 283.72067,440.66619 269.12672,432.88939 211.62697,402.24901 173.42589,345.38067 166.93717,280.76411 166.37028,275.11885 166.04001,266.675 166.20323,262 L 166.5,253.5 h 34 34 l 0.29381,7.25 0.29381,7.25 -20.79381,0.0153 c -11.4366,0.008 -21.4191,0.41129 -22.18334,0.89526 -1.09143,0.69116 -1.23693,2.45777 -0.67821,8.23468 5.58972,57.79463 39.93702,108.28503 91.77864,134.91426 12.79968,6.57474 20.57502,9.47179 35.7891,13.33483 l 12.5,3.17389 v 11.96589 11.96588 l -3,0.16926 c -1.65,0.0931 -4.8,-0.27741 -7,-0.82332 z m 53.16061,-36.28799 C 373.40694,412.29093 373.89738,366.50262 375.2,365.2 c 1.34895,-1.34895 5.66351,-1.57376 7.52355,-0.39201 0.86112,0.54709 1.30545,5.50418 1.5,16.73468 L 384.5,397.5 l 3.81893,0.31447 c 7.14207,0.58813 25.53635,-4.49004 36.80649,-10.16127 23.73704,-11.94468 44.4127,-33.21648 56.29247,-57.91554 4.36783,-9.0811 10.11139,-26.45484 11.05401,-33.43735 0.38606,-2.85983 1.29732,-5.69382 2.02501,-6.29774 0.7639,-0.63398 4.21386,-0.97222 8.16308,-0.80031 L 509.5,289.5 l 0.31912,3.32725 c 0.35662,3.71829 -4.56498,23.79981 -8.18983,33.4168 -19.52354,51.79737 -65.46113,88.02143 -114.71868,90.46136 -10.36109,0.51323 -11.6594,0.39161 -12.25,-1.14746 z M 325.5,413.21533 c -10.2568,-1.17672 -31.61282,-8.22545 -44.34016,-14.63484 -12.21269,-6.15021 -24.97771,-15.4951 -35.20488,-25.77245 -24.19646,-24.31518 -36.31863,-50.53019 -38.53289,-83.32999 -0.55891,-8.27914 -0.41539,-10.2387 0.82531,-11.26839 1.12763,-0.93585 7.45128,-1.17957 25.37725,-0.97805 L 257.5,277.5 l 0.30479,4.75 0.30479,4.75 h -15.51961 c -18.25767,0 -17.86118,-0.24895 -16.41994,10.30989 6.31921,46.2961 43.68307,85.40372 93.32997,97.68565 4.95,1.22456 9.5625,2.68162 10.25,3.23791 0.75898,0.61413 1.25,3.46856 1.25,7.26655 0,6.97041 -0.90669,8.2423 -5.5,7.71533 z m -3.00705,-139.30577 c -20.34612,-22.07893 -42.22932,-45.82837 -48.62932,-52.77653 -6.4,-6.94817 -11.53665,-12.74638 -11.41477,-12.88493 0.12188,-0.13854 21.6387,9.87396 47.81515,22.25 26.17645,12.37605 48.27124,22.5019 49.09954,22.5019 0.82829,0 6.37284,-4.14824 12.32122,-9.21832 20.29171,-17.29557 36.80941,-31.29164 41.31523,-35.00796 2.475,-2.04134 8.34913,-6.98802 13.05362,-10.99262 14.62383,-12.44824 73.7404,-62.40867 88.32035,-74.64104 13.05386,-10.952 28.44288,-23.986861 42.12603,-35.681726 16.39555,-14.013131 31.77292,-26.546236 29.91848,-24.38463 -3.40002,3.963201 -29.03647,32.7869 -36.84548,41.426296 -10.99451,12.16364 -140.02016,155.69075 -165.45186,184.04735 -12.30838,13.72396 -22.88655,25.07709 -23.50705,25.22919 -0.6205,0.15209 -17.77501,-17.78805 -38.12114,-39.86698 z m 160.92924,-6.25173 c -0.28882,-0.75267 -0.38947,-4.24609 -0.22366,-7.76316 L 483.5,253.5 l 21.75,-0.2695 c 13.26404,-0.16436 21.79335,-0.65205 21.86111,-1.25 1.51789,-13.39457 -6.42196,-45.72102 -15.81144,-64.37499 l -3.47034,-6.89448 8.83534,-8.8895 8.83533,-8.8895 1.90247,2.28398 c 2.70596,3.24862 9.94451,18.74143 14.03146,30.03179 7.1499,19.75192 10.66996,39.27792 10.91813,60.56357 L 552.5,268.5 l -34.27634,0.26316 c -28.26093,0.21697 -34.36849,0.023 -34.80147,-1.10533 z M 477.2,243.8 c -1.31022,-1.31022 -1.54235,-3.74428 -0.59301,-6.21821 0.50786,-1.32347 2.61089,-1.58179 12.87755,-1.58179 9.10513,0 12.56074,-0.34964 13.3954,-1.35534 2.27956,-2.7467 -3.20531,-25.52146 -8.77619,-36.44129 -2.46801,-4.83771 -2.29655,-5.33784 3.64976,-10.64565 3.39543,-3.03085 4.5379,-3.56076 5.66325,-2.62681 2.17623,1.80612 9.3853,18.98171 11.63834,27.72835 2.84596,11.04841 4.54218,28.91613 2.92954,30.85925 C 516.97677,244.73292 513.29784,245 497.57756,245 483.99501,245 478.0499,244.6499 477.2,243.8 Z M 169.55429,228.08784 c -1.89622,-3.06814 7.22883,-32.52373 15.36182,-49.58784 10.96988,-23.0163 22.42332,-38.82182 41.48157,-57.24376 C 261.63283,87.197505 311.89018,66.770614 357,68.173465 L 367.5,68.5 l 0.26354,33.29408 0.26353,33.29409 -7.26353,-0.29409 L 353.5,134.5 353,114 l -0.5,-20.5 -8.00229,0.09324 c -20.21513,0.235541 -52.59423,10.78049 -73.65285,23.98662 -36.65241,22.98522 -66.55376,64.07933 -74.88787,102.92014 -0.70809,3.3 -1.71818,6.5625 -2.24465,7.25 -1.13711,1.48489 -23.25794,1.79425 -24.15805,0.33784 z m 41.11238,0.24549 c -1.22766,-1.22765 -0.68601,-5.59645 1.95294,-15.75211 3.3649,-12.94934 9.25362,-27.41711 16.07977,-39.50575 5.86055,-10.37863 7.75282,-12.96168 19.46854,-26.57547 7.27785,-8.45695 9.55557,-10.52871 20.83208,-18.9484 4.50659,-3.36488 19.92076,-11.59755 27.57361,-14.72701 11.86771,-4.85303 39.54746,-8.62885 42.89427,-5.85125 C 340.7634,108.04853 341,111.82415 341,131.42244 341,156.20636 340.84486,157 336,157 c -4.6141,0 -5,-1.32601 -5,-17.18095 0,-17.57387 0.57292,-16.98236 -13.5,-13.93826 -22.81244,4.93452 -38.67874,13.65182 -56.35376,30.96202 C 253.76462,164.07208 242,179.34005 242,181.69055 c 0,0.35858 -0.60864,1.3624 -1.35254,2.23071 -3.2757,3.82354 -12.74464,29.1644 -14.1426,37.84856 -0.96537,5.99688 -2.57043,7.23018 -9.40962,7.23018 -3.16905,0 -6.06191,-0.3 -6.42857,-0.66667 z M 446.32673,149.66758 C 433.50051,139.08428 411.05772,128.1974 395.5,125.0118 c -3.3,-0.67571 -6.5625,-1.68489 -7.25,-2.24262 -1.69824,-1.37771 -1.69609,-15.15407 0.003,-16.56385 1.72311,-1.43006 10.3816,0.30405 26.24741,5.25678 13.90071,4.33929 47.42548,24.19687 48.27205,28.59276 C 463.01538,141.31839 451.24854,152 449.61333,152 c -0.25294,0 -1.73191,-1.04959 -3.2866,-2.33242 z M 464.43,128.65146 C 448.25678,114.87113 424.46393,103.03119 400,96.589431 l -12.5,-3.291457 -0.2819,-11.66813 c -0.22949,-9.498733 -0.0101,-11.772431 1.17999,-12.229112 2.98886,-1.146932 28.23158,5.257656 41.43496,10.512887 9.23331,3.675055 25.34039,12.073841 34.16693,17.81581 12.25551,7.972631 22.9007,16.511841 22.95399,18.412891 0.0442,1.57754 -15.908,15.85768 -17.71446,15.85768 -0.48373,0 -2.64801,-1.50684 -4.80951,-3.34854 z"
       id="path1420"
       inkscape:connector-curvature="0" />
    <path
       style="fill:#9c0170"
       d="M 354.66667,454.33333 C 354.3,453.96667 354,438.66667 354,420.33333 V 387 h 6.35045 6.35045 l 0.68327,12.94266 c 0.3758,7.11847 0.38483,15.85567 0.0201,19.41601 -0.36476,3.56034 -0.37137,7.63614 -0.0147,9.05734 0.57746,2.30077 1.14281,2.58399 5.15806,2.58399 2.48024,0 10.14243,-1.14054 17.0271,-2.53452 51.6059,-10.44902 93.81212,-41.20118 118.67072,-86.46548 7.00009,-12.74626 14.6064,-33.74303 16.81201,-46.40855 L 526.20531,289 h 11.89734 c 6.54354,0 11.89735,0.40046 11.89735,0.88992 0,0.48946 -0.87417,5.10196 -1.94261,10.25 -8.02975,38.68983 -23.69214,68.24109 -50.98207,96.19125 -32.97913,33.777 -75.25238,53.89434 -121.24488,57.69899 -13.48582,1.11559 -20.25439,1.21255 -21.16377,0.30317 z M 320.5,450.82333 C 293.94266,444.38342 271.15561,434.89 253,422.70184 216.31365,398.07368 187.30983,359.08291 174.97123,317.80527 170.25362,302.02294 167,281.04921 167,266.42053 V 254 h 33.54569 33.54569 l -0.29569,6.75 -0.29569,6.75 -20.96154,0.28326 c -15.07182,0.20368 -21.19331,0.62514 -21.78639,1.5 -1.80339,2.66017 2.0471,26.71211 6.73882,42.09385 7.24057,23.73814 22.18063,48.98626 39.82892,67.30934 24.89601,25.84792 53.23571,41.34998 90.93019,49.73959 L 331,429.0381 V 440.51905 452 l -3.25,-0.10335 c -1.7875,-0.0568 -5.05,-0.53984 -7.25,-1.07332 z M 376,391.14981 V 366 h 3.5 3.5 v 15.8 c 0,16.68301 0.38647,18.2 4.63665,18.2 2.32947,0 15.71682,-3.03052 22.15096,-5.01436 16.36293,-5.04518 32.49886,-14.78749 47.06288,-28.41492 9.01748,-8.43758 21.43623,-26.55354 27.19081,-39.66483 3.43227,-7.8201 8.95606,-24.30105 8.96428,-26.74607 0.003,-0.9129 0.47422,-3.34732 1.047,-5.40982 l 1.04143,-3.75 h 6.95299 c 5.37296,0 6.953,0.32601 6.953,1.43462 0,2.95592 -3.14136,16.39447 -5.99053,25.62713 -16.94858,54.92149 -64.33241,94.71392 -116.25947,97.63347 l -10.75,0.6044 z m -62,18.38952 C 283.82313,401.35673 261.23295,388.07751 241.96671,367.19589 221.35048,344.85108 209.0588,315.58851 209.01567,288.75 L 209,279 h 24 24 v 3.5 3.5 h -15.46482 c -18.65599,0 -18.31497,-0.24399 -16.49066,11.79842 3.74413,24.71527 14.8702,46.19705 33.45548,64.59456 9.85531,9.75574 24.10713,19.71891 35.88398,25.08579 7.80402,3.55641 24.26805,8.88252 30.86602,9.98516 l 3.75,0.6267 V 405.04531 412 l -3.25,-0.0779 c -1.7875,-0.0429 -7.075,-1.11509 -11.75,-2.38274 z m 8.49295,-135.62977 c -20.34612,-22.07893 -42.22932,-45.82837 -48.62932,-52.77653 -6.4,-6.94817 -11.53665,-12.74638 -11.41477,-12.88493 0.12188,-0.13854 21.6387,9.87396 47.81515,22.25 26.17645,12.37605 48.27124,22.5019 49.09954,22.5019 0.82829,0 6.37284,-4.14824 12.32122,-9.21832 20.29171,-17.29557 36.80941,-31.29164 41.31523,-35.00796 2.475,-2.04134 8.34913,-6.98802 13.05362,-10.99262 14.62383,-12.44824 73.7404,-62.40867 88.32035,-74.64104 13.05386,-10.952 28.44288,-23.986861 42.12603,-35.681726 16.39555,-14.013131 31.77292,-26.546236 29.91848,-24.38463 -3.40002,3.963201 -29.03647,32.7869 -36.84548,41.426296 -10.99451,12.16364 -140.02016,155.69075 -165.45186,184.04735 -12.30838,13.72396 -22.88655,25.07709 -23.50705,25.22919 -0.6205,0.15209 -17.77501,-17.78805 -38.12114,-39.86698 z M 484,261.0195 v -6.9805 l 21.75,-0.2695 21.75,-0.2695 -0.16454,-9.51218 c -0.25365,-14.66406 -6.22269,-36.98819 -14.95699,-55.93893 l -3.43417,-7.45112 8.20535,-8.2482 c 4.51294,-4.53651 8.58885,-8.01119 9.05757,-7.7215 1.49098,0.92147 10.40867,19.51956 14.08369,29.37193 6.84323,18.34602 10.48793,37.28873 11.40009,59.25 L 552.30364,268 H 518.15182 484 Z M 478,240 v -3 h 12.98095 12.98095 l 0.64333,-2.56326 c 1.26002,-5.0203 -6.6251,-35.09492 -9.69954,-36.99503 -1.92271,-1.1883 -0.76237,-5.18828 2.39192,-8.24554 1.81368,-1.75789 3.8322,-3.19617 4.4856,-3.19617 0.6534,0 2.48827,2.5875 4.07748,5.75 C 512.67916,205.31859 517,222.41603 517,235.82793 V 243 H 497.5 478 Z M 170,227.09711 c 0,-6.4158 7.18653,-29.96752 13.5776,-44.49653 9.88297,-22.46728 21.43958,-38.84686 41.34561,-58.60058 20.5846,-20.42709 40.32393,-33.249005 66.96129,-43.49549 21.55497,-8.291463 67.82211,-15.505848 74.07535,-11.550488 1.20376,0.761418 1.47948,4.882654 1.57177,23.494079 0.0616,12.413879 -0.14537,26.953959 -0.45985,32.311289 L 366.5,134.5 h -6 -6 l -0.55134,-21 c -0.30323,-11.55 -0.64073,-21.179884 -0.75,-21.399743 -0.4455,-0.896413 -18.31675,0.988295 -26.97286,2.844568 C 262.27407,108.65905 212.2433,156.11356 195.60382,218.84065 l -2.29705,8.65935 -11.65339,0.28174 C 174.62722,227.9516 170,227.67976 170,227.09711 Z M 211.56723,223.25 c 2.59299,-14.78092 8.98507,-32.93758 16.5066,-46.88693 6.30197,-11.68754 9.36561,-16.10612 18.28041,-26.36513 C 258.11051,136.46901 269.71379,127.44453 285.5,119.55223 302.17902,111.21357 314.20383,108 328.72707,108 H 339 v 23.5 23.5 h -3 -3 v -14.06574 c 0,-7.78353 -0.46235,-14.92965 -1.03518,-16 -0.63832,-1.19271 -2.07598,-1.9272 -3.75,-1.91583 -4.04746,0.0275 -19.35509,2.865 -20.61759,3.82183 -0.60348,0.45736 -3.57223,1.60657 -6.59723,2.55379 -3.025,0.94723 -6.91886,2.48357 -8.65303,3.41409 -1.73416,0.93052 -5.4831,2.92909 -8.33097,4.44127 -8.32428,4.42004 -21.50766,15.47095 -29.36079,24.61154 -6.35131,7.39255 -17.30926,24.11908 -20.07238,30.63905 -3.01145,7.10594 -8.73689,25.16519 -10.0659,31.75 -0.53735,2.66239 -0.76296,2.75 -7.0813,2.75 h -6.52626 z M 442.56802,145.51052 C 431.13527,136.6328 412.90548,128.15767 396.5,124.09323 l -7,-1.73424 -0.29206,-7.67949 -0.29207,-7.6795 2.79207,0.0235 c 3.06225,0.0258 13.15757,2.62454 23.29206,5.99581 13.07769,4.35035 31.47669,14.57988 42.77922,23.78452 l 4.27922,3.48494 -5.27922,4.8102 c -2.90357,2.64561 -5.98806,4.83063 -6.85443,4.8556 -0.86636,0.025 -4.17691,-1.97487 -7.35677,-4.44409 z m 21.43517,-18.00786 C 447.46602,113.68625 423.4066,101.8816 398.75,95.486461 L 388,92.698253 V 81.349126 c 0,-13.247276 -0.99336,-12.527858 13,-9.414987 27.83176,6.191274 56.10272,19.799981 79.33012,38.186901 3.04247,2.40843 5.76311,4.91383 6.04587,5.56755 C 486.88738,116.87089 470.99533,131 469.15412,131 c -0.53069,0 -2.84861,-1.5738 -5.15093,-3.49734 z"
       id="path1418"
       inkscape:connector-curvature="0" />
    <path
       style="fill:#363636"
       d="M 354.66667,454.33333 C 354.3,453.96667 354,438.66667 354,420.33333 V 387 h 6.35045 6.35045 l 0.68327,12.94266 c 0.3758,7.11847 0.38483,15.85567 0.0201,19.41601 -0.36476,3.56034 -0.37137,7.63614 -0.0147,9.05734 0.57746,2.30077 1.14281,2.58399 5.15806,2.58399 2.48024,0 10.14243,-1.14054 17.0271,-2.53452 51.6059,-10.44902 93.81212,-41.20118 118.67072,-86.46548 7.00009,-12.74626 14.6064,-33.74303 16.81201,-46.40855 L 526.20531,289 h 11.89734 c 6.54354,0 11.89735,0.40046 11.89735,0.88992 0,0.48946 -0.87417,5.10196 -1.94261,10.25 -8.02975,38.68983 -23.69214,68.24109 -50.98207,96.19125 -32.97913,33.777 -75.25238,53.89434 -121.24488,57.69899 -13.48582,1.11559 -20.25439,1.21255 -21.16377,0.30317 z M 320.5,450.82333 C 293.94266,444.38342 271.15561,434.89 253,422.70184 216.31365,398.07368 187.30983,359.08291 174.97123,317.80527 170.25362,302.02294 167,281.04921 167,266.42053 V 254 h 33.54569 33.54569 l -0.29569,6.75 -0.29569,6.75 -20.96154,0.28326 c -15.07182,0.20368 -21.19331,0.62514 -21.78639,1.5 -1.80339,2.66017 2.0471,26.71211 6.73882,42.09385 7.24057,23.73814 22.18063,48.98626 39.82892,67.30934 24.89601,25.84792 53.23571,41.34998 90.93019,49.73959 L 331,429.0381 V 440.51905 452 l -3.25,-0.10335 c -1.7875,-0.0568 -5.05,-0.53984 -7.25,-1.07332 z M 376,391.14981 V 366 h 3.5 3.5 v 15.8 c 0,16.68301 0.38647,18.2 4.63665,18.2 2.32947,0 15.71682,-3.03052 22.15096,-5.01436 16.36293,-5.04518 32.49886,-14.78749 47.06288,-28.41492 9.01748,-8.43758 21.43623,-26.55354 27.19081,-39.66483 3.43227,-7.8201 8.95606,-24.30105 8.96428,-26.74607 0.003,-0.9129 0.47422,-3.34732 1.047,-5.40982 l 1.04143,-3.75 h 6.95299 c 5.37296,0 6.953,0.32601 6.953,1.43462 0,2.95592 -3.14136,16.39447 -5.99053,25.62713 -16.94858,54.92149 -64.33241,94.71392 -116.25947,97.63347 l -10.75,0.6044 z m -62,18.38952 C 283.82313,401.35673 261.23295,388.07751 241.96671,367.19589 221.35048,344.85108 209.0588,315.58851 209.01567,288.75 L 209,279 h 24 24 v 3.5 3.5 h -15.46482 c -18.65599,0 -18.31497,-0.24399 -16.49066,11.79842 3.74413,24.71527 14.8702,46.19705 33.45548,64.59456 9.85531,9.75574 24.10713,19.71891 35.88398,25.08579 7.80402,3.55641 24.26805,8.88252 30.86602,9.98516 l 3.75,0.6267 V 405.04531 412 l -3.25,-0.0779 c -1.7875,-0.0429 -7.075,-1.11509 -11.75,-2.38274 z M 484,261.0195 v -6.9805 l 21.75,-0.2695 21.75,-0.2695 -0.16454,-9.51218 c -0.25365,-14.66406 -6.22269,-36.98819 -14.95699,-55.93893 l -3.43417,-7.45112 8.20535,-8.2482 c 4.51294,-4.53651 8.58885,-8.01119 9.05757,-7.7215 1.49098,0.92147 10.40867,19.51956 14.08369,29.37193 6.84323,18.34602 10.48793,37.28873 11.40009,59.25 L 552.30364,268 H 518.15182 484 Z M 478,240 v -3 h 12.98095 12.98095 l 0.64333,-2.56326 c 1.26002,-5.0203 -6.6251,-35.09492 -9.69954,-36.99503 -1.92271,-1.1883 -0.76237,-5.18828 2.39192,-8.24554 1.81368,-1.75789 3.8322,-3.19617 4.4856,-3.19617 0.6534,0 2.48827,2.5875 4.07748,5.75 C 512.67916,205.31859 517,222.41603 517,235.82793 V 243 H 497.5 478 Z M 170,227.09711 c 0,-6.4158 7.18653,-29.96752 13.5776,-44.49653 9.88297,-22.46728 21.43958,-38.84686 41.34561,-58.60058 20.5846,-20.42709 40.32393,-33.249005 66.96129,-43.49549 21.55497,-8.291463 67.82211,-15.505848 74.07535,-11.550488 1.20376,0.761418 1.47948,4.882654 1.57177,23.494079 0.0616,12.413879 -0.14537,26.953959 -0.45985,32.311289 L 366.5,134.5 h -6 -6 l -0.55134,-21 c -0.30323,-11.55 -0.64073,-21.179884 -0.75,-21.399743 -0.4455,-0.896413 -18.31675,0.988295 -26.97286,2.844568 C 262.27407,108.65905 212.2433,156.11356 195.60382,218.84065 l -2.29705,8.65935 -11.65339,0.28174 C 174.62722,227.9516 170,227.67976 170,227.09711 Z M 211.56723,223.25 c 2.59299,-14.78092 8.98507,-32.93758 16.5066,-46.88693 6.30197,-11.68754 9.36561,-16.10612 18.28041,-26.36513 C 258.11051,136.46901 269.71379,127.44453 285.5,119.55223 302.17902,111.21357 314.20383,108 328.72707,108 H 339 v 23.5 23.5 h -3 -3 v -14.06574 c 0,-7.78353 -0.46235,-14.92965 -1.03518,-16 -0.63832,-1.19271 -2.07598,-1.9272 -3.75,-1.91583 -4.04746,0.0275 -19.35509,2.865 -20.61759,3.82183 -0.60348,0.45736 -3.57223,1.60657 -6.59723,2.55379 -3.025,0.94723 -6.91886,2.48357 -8.65303,3.41409 -1.73416,0.93052 -5.4831,2.92909 -8.33097,4.44127 -8.32428,4.42004 -21.50766,15.47095 -29.36079,24.61154 -6.35131,7.39255 -17.30926,24.11908 -20.07238,30.63905 -3.01145,7.10594 -8.73689,25.16519 -10.0659,31.75 -0.53735,2.66239 -0.76296,2.75 -7.0813,2.75 h -6.52626 z M 442.56802,145.51052 C 431.13527,136.6328 412.90548,128.15767 396.5,124.09323 l -7,-1.73424 -0.29206,-7.67949 -0.29207,-7.6795 2.79207,0.0235 c 3.06225,0.0258 13.15757,2.62454 23.29206,5.99581 13.07769,4.35035 31.47669,14.57988 42.77922,23.78452 l 4.27922,3.48494 -5.27922,4.8102 c -2.90357,2.64561 -5.98806,4.83063 -6.85443,4.8556 -0.86636,0.025 -4.17691,-1.97487 -7.35677,-4.44409 z m 21.43517,-18.00786 C 447.46602,113.68625 423.4066,101.8816 398.75,95.486461 L 388,92.698253 V 81.349126 c 0,-13.247276 -0.99336,-12.527858 13,-9.414987 27.83176,6.191274 56.10272,19.799981 79.33012,38.186901 3.04247,2.40843 5.76311,4.91383 6.04587,5.56755 C 486.88738,116.87089 470.99533,131 469.15412,131 c -0.53069,0 -2.84861,-1.5738 -5.15093,-3.49734 z"
       id="path1416"
       inkscape:connector-curvature="0" />
    <path
       style="fill:#010101"
       d="m 354.51211,452.89215 c -0.29747,-0.7752 -0.42189,-15.80556 -0.27649,-33.4008 L 354.5,387.5 h 6 6 l 0.5,22 0.5,22 6.5,-0.30293 c 3.575,-0.16661 11.15356,-1.21564 16.84125,-2.33118 45.94695,-9.01173 86.30538,-36.3372 111.51658,-75.50454 9.95075,-15.45917 21.23605,-43.13693 23.18458,-56.86135 0.39043,-2.75 1.15821,-5.5625 1.70618,-6.25 0.68343,-0.85746 4.2956,-1.25 11.50269,-1.25 h 10.50638 l -0.66997,5.05048 c -0.36848,2.77776 -2.03406,10.30415 -3.70129,16.72531 -8.8563,34.10924 -25.88368,63.37257 -51.09095,87.80514 -28.18356,27.31741 -59.24783,43.90445 -97.29545,51.95179 -14.9516,3.16236 -41.11559,4.6326 -41.98789,2.35943 z M 318,449.45065 C 245.24419,432.80614 188.83507,376.57964 172.07691,304 c -3.01864,-13.07376 -4.34448,-24.18114 -4.46596,-37.41421 L 167.5,254.5 h 33 33 v 6 6 l -21.5,0.5 -21.5,0.5 0.19201,9.5 c 0.66974,33.13651 19.05408,74.09667 45.6514,101.71095 23.90148,24.81537 50.07763,40.0024 83.15659,48.24629 l 11,2.7414 v 10.81735 c 0,6.37175 -0.41097,10.92408 -1,11.07706 -0.55,0.14284 -5.725,-0.82124 -11.5,-2.1424 z M 485.2,266.8 c -1.55581,-1.55581 -1.55581,-10.04419 0,-11.6 0.85822,-0.85822 7.26667,-1.2 22.5,-1.2 H 529 l -0.0183,-3.75 c -0.0291,-5.9586 -2.73572,-23.45343 -5.00117,-32.32635 -2.38047,-9.32335 -5.46249,-17.80986 -10.6013,-29.19118 l -3.59781,-7.96834 7.85709,-7.90344 c 9.12234,-9.17616 8.02721,-9.5182 14.85384,4.63931 10.24311,21.24281 16.59315,45.78734 18.6738,72.17896 0.975,12.36715 0.95514,15.46999 -0.10717,16.75 C 549.92399,267.79651 545.65205,268 518.07756,268 494.77279,268 486.08282,267.68282 485.2,266.8 Z M 171.00912,225.78383 c 0.0153,-3.82858 4.80421,-21.3713 8.62935,-31.61091 C 202.32705,133.43713 255.01035,87.583374 318.11682,73.646069 333.26068,70.30149 346.53896,68.796704 357.5,69.182899 l 9,0.317101 v 32 32 h -6 -6 l -0.5,-21 -0.5,-21 -7,0.299974 C 298.28779,93.866035 247.19773,123.52247 218.79322,165.93039 207.26103,183.14794 200.67886,198.31615 193.16024,225 c -0.68843,2.44326 -0.94789,2.50644 -11.43233,2.78383 -10.59078,0.28021 -10.72779,0.25464 -10.71879,-2 z m 293.0723,-99.21581 C 448.0647,113.18644 422.96172,100.90542 399.5,94.97314 l -11,-2.78134 -0.28679,-10.259115 c -0.15773,-5.642513 0.0788,-10.624701 0.52563,-11.071528 1.1306,-1.130598 20.16093,3.310427 33.03761,7.709843 19.5262,6.671275 45.99964,21.61471 59.58117,33.63173 l 4.85763,4.29806 -8.06337,6.7496 c -4.43485,3.71229 -8.4907,6.74961 -9.01301,6.74961 -0.5223,0 -2.79816,-1.54439 -5.05745,-3.43198 z"
       id="path1414"
       inkscape:connector-curvature="0" />
  </g>
</svg>
